<svg width="256" height="256" viewBox="-100.24763786326591 -100.24763786326591 200.49527572653182 200.49527572653182" xmlns="http://www.w3.org/2000/svg"><g id="comitl-disc"><path id="arcs" d="M 0.042483669 -0.020270299 A 0.04707172397712833 0.04707172397712833 0 1 1 -0.047043199 0.001638472 M -1.399963476 7.627394239 A 7.754807580845496 7.754807580845496 0 1 1 4.928292498 -5.987401245 M -2.599476611 15.242472598 A 15.462543437713862 15.462543437713862 0 0 1 -14.84199234 -4.336532364 M -1.428433986 23.126206324 A 23.17027929458223 23.17027929458223 0 1 1 12.333610037 -19.614889907 M -28.249874337 -12.465810026 A 30.878015151450597 30.878015151450597 0 0 1 27.17519067 -14.661542611 M -38.576806188 -0.83078588 A 38.585751008318965 38.585751008318965 0 0 1 -37.196795752 -10.25955977 M 6.2024972 45.876093498 A 46.29348686518733 46.29348686518733 0 1 1 46.190134109 -3.091672215 M -44.534769162 30.541551879 A 54.0012227220557 54.0012227220557 0 0 1 13.171073958 -52.37036248 M -4.313389157 -61.558023383 A 61.70895857892407 61.70895857892407 0 1 1 -39.593207774 -47.332583566 M 56.748157803 -39.979045166 A 69.41669443579244 69.41669443579244 0 1 1 -10.484317117 -68.62038007 M 74.242026608 20.887777124 A 77.1244302926608 77.1244302926608 0 1 1 29.876800548 -71.102422863" stroke="#3d565e" stroke-width="4.052855163794844" stroke-linecap="round" fill="none"/><circle id="outline" cx="0.0" cy="0.0" r="84.83216614952917" stroke="#3d565e" stroke-width="4.052855163794844" fill="none"/></g></svg>