<?xml version="1.0"?>
<svg xmlns="http://www.w3.org/2000/svg" height="180" viewBox="-108.89 -108.89 217.77 217.77" width="180">
	<g id="comitl-disc">
		<g id="arcs">
			<path d="M 9.291239009 -15.41664288 A 18.0 18.0 0 0 1 10.415945893 -14.680193158" fill="none" id="arc-1" stroke="#3d565e" stroke-linecap="round" stroke-width="6.0">
				<animateTransform attributeName="transform" dur="1.0s" from="0 0.0 0.0" repeatCount="indefinite" to="360 0.0 0.0" type="rotate"/>
			</path>
			<path d="M -22.124421475 20.261045737 A 30.0 30.0 0 1 1 6.132243799 29.366572595" fill="none" id="arc-2" stroke="#3d565e" stroke-linecap="round" stroke-width="6.0">
				<animateTransform attributeName="transform" dur="2.0s" from="0 0.0 0.0" repeatCount="indefinite" to="360 0.0 0.0" type="rotate"/>
			</path>
			<path d="M 41.964629304 1.723336125 A 42.0 42.0 0 0 1 -11.672267745 40.345485072" fill="none" id="arc-3" stroke="#3d565e" stroke-linecap="round" stroke-width="6.0">
				<animateTransform attributeName="transform" dur="3.0s" from="0 0.0 0.0" repeatCount="indefinite" to="360 0.0 0.0" type="rotate"/>
			</path>
			<path d="M 32.183821332 43.361292006 A 54.0 54.0 0 1 1 -25.539120921 -47.578916576" fill="none" id="arc-4" stroke="#3d565e" stroke-linecap="round" stroke-width="6.0">
				<animateTransform attributeName="transform" dur="4.0s" from="0 0.0 0.0" repeatCount="indefinite" to="360 0.0 0.0" type="rotate"/>
			</path>
			<path d="M 10.583797394 -65.145861209 A 66.0 66.0 0 1 1 -6.051795796 -65.721958033" fill="none" id="arc-5" stroke="#3d565e" stroke-linecap="round" stroke-width="6.0">
				<animateTransform attributeName="transform" dur="5.0s" from="0 0.0 0.0" repeatCount="indefinite" to="360 0.0 0.0" type="rotate"/>
			</path>
			<path d="M 77.941554093 -3.018964314 A 78.0 78.0 0 0 1 60.396610803 49.358377238" fill="none" id="arc-6" stroke="#3d565e" stroke-linecap="round" stroke-width="6.0">
				<animateTransform attributeName="transform" dur="6.0s" from="0 0.0 0.0" repeatCount="indefinite" to="360 0.0 0.0" type="rotate"/>
			</path>
		</g>
		<g id="outlines">
			<circle cx="0.0" cy="0.0" fill="none" id="outline-1" r="6.0" stroke="#3d565e" stroke-width="6.0"/>
			<circle cx="0.0" cy="0.0" fill="none" id="outline-2" r="90.0" stroke="#3d565e" stroke-width="6.0"/>
		</g>
	</g>
</svg>
