<svg width="256" height="256" viewBox="-34.88961273433923 -34.88961273433923 69.77922546867846 69.77922546867846" xmlns="http://www.w3.org/2000/svg"><g id="comitl-disc"><path id="arcs" d="M 0.076814287 1.617988058 A 1.619810418282796 1.619810418282796 0 1 1 1.353343249 -0.890083053 M 0.40916973 -5.300686293 A 5.316455120066844 5.316455120066844 0 0 1 5.183247363 1.18264188 M -6.816172168 5.897098047 A 9.013099821850892 9.013099821850892 0 1 1 8.969563479 0.884816026 M -10.64640585 6.94202048 A 12.709744523634939 12.709744523634939 0 0 1 10.354955539 -7.369701598 M -7.993572844 14.327330547 A 16.406389225418987 16.406389225418987 0 1 1 15.957458116 3.811710625 M 11.003286661 16.82437683 A 20.103033927203036 20.103033927203036 0 1 1 5.240593177 -19.407940546 M 23.46541039 3.974823022 A 23.799678628987085 23.799678628987085 0 0 1 -7.891415171 22.453290838" stroke="#45d13f" stroke-width="2.1137022204639044" stroke-linecap="round" fill="none"/><circle id="outline" cx="0.0" cy="0.0" r="27.496323330771133" stroke="#45d13f" stroke-width="2.1137022204639044" fill="none"/></g></svg>