<svg height="180" viewBox="-62.61 -62.61 125.22 125.22" width="180" xmlns="http://www.w3.org/2000/svg"><g id="comitl-disc"><path d="M 1.948604152 -9.418592395 A 9.618052861 9.618052861 0 1 1 -3.602516357 8.917893066M 3.263941115 -14.035698968 A 14.410210169 14.410210169 0 1 1 -4.288278768 13.757355208M -7.523193911 -17.667271155 A 19.202367477 19.202367477 0 0 1 16.19944831 10.31061546M -22.625879752 7.987914938 A 23.994524784 23.994524784 0 0 1 -3.387984836 -23.754131817M 21.723263898 18.888432214 A 28.786682092 28.786682092 0 1 1 26.509401732 11.221616892M 32.381915012 8.885383253 A 33.5788394 33.5788394 0 1 1 23.227333159 -24.249318542M -37.223786278 9.312525084 A 38.370996707 38.370996707 0 0 1 -23.744788271 -30.141639277M -39.09089396 18.301909025 A 43.163154015 43.163154015 0 0 1 -17.172825828 -39.599897949M -41.571792691 23.906023017 A 47.955311323 47.955311323 0 1 1 -2.175588915 47.905935926" fill="none" id="arcs" stroke="#3d565e" stroke-linecap="round" stroke-width="1.457298986" /><g id="outlines"><circle cx="0.0" cy="0.0" fill="none" id="outline-1" r="4.825895554" stroke="#3d565e" stroke-width="1.457298986" /><circle cx="0.0" cy="0.0" fill="none" id="outline-2" r="52.74746863" stroke="#3d565e" stroke-width="1.457298986" /></g></g></svg>
