<svg width="256" height="256" viewBox="-175.68612332683313 -175.68612332683313 351.37224665366625 351.37224665366625" xmlns="http://www.w3.org/2000/svg"><g id="comitl-disc"><path id="arcs" d="M -2.733104856 4.95839035 A 5.661757413879828 5.661757413879828 0 0 1 -2.942303024 4.837184091 M 2.51001727 15.460768296 A 15.663190702877083 15.663190702877083 0 1 1 1.515299587 -15.589721298 M -25.532225148 -2.603536751 A 25.664623991874336 25.664623991874336 0 0 1 24.397919441 -7.963319132 M 10.093792857 34.207937496 A 35.66605728087159 35.66605728087159 0 0 1 -30.512980549 -18.466880082 M -28.271983026 35.863835137 A 45.667490569868846 45.667490569868846 0 1 1 44.344510406 -10.912565777 M -53.444636429 15.578829241 A 55.6689238588661 55.6689238588661 0 0 1 -17.69962807 -52.780225935 M 49.934750771 -42.651101667 A 65.67035714786336 65.67035714786336 0 1 1 41.998305437 -50.485028952 M 31.506337448 68.800948892 A 75.67179043686062 75.67179043686062 0 0 1 -73.514548137 17.939651059 M 60.586624944 -60.573609282 A 85.67322372585787 85.67322372585787 0 0 1 -50.70232427 69.059217902 M -60.928035892 -73.765943614 A 95.67465701485511 95.67465701485511 0 0 1 -1.354068041 -95.665074581 M -89.415632897 -56.323002899 A 105.67609030385236 105.67609030385236 0 0 1 -42.342928036 -96.822066221 M -74.724126139 -88.303988796 A 115.67752359284961 115.67752359284961 0 0 1 77.715833113 85.682779764 M -103.688523031 -71.020351974 A 125.67895688184686 125.67895688184686 0 0 1 8.07441294 -125.419312941 M 36.630749212 130.642093098 A 135.6803901708441 135.6803901708441 0 0 1 -116.350850462 69.797191016 M -145.656404052 -2.721331496 A 145.68182345984135 145.68182345984135 0 1 1 119.31573833 83.587967276" stroke="#f675a4" stroke-width="4.655034217194141" stroke-linecap="round" fill="none"/><circle id="outline" cx="0.0" cy="0.0" r="155.6832567488386" stroke="#f675a4" stroke-width="4.655034217194141" fill="none"/></g></svg>