<svg width="256" height="256" viewBox="-200.70535528196288 -200.70535528196288 401.41071056392576 401.41071056392576" xmlns="http://www.w3.org/2000/svg"><g id="comitl-disc"><path id="arcs" d="M 0.031888944 0.086899617 A 0.0925659129916665 0.0925659129916665 0 0 1 -0.090938089 0.017283293 M 3.529884278 -8.508143167 A 9.211329066126721 9.211329066126721 0 0 1 0.097975167 9.210808001 M 17.047541332 6.73599401 A 18.330092219261775 18.330092219261775 0 1 1 17.642879529 4.972030037 M -18.250486661 -20.502668068 A 27.448855372396828 27.448855372396828 0 1 1 -26.444869268 7.355851457 M 14.91964342 -33.38555024 A 36.567618525531884 36.567618525531884 0 1 1 -36.43152183 3.151974262 M 45.309818706 -5.853699662 A 45.68638167866694 45.68638167866694 0 1 1 22.001545319 -40.039698731 M -19.425932551 -51.246824727 A 54.805144831802 54.805144831802 0 0 1 -11.429869841 -53.600018428 M 36.483064776 -52.490494345 A 63.92390798493705 63.92390798493705 0 0 1 52.710946691 -36.163823236 M -73.00529732 2.336315513 A 73.04267113807211 73.04267113807211 0 1 1 -23.128109629 69.284358639 M 67.211722796 47.255535164 A 82.16143429120716 82.16143429120716 0 0 1 -64.131084651 51.358594863 M 4.634413586 91.162473947 A 91.2801974443422 91.2801974443422 0 0 1 -6.926067813 -91.017053513 M 88.903713098 -46.648484289 A 100.39896059747726 100.39896059747726 0 1 1 -34.786932874 -94.179724943 M -45.904493006 99.432938896 A 109.5177237506123 109.5177237506123 0 0 1 -54.251400435 -95.1363094 M 47.305232495 -108.797201266 A 118.63648690374735 118.63648690374735 0 1 1 37.165998485 -112.664566664 M 5.722960584 127.627001999 A 127.7552500568824 127.7552500568824 0 0 1 -38.579324754 121.790966901 M -122.647864977 -60.761803042 A 136.87401321001747 136.87401321001747 0 0 1 103.948816126 -89.045713643 M -81.980721557 -120.801705465 A 145.99277636315253 145.99277636315253 0 1 1 -93.941511086 -111.753672177 M -89.675005628 -126.562170717 A 155.1115395162876 155.1115395162876 0 1 1 -13.243240347 154.545159343 M -86.261753434 -139.751573191 A 164.23030266942266 164.23030266942266 0 0 1 -23.014459999 -162.609738164 M -73.382909467 157.050460743 A 173.34906582255772 173.34906582255772 0 1 1 -24.106484638 171.664719788" stroke="#63e15e" stroke-width="3.4388903133018327" stroke-linecap="round" fill="none"/><circle id="outline" cx="0.0" cy="0.0" r="182.46782897569278" stroke="#63e15e" stroke-width="3.4388903133018327" fill="none"/></g></svg>