<svg width="256" height="256" viewBox="-63.34804387097575 -63.34804387097575 126.6960877419515 126.6960877419515" xmlns="http://www.w3.org/2000/svg"><g id="comitl-disc"><path id="arcs" d="M 1.599848158 -3.108452391 A 3.4959963379896815 3.4959963379896815 0 1 1 -1.458872656 -3.177055393 M 3.824868405 6.143364082 A 7.236749308801311 7.236749308801311 0 1 1 4.622490731 5.56804454 M 9.662387987 5.209972619 A 10.977502279612942 10.977502279612942 0 1 1 10.937732803 0.933572404 M -5.053444817 -13.82352101 A 14.718255250424573 14.718255250424573 0 1 1 -14.556351415 2.177078567 M -13.335438583 -12.763270048 A 18.459008221236203 18.459008221236203 0 0 1 17.042430458 7.09158294 M -3.648696297 -21.897863191 A 22.199761192047834 22.199761192047834 0 0 1 12.477704123 18.361271656 M 24.282953565 -9.124058372 A 25.940514162859465 25.940514162859465 0 1 1 -6.452084273 -25.125303651 M 29.350091653 -4.421508635 A 29.681267133671096 29.681267133671096 0 0 1 24.159097491 17.242842778 M -1.313709637 33.396191323 A 33.422020104482726 33.422020104482726 0 1 1 10.564426838 31.708426537 M -24.143429551 -28.251840863 A 37.16277307529435 37.16277307529435 0 0 1 34.895687219 12.781342503 M -37.896841439 15.392460881 A 40.90352604610598 40.90352604610598 0 0 1 0.117060457 -40.90335854 M 14.699601154 -42.154873679 A 44.64427901691761 44.64427901691761 0 1 1 -30.630370172 32.479102083 M -31.270304753 36.922613141 A 48.385031987729235 48.385031987729235 0 1 1 47.808916217 -7.444383829 M 13.544849993 50.335221229 A 52.12578495854086 52.12578495854086 0 0 1 -49.463390745 -16.445985333" stroke="#c853fc" stroke-width="0.5744041459281941" stroke-linecap="round" fill="none"/><circle id="outline" cx="0.0" cy="0.0" r="55.86653792935249" stroke="#c853fc" stroke-width="0.5744041459281941" fill="none"/></g></svg>