<svg width="256" height="256" viewBox="-74.69015015974483 -74.69015015974483 149.38030031948966 149.38030031948966" xmlns="http://www.w3.org/2000/svg"><g id="comitl-disc"><path id="arcs" d="M 0.0554929 -0.075230557 A 0.09348314654443657 0.09348314654443657 0 1 1 -0.093467535 0.001708364 M 5.721582568 -2.660447027 A 6.309872064311136 6.309872064311136 0 0 1 -4.237162983 4.675567914 M 1.527660787 12.432757808 A 12.526260982077837 12.526260982077837 0 1 1 8.851084909 8.863718753 M -17.349948601 7.089866629 A 18.742649899844537 18.742649899844537 0 0 1 -12.539108559 -13.93045878 M 22.010655189 -11.767951259 A 24.959038817611237 24.959038817611237 0 1 1 -12.030442384 -21.868289251 M -1.64794158 -31.131841947 A 31.175427735377937 31.175427735377937 0 1 1 -24.610932607 -19.136595588 M 21.115767256 -30.858909991 A 37.39181665314464 37.39181665314464 0 0 1 19.43992624 31.941152459 M -31.83039783 29.807740054 A 43.60820557091134 43.60820557091134 0 1 1 37.991292519 -21.408813275 M -48.634024604 10.826904766 A 49.82459448867804 49.82459448867804 0 1 1 49.011655472 -8.963695884 M 15.235701626 -53.930188365 A 56.04098340644474 56.04098340644474 0 1 1 -4.761867011 -55.83830624" stroke="#3cce6e" stroke-width="2.2424990269093827" stroke-linecap="round" fill="none"/><circle id="outline" cx="0.0" cy="0.0" r="62.25737232421144" stroke="#3cce6e" stroke-width="2.2424990269093827" fill="none"/></g></svg>