<svg width="256" height="256" viewBox="-40.71851291667248 -40.71851291667248 81.43702583334496 81.43702583334496" xmlns="http://www.w3.org/2000/svg"><g id="comitl-disc"><path id="arcs" d="M 3.125133158 0.056320839 A 3.1256406211767676 3.1256406211767676 0 0 1 1.301914058 2.841592701 M 6.22615875 2.011983925 A 6.543174466221833 6.543174466221833 0 0 1 4.559757709 4.692732864 M -3.377234253 9.370698953 A 9.960708311266899 9.960708311266899 0 1 1 3.478167756 9.333705541 M 13.32855642 1.151931831 A 13.378242156311964 13.378242156311964 0 1 1 13.362963736 0.639189632 M 12.119278085 11.628464653 A 16.79577600135703 16.79577600135703 0 1 1 13.983855135 -9.303219177 M 19.747717215 4.313416251 A 20.213309846402097 20.213309846402097 0 1 1 18.105781356 -8.986577571 M -8.265745906 22.138071691 A 23.63084369144716 23.63084369144716 0 1 1 18.428077242 14.792658407 M 10.75442302 -24.818483291 A 27.048377536492225 27.048377536492225 0 0 1 15.292205489 -22.310606864 M 30.254448878 3.583305651 A 30.46591138153729 30.46591138153729 0 1 1 -24.257817665 -18.4317671" stroke="#5d63f9" stroke-width="0.7911434351933415" stroke-linecap="round" fill="none"/><circle id="outline" cx="0.0" cy="0.0" r="33.88344522658235" stroke="#5d63f9" stroke-width="0.7911434351933415" fill="none"/></g></svg>