<svg width="256" height="256" viewBox="-51.05729316658462 -51.05729316658462 102.11458633316924 102.11458633316924" xmlns="http://www.w3.org/2000/svg"><g id="comitl-disc"><path id="arcs" d="M -3.620322249 0.399028 A 3.642246083457974 3.642246083457974 0 1 1 3.412621124 1.272781835 M -8.502233177 2.666561415 A 8.910584648249824 8.910584648249824 0 0 1 1.133667067 -8.838173893 M -8.413873593 -11.412650641 A 14.178923213041674 14.178923213041674 0 0 1 -5.046138509 -13.250598086 M -7.504120367 17.941130627 A 19.447261777833525 19.447261777833525 0 0 1 -2.268981914 -19.314443086 M -24.158093354 5.219906684 A 24.715600342625375 24.715600342625375 0 1 1 21.771659871 11.698535239 M -26.869461231 13.306714304 A 29.983938907417226 29.983938907417226 0 0 1 -5.9444052 -29.388784242 M -35.037610476 -3.884445791 A 35.25227747220907 35.25227747220907 0 1 1 23.683817994 26.111297023" stroke="#df6763" stroke-width="2.9326634933348052" stroke-linecap="round" fill="none"/><circle id="outline" cx="0.0" cy="0.0" r="40.52061603700092" stroke="#df6763" stroke-width="2.9326634933348052" fill="none"/></g></svg>