<svg height="180" viewBox="-78.62 -78.62 157.25 157.25" width="180" xmlns="http://www.w3.org/2000/svg"><g id="comitl-disc"><path d="M 12.677222773 -0.543733853 A 12.688877954 12.688877954 0 1 1 -12.668198738 -0.724130156M -11.31747742 18.207206175 A 21.437995519 21.437995519 0 0 1 -4.535528402 -20.952723784M -30.023147677 3.142037532 A 30.187113083 30.187113083 0 0 1 -10.730492682 -28.215568807M -38.92818343 0.791575547 A 38.936230647 38.936230647 0 0 1 22.929428807 -31.46857721M 33.10127736 34.324887053 A 47.685348212 47.685348212 0 1 1 46.36709478 11.134853196M 40.856064683 38.931104608 A 56.434465776 56.434465776 0 1 1 54.043954618 16.251150625" fill="none" id="arcs" stroke="#3d565e" stroke-linecap="round" stroke-width="3.93976039" /><g id="outlines"><circle cx="0.0" cy="0.0" fill="none" id="outline-1" r="3.93976039" stroke="#3d565e" stroke-width="3.93976039" /><circle cx="0.0" cy="0.0" fill="none" id="outline-2" r="65.18358334" stroke="#3d565e" stroke-width="3.93976039" /></g></g></svg>
