<svg height="180" viewBox="-56.43 -56.43 112.86 112.86" width="180" xmlns="http://www.w3.org/2000/svg"><g id="comitl-disc"><path d="M 7.596855458 5.347631612 A 9.290283994 9.290283994 0 0 1 -6.549744672 6.588643368M 4.600972897 11.832059264 A 12.695139937 12.695139937 0 1 1 7.881498154 -9.952314549M -7.628693175 14.177902093 A 16.09999588 16.09999588 0 0 1 3.723236371 -15.663568503M -18.254900105 -6.870070361 A 19.504851822 19.504851822 0 0 1 19.154483726 3.680352945M 17.468165951 -14.822883935 A 22.909707765 22.909707765 0 0 1 22.38870056 4.858065162M 24.809471447 8.77190912 A 26.314563707 26.314563707 0 0 1 -22.547110107 13.56775917M -18.110678905 23.563684218 A 29.71941965 29.71941965 0 1 1 27.310803758 -11.720234743M 9.048230271 -31.864512588 A 33.124275592 33.124275592 0 1 1 -32.940520145 -3.484216707M 17.847121345 -31.872522812 A 36.529131535 36.529131535 0 0 1 34.436317779 -12.186774327M -38.862334644 -9.189249252 A 39.933987477 39.933987477 0 0 1 5.976668849 -39.484209316M -42.729717417 7.240621413 A 43.33884342 43.33884342 0 1 1 36.342385313 23.611149459" fill="none" id="arcs" stroke="#3d565e" stroke-linecap="round" stroke-width="2.906111907" /><g id="outlines"><circle cx="0.0" cy="0.0" fill="none" id="outline-1" r="5.885428052" stroke="#3d565e" stroke-width="2.906111907" /><circle cx="0.0" cy="0.0" fill="none" id="outline-2" r="46.743699362" stroke="#3d565e" stroke-width="2.906111907" /></g></g></svg>
