<svg width="256" height="256" viewBox="-127.09399879662014 -127.09399879662014 254.18799759324028 254.18799759324028" xmlns="http://www.w3.org/2000/svg"><g id="comitl-disc"><path id="arcs" d="M 0.887801692 -3.676509169 A 3.7821834317323 3.7821834317323 0 1 1 -0.33027455 -3.767735425 M 2.431121394 9.066995685 A 9.387265948318113 9.387265948318113 0 1 1 9.32096488 -1.113721547 M -14.990307911 0.247348419 A 14.992348464903927 14.992348464903927 0 0 1 14.981487474 -0.57056601 M 20.596527234 0.192948007 A 20.59743098148974 20.59743098148974 0 1 1 5.694732556 -19.794549355 M -24.546871893 9.166394813 A 26.202513498075554 26.202513498075554 0 0 1 -25.973589622 -3.456060728 M 18.384607082 25.95629763 A 31.807596014661367 31.807596014661367 0 0 1 -20.657359826 24.186703976 M 33.280364111 -17.091690364 A 37.41267853124718 37.41267853124718 0 1 1 -37.219652748 -3.795518959 M -38.509056998 19.172383647 A 43.01776104783299 43.01776104783299 0 0 1 10.00533946 -41.838032313 M -46.621817639 13.805326376 A 48.6228435644188 48.6228435644188 0 1 1 -45.802066846 16.32028152 M 21.91479314 -49.602518169 A 54.22792608100461 54.22792608100461 0 1 1 -20.384833973 -50.250636921 M 8.279672139 -59.257370403 A 59.83300859759042 59.83300859759042 0 1 1 -55.417425609 22.55876452 M 4.251673521 65.299824203 A 65.43809111417623 65.43809111417623 0 0 1 -65.378304008 -2.796628998 M -64.373208001 -30.053662193 A 71.04317363076204 71.04317363076204 0 0 1 -38.196233053 -59.90142152 M 66.17909019 38.668891788 A 76.64825614734785 76.64825614734785 0 0 1 9.066096099 76.110190329 M 15.56935779 80.766371835 A 82.25333866393366 82.25333866393366 0 0 1 -70.864327376 41.75953576 M -87.698717107 -5.295015596 A 87.85842118051947 87.85842118051947 0 0 1 77.441931857 -41.495172762 M 87.279045248 33.433438112 A 93.46350369710528 93.46350369710528 0 0 1 -72.917474375 58.467670161 M 81.363787215 56.520075234 A 99.06858621369109 99.06858621369109 0 0 1 -89.750999831 -41.944520544 M -95.509967656 42.830164648 A 104.6736687302769 104.6736687302769 0 0 1 9.446013832 -104.24658147 M -29.667067927 106.213313935 A 110.27875124686271 110.27875124686271 0 1 1 109.523259526 12.886372624" stroke="#ddd39d" stroke-width="2.223507320051344" stroke-linecap="round" fill="none"/><circle id="outline" cx="0.0" cy="0.0" r="115.88383376344852" stroke="#ddd39d" stroke-width="2.223507320051344" fill="none"/></g></svg>