<svg height="220" viewBox="0 0 120 120" width="220" xmlns="http://www.w3.org/2000/svg"><title>An Altepetl Artwork</title><rect fill="white" height="120" id="background" width="120" x="0" y="0" /><path d="M1.491674576970894 2.566956832572707v2.28190554817831h8.0v5.718094451821689h-8.0v2.0h10.0v-10.0ZM3.5141621251702713 18.252314424608734h2.3300452060049848v8.0h5.669954793995016v-8.0h2.0v10.0h-10.0ZM14.333810230289766 41.715853946463035h-2.194159001133178v-8.0h-5.805840998866822v8.0h-2.0v-10.0h10.0ZM4.094497151032153 48.01526837718772h2.0819401131584017v8.0h5.918059886841598v-8.0h2.0v10.0h-10.0ZM11.57297471506082 72.28551629663349h-2.4270882261264575v-8.0h-5.5729117738735425v8.0h-2.0v-10.0h10.0ZM1.0289553390967976 76.97814127463617h2.492045320550317v8.0h5.507954679449684v-8.0h2.0v10.0h-10.0ZM13.893735858990976 101.0127139538345v-3.6952259745529004h-8.0v-4.3047740254471005h8.0v-2.0h-10.0v10.0ZM13.428580980784115 117.75535809412584v-3.500464481544439h-8.0v-4.499535518455561h8.0v-2.0h-10.0v10.0ZM16.577258075349075 4.370374310154293v3.036837900179796h8.0v4.963162099820204h-8.0v2.0h10.0v-10.0ZM18.706719701851963 16.11530107227019v2.8376013196908656h8.0v5.162398680309134h-8.0v2.0h10.0v-10.0ZM26.99723088843186 40.999658069808916h-2.6637838503810087v-8.0h-5.336216149618991v8.0h-2.0v-10.0h10.0ZM26.18441052926339 56.71541935463495h-2.769495507171398v-8.0h-5.230504492828602v8.0h-2.0v-10.0h10.0ZM17.776770936263997 61.65148729690709v2.626140905764465h8.0v5.373859094235534h-8.0v2.0h10.0v-10.0ZM16.41825939206135 78.1305254417072h2.0480440597074963v8.0h5.951955940292503v-8.0h2.0v10.0h-10.0ZM17.869836146135846 92.14505924244992v3.46844342920795h8.0v4.53155657079205h-8.0v2.0h10.0v-10.0ZM18.18022038584365 106.961556175364v2.40952278373366h8.0v5.59047721626634h-8.0v2.0h10.0v-10.0ZM44.198996417991644 12.67900029507733h-2.2548337437417927v-8.0h-5.745166256258207v8.0h-2.0v-10.0h10.0ZM33.92401164413654 15.513706744597666v2.0061047185056338h8.0v5.993895281494366h-8.0v2.0h10.0v-10.0ZM31.949578084813467 33.238858838096434v3.6211313713869075h8.0v4.378868628613092h-8.0v2.0h10.0v-10.0ZM32.70376885293204 45.81649084274252v2.2566775904705647h8.0v5.743322409529435h-8.0v2.0h10.0v-10.0ZM31.478627506603473 62.228594077066475v3.6779026302388207h8.0v4.322097369761178h-8.0v2.0h10.0v-10.0ZM33.87752229489533 78.0418764114121v3.4453418774368187h8.0v4.554658122563181h-8.0v2.0h10.0v-10.0ZM42.608740435334724 100.63440875346313h-3.0649099500812884v-8.0h-4.9350900499187125v8.0h-2.0v-10.0h10.0ZM42.9997525870709 115.61097356852976h-3.072258780286962v-8.0h-4.927741219713038v8.0h-2.0v-10.0h10.0ZM45.53701361888909 3.5409580581127695h2.5433496148858326v8.0h5.456650385114167v-8.0h2.0v10.0h-10.0ZM46.32394327896665 18.19142347206371v3.540995917181741h8.0v4.459004082818259h-8.0v2.0h10.0v-10.0ZM57.22605697919767 42.24855474008203v-3.0329436337629208h-8.0v-4.967056366237079h8.0v-2.0h-10.0v10.0ZM57.45011714118809 57.49298534021869h-2.286201542376762v-8.0h-5.713798457623238v8.0h-2.0v-10.0h10.0ZM56.58058840685958 73.42863165949814v-3.63165370357612h-8.0v-4.36834629642388h8.0v-2.0h-10.0v10.0ZM58.17442347569556 87.83858019781414h-3.5558252532873045v-8.0h-4.444174746712695v8.0h-2.0v-10.0h10.0ZM46.91373077738144 94.0433107255635v2.1520262734310123h8.0v5.847973726568987h-8.0v2.0h10.0v-10.0ZM57.60582464428717 118.9292461367081v-2.513045893040799h-8.0v-5.486954106959201h8.0v-2.0h-10.0v10.0ZM71.6902196588702 12.000008620703019h-3.272217650913899v-8.0h-4.727782349086101v8.0h-2.0v-10.0h10.0ZM71.71458954963288 29.399416315177515v-3.470806292350587h-8.0v-4.529193707649412h8.0v-2.0h-10.0v10.0ZM71.84353588186073 44.30333559638573h-2.3672540886471904v-8.0h-5.632745911352809v8.0h-2.0v-10.0h10.0ZM73.91984504016311 57.825901700783675v-3.2345260404312133h-8.0v-4.765473959568787h8.0v-2.0h-10.0v10.0ZM74.19395031696709 73.6750585417963v-3.076489178850541h-8.0v-4.923510821149459h8.0v-2.0h-10.0v10.0ZM62.436946047847286 78.09088297336721v2.9802189463894946h8.0v5.0197810536105045h-8.0v2.0h10.0v-10.0ZM60.74330367405416 94.35487104408178v3.6584455469171235h8.0v4.3415544530828765h-8.0v2.0h10.0v-10.0ZM72.85264883404575 118.50357413239684h-3.0548760529681074v-8.0h-4.945123947031893v8.0h-2.0v-10.0h10.0ZM85.99296318628781 13.151179202904595h-2.034290550291628v-8.0h-5.965709449708372v8.0h-2.0v-10.0h10.0ZM78.8726828359327 16.397381748425683v2.205065633135236h8.0v5.794934366864764h-8.0v2.0h10.0v-10.0ZM89.19741412957396 42.474457789078734v-2.1748338481019h-8.0v-5.825166151898101h8.0v-2.0h-10.0v10.0ZM88.50230000395548 56.75031409974721v-2.8800282508571384h-8.0v-5.119971749142862h8.0v-2.0h-10.0v10.0ZM79.40663625737322 61.52461168744969v3.408199320074863h8.0v4.591800679925138h-8.0v2.0h10.0v-10.0ZM77.9984083987949 77.63768839576394h2.683260659536242v8.0h5.316739340463759v-8.0h2.0v10.0h-10.0ZM77.27496625255345 92.45304136869096v2.7191704748966017h8.0v5.280829525103399h-8.0v2.0h10.0v-10.0ZM77.25991409831958 108.51675134691023h3.677315060122293v8.0h4.322684939877707v-8.0h2.0v10.0h-10.0ZM93.41779629801498 3.803044992952186v3.094549014619365h8.0v4.905450985380635h-8.0v2.0h10.0v-10.0ZM104.33566188949185 26.10718074232141v-2.5581704070305014h-8.0v-5.4418295929694995h8.0v-2.0h-10.0v10.0ZM92.36048541004797 32.082731538181484v3.346653986718761h8.0v4.653346013281239h-8.0v2.0h10.0v-10.0ZM104.0812521712945 56.830839442897435h-3.2495813359131476v-8.0h-4.750418664086852v8.0h-2.0v-10.0h10.0ZM91.8218666520922 62.063294760734195h2.4189326682682974v8.0h5.5810673317317026v-8.0h2.0v10.0h-10.0ZM104.04383550391366 86.02445507970721v-3.2659670143796338h-8.0v-4.734032985620366h8.0v-2.0h-10.0v10.0ZM93.34158033600403 90.63730055159009h2.7821412409853368v8.0h5.217858759014663v-8.0h2.0v10.0h-10.0ZM91.02680377731811 106.43715141084387h2.0508950903243246v8.0h5.949104909675675v-8.0h2.0v10.0h-10.0ZM106.33778434436513 3.5378085616868447v2.276089063723659h8.0v5.723910936276341h-8.0v2.0h10.0v-10.0ZM107.92555524863924 17.24104234026812h3.4497509264947412v8.0h4.550249073505259v-8.0h2.0v10.0h-10.0ZM109.11914242132346 30.739502090624356v3.177107321117782h8.0v4.8228926788822175h-8.0v2.0h10.0v-10.0ZM118.69551982497546 58.656647612759095h-2.8190137699620763v-8.0h-5.180986230037924v8.0h-2.0v-10.0h10.0ZM117.77174191183424 73.7731025536201h-3.2413078089210035v-8.0h-4.758692191078996v8.0h-2.0v-10.0h10.0ZM118.00585690026776 87.69221297073425v-2.401393884199876h-8.0v-5.598606115800124h8.0v-2.0h-10.0v10.0ZM115.95219121046067 103.8307879784331v-3.497323282333265h-8.0v-4.502676717666735h8.0v-2.0h-10.0v10.0ZM118.48854428879021 117.75741417014976h-2.891358934978221v-8.0h-5.1086410650217795v8.0h-2.0v-10.0h10.0Z" fill="black" id="grid-of-us" stroke-width="0" /></svg>
