<svg height="220" viewBox="0 0 80 80" width="220" xmlns="http://www.w3.org/2000/svg"><title>An Altepetl Artwork</title><rect fill="black" height="80" id="background" width="80" x="0" y="0" /><path d="M13.022455934461775 10.529132256524804v3.5347228841098675h8.0v4.4652771158901325h-8.0v2.0h10.0v-10.0ZM23.444558135464852 36.8495436925064h-3.031856114132803v-8.0h-4.968143885867197v8.0h-2.0v-10.0h10.0ZM10.794102037653849 42.789101014596675v3.01499316294747h8.0v4.985006837052529h-8.0v2.0h10.0v-10.0ZM22.74878036614858 66.45616685506452h-3.4609374735305076v-8.0h-4.5390625264694915v8.0h-2.0v-10.0h10.0ZM26.261856445208828 14.152003074373845h3.0378325578964924v8.0h4.962167442103508v-8.0h2.0v10.0h-10.0ZM36.24930217298387 39.47403982146921v-3.4616192828444077h-8.0v-4.538380717155592h8.0v-2.0h-10.0v10.0ZM35.72603899460414 53.25272924168973h-3.232696247822511v-8.0h-4.767303752177488v8.0h-2.0v-10.0h10.0ZM39.407437498906745 69.29080568478831h-3.4830495807214623v-8.0h-4.516950419278539v8.0h-2.0v-10.0h10.0ZM52.60674291465337 22.558825806369782h-2.849051938742966v-8.0h-5.150948061257035v8.0h-2.0v-10.0h10.0ZM50.523816150979606 36.309258142690496h-3.6806766381290723v-8.0h-4.319323361870927v8.0h-2.0v-10.0h10.0ZM42.676224037570684 41.23194097639169v2.7864221452662896h8.0v5.21357785473371h-8.0v2.0h10.0v-10.0ZM41.360439459887374 55.58838289926406v3.3217538755484215h8.0v4.6782461244515785h-8.0v2.0h10.0v-10.0ZM58.88086860555972 14.34024094284517v2.052611651188188h8.0v5.9473883488118116h-8.0v2.0h10.0v-10.0ZM68.02464729753115 38.51728968658744h-2.391272424282318v-8.0h-5.6087275757176815v8.0h-2.0v-10.0h10.0ZM68.68688428917002 52.79863544012451v-3.2560813681124756h-8.0v-4.743918631887524h8.0v-2.0h-10.0v10.0ZM57.23034950647687 57.25831457348028h3.297163003043191v8.0h4.702836996956808v-8.0h2.0v10.0h-10.0Z" fill="white" id="grid-of-us" stroke-width="0" /></svg>
