<svg height="220" viewBox="0 0 260 260" width="220" xmlns="http://www.w3.org/2000/svg"><title>An Altepetl Artwork</title><rect fill="black" height="260" id="background" width="260" x="0" y="0" /><path d="M12.5 12.5h2.0v8.0h6.0v-8.0h2.0v10.0h-10.0ZM12.5 27.5v2.0h8.0v6.0h-8.0v2.0h10.0v-10.0ZM12.5 42.5v2.0h8.0v6.0h-8.0v2.0h10.0v-10.0ZM22.5 67.5h-2.0v-8.0h-6.0v8.0h-2.0v-10.0h10.0ZM12.5 72.5h2.0v8.0h6.0v-8.0h2.0v10.0h-10.0ZM12.5 87.5v2.0h8.0v6.0h-8.0v2.0h10.0v-10.0ZM22.5 112.5h-2.0v-8.0h-6.0v8.0h-2.0v-10.0h10.0ZM12.5 117.5h2.0v8.0h6.0v-8.0h2.0v10.0h-10.0ZM22.5 142.5v-2.0h-8.0v-6.0h8.0v-2.0h-10.0v10.0ZM12.5 147.5h2.0v8.0h6.0v-8.0h2.0v10.0h-10.0ZM12.5 162.5v2.0h8.0v6.0h-8.0v2.0h10.0v-10.0ZM12.5 177.5v2.0h8.0v6.0h-8.0v2.0h10.0v-10.0ZM22.5 202.5h-2.0v-8.0h-6.0v8.0h-2.0v-10.0h10.0ZM12.5 207.5v2.0h8.0v6.0h-8.0v2.0h10.0v-10.0ZM12.5 222.5h2.0v8.0h6.0v-8.0h2.0v10.0h-10.0ZM22.5 247.5v-2.0h-8.0v-6.0h8.0v-2.0h-10.0v10.0ZM37.5 22.5v-2.0h-8.0v-6.0h8.0v-2.0h-10.0v10.0ZM37.5 37.5h-2.0v-8.0h-6.0v8.0h-2.0v-10.0h10.0ZM27.5 42.5v2.0h8.0v6.0h-8.0v2.0h10.0v-10.0ZM37.5 67.5h-2.0v-8.0h-6.0v8.0h-2.0v-10.0h10.0ZM37.5 82.5v-2.0h-8.0v-6.0h8.0v-2.0h-10.0v10.0ZM27.5 87.5v2.0h8.0v6.0h-8.0v2.0h10.0v-10.0ZM27.5 102.5v2.0h8.0v6.0h-8.0v2.0h10.0v-10.0ZM37.5 127.5h-2.0v-8.0h-6.0v8.0h-2.0v-10.0h10.0ZM27.5 132.5v2.0h8.0v6.0h-8.0v2.0h10.0v-10.0ZM27.5 147.5h2.0v8.0h6.0v-8.0h2.0v10.0h-10.0ZM37.5 172.5v-2.0h-8.0v-6.0h8.0v-2.0h-10.0v10.0ZM37.5 187.5h-2.0v-8.0h-6.0v8.0h-2.0v-10.0h10.0ZM37.5 202.5h-2.0v-8.0h-6.0v8.0h-2.0v-10.0h10.0ZM27.5 207.5v2.0h8.0v6.0h-8.0v2.0h10.0v-10.0ZM37.5 232.5v-2.0h-8.0v-6.0h8.0v-2.0h-10.0v10.0ZM27.5 237.5h2.0v8.0h6.0v-8.0h2.0v10.0h-10.0ZM52.5 22.5h-2.0v-8.0h-6.0v8.0h-2.0v-10.0h10.0ZM52.5 37.5h-2.0v-8.0h-6.0v8.0h-2.0v-10.0h10.0ZM42.5 42.5h2.0v8.0h6.0v-8.0h2.0v10.0h-10.0ZM42.5 57.5h2.0v8.0h6.0v-8.0h2.0v10.0h-10.0ZM52.5 82.5v-2.0h-8.0v-6.0h8.0v-2.0h-10.0v10.0ZM42.5 87.5h2.0v8.0h6.0v-8.0h2.0v10.0h-10.0ZM42.5 102.5h2.0v8.0h6.0v-8.0h2.0v10.0h-10.0ZM52.5 127.5h-2.0v-8.0h-6.0v8.0h-2.0v-10.0h10.0ZM42.5 132.5v2.0h8.0v6.0h-8.0v2.0h10.0v-10.0ZM42.5 147.5v2.0h8.0v6.0h-8.0v2.0h10.0v-10.0ZM42.5 162.5h2.0v8.0h6.0v-8.0h2.0v10.0h-10.0ZM42.5 177.5h2.0v8.0h6.0v-8.0h2.0v10.0h-10.0ZM42.5 192.5v2.0h8.0v6.0h-8.0v2.0h10.0v-10.0ZM52.5 217.5v-2.0h-8.0v-6.0h8.0v-2.0h-10.0v10.0ZM42.5 222.5v2.0h8.0v6.0h-8.0v2.0h10.0v-10.0ZM42.5 237.5h2.0v8.0h6.0v-8.0h2.0v10.0h-10.0ZM67.5 22.5v-2.0h-8.0v-6.0h8.0v-2.0h-10.0v10.0ZM67.5 37.5v-2.0h-8.0v-6.0h8.0v-2.0h-10.0v10.0ZM57.5 42.5h2.0v8.0h6.0v-8.0h2.0v10.0h-10.0ZM57.5 57.5h2.0v8.0h6.0v-8.0h2.0v10.0h-10.0ZM67.5 82.5v-2.0h-8.0v-6.0h8.0v-2.0h-10.0v10.0ZM57.5 87.5h2.0v8.0h6.0v-8.0h2.0v10.0h-10.0ZM67.5 112.5v-2.0h-8.0v-6.0h8.0v-2.0h-10.0v10.0ZM67.5 127.5v-2.0h-8.0v-6.0h8.0v-2.0h-10.0v10.0ZM57.5 132.5h2.0v8.0h6.0v-8.0h2.0v10.0h-10.0ZM67.5 157.5h-2.0v-8.0h-6.0v8.0h-2.0v-10.0h10.0ZM57.5 162.5v2.0h8.0v6.0h-8.0v2.0h10.0v-10.0ZM67.5 187.5v-2.0h-8.0v-6.0h8.0v-2.0h-10.0v10.0ZM67.5 202.5h-2.0v-8.0h-6.0v8.0h-2.0v-10.0h10.0ZM57.5 207.5v2.0h8.0v6.0h-8.0v2.0h10.0v-10.0ZM57.5 222.5v2.0h8.0v6.0h-8.0v2.0h10.0v-10.0ZM57.5 237.5v2.0h8.0v6.0h-8.0v2.0h10.0v-10.0ZM82.5 22.5v-2.0h-8.0v-6.0h8.0v-2.0h-10.0v10.0ZM72.5 27.5h2.0v8.0h6.0v-8.0h2.0v10.0h-10.0ZM72.5 42.5v2.0h8.0v6.0h-8.0v2.0h10.0v-10.0ZM72.5 57.5h2.0v8.0h6.0v-8.0h2.0v10.0h-10.0ZM82.5 82.5h-2.0v-8.0h-6.0v8.0h-2.0v-10.0h10.0ZM82.5 97.5v-2.0h-8.0v-6.0h8.0v-2.0h-10.0v10.0ZM82.5 112.5h-2.0v-8.0h-6.0v8.0h-2.0v-10.0h10.0ZM82.5 127.5h-2.0v-8.0h-6.0v8.0h-2.0v-10.0h10.0ZM72.5 132.5v2.0h8.0v6.0h-8.0v2.0h10.0v-10.0ZM82.5 157.5v-2.0h-8.0v-6.0h8.0v-2.0h-10.0v10.0ZM82.5 172.5v-2.0h-8.0v-6.0h8.0v-2.0h-10.0v10.0ZM82.5 187.5h-2.0v-8.0h-6.0v8.0h-2.0v-10.0h10.0ZM82.5 202.5h-2.0v-8.0h-6.0v8.0h-2.0v-10.0h10.0ZM72.5 207.5h2.0v8.0h6.0v-8.0h2.0v10.0h-10.0ZM72.5 222.5h2.0v8.0h6.0v-8.0h2.0v10.0h-10.0ZM82.5 247.5h-2.0v-8.0h-6.0v8.0h-2.0v-10.0h10.0ZM87.5 12.5v2.0h8.0v6.0h-8.0v2.0h10.0v-10.0ZM87.5 27.5v2.0h8.0v6.0h-8.0v2.0h10.0v-10.0ZM97.5 52.5h-2.0v-8.0h-6.0v8.0h-2.0v-10.0h10.0ZM97.5 67.5v-2.0h-8.0v-6.0h8.0v-2.0h-10.0v10.0ZM97.5 82.5h-2.0v-8.0h-6.0v8.0h-2.0v-10.0h10.0ZM87.5 87.5h2.0v8.0h6.0v-8.0h2.0v10.0h-10.0ZM97.5 112.5h-2.0v-8.0h-6.0v8.0h-2.0v-10.0h10.0ZM97.5 127.5h-2.0v-8.0h-6.0v8.0h-2.0v-10.0h10.0ZM87.5 132.5h2.0v8.0h6.0v-8.0h2.0v10.0h-10.0ZM97.5 157.5v-2.0h-8.0v-6.0h8.0v-2.0h-10.0v10.0ZM97.5 172.5h-2.0v-8.0h-6.0v8.0h-2.0v-10.0h10.0ZM87.5 177.5h2.0v8.0h6.0v-8.0h2.0v10.0h-10.0ZM87.5 192.5h2.0v8.0h6.0v-8.0h2.0v10.0h-10.0ZM97.5 217.5h-2.0v-8.0h-6.0v8.0h-2.0v-10.0h10.0ZM87.5 222.5v2.0h8.0v6.0h-8.0v2.0h10.0v-10.0ZM97.5 247.5h-2.0v-8.0h-6.0v8.0h-2.0v-10.0h10.0ZM112.5 22.5h-2.0v-8.0h-6.0v8.0h-2.0v-10.0h10.0ZM112.5 37.5h-2.0v-8.0h-6.0v8.0h-2.0v-10.0h10.0ZM112.5 52.5v-2.0h-8.0v-6.0h8.0v-2.0h-10.0v10.0ZM112.5 67.5v-2.0h-8.0v-6.0h8.0v-2.0h-10.0v10.0ZM102.5 72.5v2.0h8.0v6.0h-8.0v2.0h10.0v-10.0ZM102.5 87.5v2.0h8.0v6.0h-8.0v2.0h10.0v-10.0ZM102.5 102.5v2.0h8.0v6.0h-8.0v2.0h10.0v-10.0ZM112.5 127.5h-2.0v-8.0h-6.0v8.0h-2.0v-10.0h10.0ZM102.5 132.5v2.0h8.0v6.0h-8.0v2.0h10.0v-10.0ZM112.5 157.5h-2.0v-8.0h-6.0v8.0h-2.0v-10.0h10.0ZM112.5 172.5v-2.0h-8.0v-6.0h8.0v-2.0h-10.0v10.0ZM112.5 187.5v-2.0h-8.0v-6.0h8.0v-2.0h-10.0v10.0ZM112.5 202.5h-2.0v-8.0h-6.0v8.0h-2.0v-10.0h10.0ZM102.5 207.5h2.0v8.0h6.0v-8.0h2.0v10.0h-10.0ZM102.5 222.5v2.0h8.0v6.0h-8.0v2.0h10.0v-10.0ZM112.5 247.5h-2.0v-8.0h-6.0v8.0h-2.0v-10.0h10.0ZM117.5 12.5v2.0h8.0v6.0h-8.0v2.0h10.0v-10.0ZM127.5 37.5h-2.0v-8.0h-6.0v8.0h-2.0v-10.0h10.0ZM117.5 42.5v2.0h8.0v6.0h-8.0v2.0h10.0v-10.0ZM127.5 67.5h-2.0v-8.0h-6.0v8.0h-2.0v-10.0h10.0ZM127.5 82.5h-2.0v-8.0h-6.0v8.0h-2.0v-10.0h10.0ZM127.5 97.5v-2.0h-8.0v-6.0h8.0v-2.0h-10.0v10.0ZM117.5 102.5v2.0h8.0v6.0h-8.0v2.0h10.0v-10.0ZM117.5 117.5v2.0h8.0v6.0h-8.0v2.0h10.0v-10.0ZM117.5 132.5v2.0h8.0v6.0h-8.0v2.0h10.0v-10.0ZM127.5 157.5v-2.0h-8.0v-6.0h8.0v-2.0h-10.0v10.0ZM127.5 172.5h-2.0v-8.0h-6.0v8.0h-2.0v-10.0h10.0ZM127.5 187.5v-2.0h-8.0v-6.0h8.0v-2.0h-10.0v10.0ZM117.5 192.5v2.0h8.0v6.0h-8.0v2.0h10.0v-10.0ZM127.5 217.5h-2.0v-8.0h-6.0v8.0h-2.0v-10.0h10.0ZM117.5 222.5v2.0h8.0v6.0h-8.0v2.0h10.0v-10.0ZM117.5 237.5v2.0h8.0v6.0h-8.0v2.0h10.0v-10.0ZM132.5 12.5h2.0v8.0h6.0v-8.0h2.0v10.0h-10.0ZM142.5 37.5v-2.0h-8.0v-6.0h8.0v-2.0h-10.0v10.0ZM132.5 42.5h2.0v8.0h6.0v-8.0h2.0v10.0h-10.0ZM142.5 67.5v-2.0h-8.0v-6.0h8.0v-2.0h-10.0v10.0ZM142.5 82.5h-2.0v-8.0h-6.0v8.0h-2.0v-10.0h10.0ZM132.5 87.5v2.0h8.0v6.0h-8.0v2.0h10.0v-10.0ZM142.5 112.5h-2.0v-8.0h-6.0v8.0h-2.0v-10.0h10.0ZM142.5 127.5v-2.0h-8.0v-6.0h8.0v-2.0h-10.0v10.0ZM142.5 142.5h-2.0v-8.0h-6.0v8.0h-2.0v-10.0h10.0ZM142.5 157.5v-2.0h-8.0v-6.0h8.0v-2.0h-10.0v10.0ZM132.5 162.5h2.0v8.0h6.0v-8.0h2.0v10.0h-10.0ZM142.5 187.5h-2.0v-8.0h-6.0v8.0h-2.0v-10.0h10.0ZM142.5 202.5v-2.0h-8.0v-6.0h8.0v-2.0h-10.0v10.0ZM142.5 217.5h-2.0v-8.0h-6.0v8.0h-2.0v-10.0h10.0ZM142.5 232.5h-2.0v-8.0h-6.0v8.0h-2.0v-10.0h10.0ZM142.5 247.5h-2.0v-8.0h-6.0v8.0h-2.0v-10.0h10.0ZM147.5 12.5v2.0h8.0v6.0h-8.0v2.0h10.0v-10.0ZM147.5 27.5h2.0v8.0h6.0v-8.0h2.0v10.0h-10.0ZM147.5 42.5v2.0h8.0v6.0h-8.0v2.0h10.0v-10.0ZM147.5 57.5h2.0v8.0h6.0v-8.0h2.0v10.0h-10.0ZM147.5 72.5h2.0v8.0h6.0v-8.0h2.0v10.0h-10.0ZM147.5 87.5h2.0v8.0h6.0v-8.0h2.0v10.0h-10.0ZM157.5 112.5v-2.0h-8.0v-6.0h8.0v-2.0h-10.0v10.0ZM147.5 117.5h2.0v8.0h6.0v-8.0h2.0v10.0h-10.0ZM157.5 142.5h-2.0v-8.0h-6.0v8.0h-2.0v-10.0h10.0ZM147.5 147.5h2.0v8.0h6.0v-8.0h2.0v10.0h-10.0ZM157.5 172.5v-2.0h-8.0v-6.0h8.0v-2.0h-10.0v10.0ZM147.5 177.5h2.0v8.0h6.0v-8.0h2.0v10.0h-10.0ZM157.5 202.5h-2.0v-8.0h-6.0v8.0h-2.0v-10.0h10.0ZM147.5 207.5h2.0v8.0h6.0v-8.0h2.0v10.0h-10.0ZM147.5 222.5v2.0h8.0v6.0h-8.0v2.0h10.0v-10.0ZM147.5 237.5v2.0h8.0v6.0h-8.0v2.0h10.0v-10.0ZM162.5 12.5v2.0h8.0v6.0h-8.0v2.0h10.0v-10.0ZM172.5 37.5v-2.0h-8.0v-6.0h8.0v-2.0h-10.0v10.0ZM172.5 52.5v-2.0h-8.0v-6.0h8.0v-2.0h-10.0v10.0ZM162.5 57.5v2.0h8.0v6.0h-8.0v2.0h10.0v-10.0ZM162.5 72.5v2.0h8.0v6.0h-8.0v2.0h10.0v-10.0ZM162.5 87.5h2.0v8.0h6.0v-8.0h2.0v10.0h-10.0ZM172.5 112.5h-2.0v-8.0h-6.0v8.0h-2.0v-10.0h10.0ZM162.5 117.5v2.0h8.0v6.0h-8.0v2.0h10.0v-10.0ZM162.5 132.5h2.0v8.0h6.0v-8.0h2.0v10.0h-10.0ZM172.5 157.5v-2.0h-8.0v-6.0h8.0v-2.0h-10.0v10.0ZM172.5 172.5v-2.0h-8.0v-6.0h8.0v-2.0h-10.0v10.0ZM162.5 177.5v2.0h8.0v6.0h-8.0v2.0h10.0v-10.0ZM172.5 202.5h-2.0v-8.0h-6.0v8.0h-2.0v-10.0h10.0ZM172.5 217.5h-2.0v-8.0h-6.0v8.0h-2.0v-10.0h10.0ZM162.5 222.5h2.0v8.0h6.0v-8.0h2.0v10.0h-10.0ZM172.5 247.5h-2.0v-8.0h-6.0v8.0h-2.0v-10.0h10.0ZM187.5 22.5h-2.0v-8.0h-6.0v8.0h-2.0v-10.0h10.0ZM187.5 37.5h-2.0v-8.0h-6.0v8.0h-2.0v-10.0h10.0ZM177.5 42.5v2.0h8.0v6.0h-8.0v2.0h10.0v-10.0ZM177.5 57.5h2.0v8.0h6.0v-8.0h2.0v10.0h-10.0ZM187.5 82.5h-2.0v-8.0h-6.0v8.0h-2.0v-10.0h10.0ZM187.5 97.5v-2.0h-8.0v-6.0h8.0v-2.0h-10.0v10.0ZM187.5 112.5v-2.0h-8.0v-6.0h8.0v-2.0h-10.0v10.0ZM187.5 127.5v-2.0h-8.0v-6.0h8.0v-2.0h-10.0v10.0ZM187.5 142.5h-2.0v-8.0h-6.0v8.0h-2.0v-10.0h10.0ZM187.5 157.5v-2.0h-8.0v-6.0h8.0v-2.0h-10.0v10.0ZM177.5 162.5v2.0h8.0v6.0h-8.0v2.0h10.0v-10.0ZM187.5 187.5v-2.0h-8.0v-6.0h8.0v-2.0h-10.0v10.0ZM177.5 192.5h2.0v8.0h6.0v-8.0h2.0v10.0h-10.0ZM187.5 217.5v-2.0h-8.0v-6.0h8.0v-2.0h-10.0v10.0ZM177.5 222.5v2.0h8.0v6.0h-8.0v2.0h10.0v-10.0ZM177.5 237.5v2.0h8.0v6.0h-8.0v2.0h10.0v-10.0ZM202.5 22.5h-2.0v-8.0h-6.0v8.0h-2.0v-10.0h10.0ZM202.5 37.5h-2.0v-8.0h-6.0v8.0h-2.0v-10.0h10.0ZM192.5 42.5v2.0h8.0v6.0h-8.0v2.0h10.0v-10.0ZM192.5 57.5h2.0v8.0h6.0v-8.0h2.0v10.0h-10.0ZM192.5 72.5v2.0h8.0v6.0h-8.0v2.0h10.0v-10.0ZM202.5 97.5v-2.0h-8.0v-6.0h8.0v-2.0h-10.0v10.0ZM192.5 102.5v2.0h8.0v6.0h-8.0v2.0h10.0v-10.0ZM202.5 127.5h-2.0v-8.0h-6.0v8.0h-2.0v-10.0h10.0ZM202.5 142.5v-2.0h-8.0v-6.0h8.0v-2.0h-10.0v10.0ZM192.5 147.5v2.0h8.0v6.0h-8.0v2.0h10.0v-10.0ZM192.5 162.5h2.0v8.0h6.0v-8.0h2.0v10.0h-10.0ZM192.5 177.5h2.0v8.0h6.0v-8.0h2.0v10.0h-10.0ZM192.5 192.5v2.0h8.0v6.0h-8.0v2.0h10.0v-10.0ZM202.5 217.5h-2.0v-8.0h-6.0v8.0h-2.0v-10.0h10.0ZM202.5 232.5v-2.0h-8.0v-6.0h8.0v-2.0h-10.0v10.0ZM192.5 237.5v2.0h8.0v6.0h-8.0v2.0h10.0v-10.0ZM217.5 22.5v-2.0h-8.0v-6.0h8.0v-2.0h-10.0v10.0ZM217.5 37.5v-2.0h-8.0v-6.0h8.0v-2.0h-10.0v10.0ZM217.5 52.5v-2.0h-8.0v-6.0h8.0v-2.0h-10.0v10.0ZM217.5 67.5v-2.0h-8.0v-6.0h8.0v-2.0h-10.0v10.0ZM207.5 72.5h2.0v8.0h6.0v-8.0h2.0v10.0h-10.0ZM217.5 97.5v-2.0h-8.0v-6.0h8.0v-2.0h-10.0v10.0ZM217.5 112.5h-2.0v-8.0h-6.0v8.0h-2.0v-10.0h10.0ZM217.5 127.5h-2.0v-8.0h-6.0v8.0h-2.0v-10.0h10.0ZM207.5 132.5h2.0v8.0h6.0v-8.0h2.0v10.0h-10.0ZM217.5 157.5v-2.0h-8.0v-6.0h8.0v-2.0h-10.0v10.0ZM207.5 162.5h2.0v8.0h6.0v-8.0h2.0v10.0h-10.0ZM217.5 187.5h-2.0v-8.0h-6.0v8.0h-2.0v-10.0h10.0ZM217.5 202.5v-2.0h-8.0v-6.0h8.0v-2.0h-10.0v10.0ZM217.5 217.5h-2.0v-8.0h-6.0v8.0h-2.0v-10.0h10.0ZM217.5 232.5h-2.0v-8.0h-6.0v8.0h-2.0v-10.0h10.0ZM207.5 237.5h2.0v8.0h6.0v-8.0h2.0v10.0h-10.0ZM222.5 12.5v2.0h8.0v6.0h-8.0v2.0h10.0v-10.0ZM232.5 37.5v-2.0h-8.0v-6.0h8.0v-2.0h-10.0v10.0ZM222.5 42.5v2.0h8.0v6.0h-8.0v2.0h10.0v-10.0ZM232.5 67.5v-2.0h-8.0v-6.0h8.0v-2.0h-10.0v10.0ZM222.5 72.5h2.0v8.0h6.0v-8.0h2.0v10.0h-10.0ZM222.5 87.5v2.0h8.0v6.0h-8.0v2.0h10.0v-10.0ZM222.5 102.5v2.0h8.0v6.0h-8.0v2.0h10.0v-10.0ZM222.5 117.5h2.0v8.0h6.0v-8.0h2.0v10.0h-10.0ZM232.5 142.5h-2.0v-8.0h-6.0v8.0h-2.0v-10.0h10.0ZM232.5 157.5h-2.0v-8.0h-6.0v8.0h-2.0v-10.0h10.0ZM232.5 172.5v-2.0h-8.0v-6.0h8.0v-2.0h-10.0v10.0ZM232.5 187.5h-2.0v-8.0h-6.0v8.0h-2.0v-10.0h10.0ZM232.5 202.5h-2.0v-8.0h-6.0v8.0h-2.0v-10.0h10.0ZM222.5 207.5h2.0v8.0h6.0v-8.0h2.0v10.0h-10.0ZM222.5 222.5h2.0v8.0h6.0v-8.0h2.0v10.0h-10.0ZM222.5 237.5v2.0h8.0v6.0h-8.0v2.0h10.0v-10.0ZM237.5 12.5v2.0h8.0v6.0h-8.0v2.0h10.0v-10.0ZM237.5 27.5h2.0v8.0h6.0v-8.0h2.0v10.0h-10.0ZM237.5 42.5v2.0h8.0v6.0h-8.0v2.0h10.0v-10.0ZM237.5 57.5v2.0h8.0v6.0h-8.0v2.0h10.0v-10.0ZM247.5 82.5v-2.0h-8.0v-6.0h8.0v-2.0h-10.0v10.0ZM237.5 87.5h2.0v8.0h6.0v-8.0h2.0v10.0h-10.0ZM247.5 112.5h-2.0v-8.0h-6.0v8.0h-2.0v-10.0h10.0ZM237.5 117.5v2.0h8.0v6.0h-8.0v2.0h10.0v-10.0ZM237.5 132.5h2.0v8.0h6.0v-8.0h2.0v10.0h-10.0ZM237.5 147.5h2.0v8.0h6.0v-8.0h2.0v10.0h-10.0ZM237.5 162.5h2.0v8.0h6.0v-8.0h2.0v10.0h-10.0ZM247.5 187.5v-2.0h-8.0v-6.0h8.0v-2.0h-10.0v10.0ZM237.5 192.5h2.0v8.0h6.0v-8.0h2.0v10.0h-10.0ZM247.5 217.5h-2.0v-8.0h-6.0v8.0h-2.0v-10.0h10.0ZM247.5 232.5h-2.0v-8.0h-6.0v8.0h-2.0v-10.0h10.0ZM237.5 237.5v2.0h8.0v6.0h-8.0v2.0h10.0v-10.0Z" fill="white" id="grid-of-us" stroke-width="0" /></svg>
