<svg height="220" viewBox="0 0 740 740" width="220" xmlns="http://www.w3.org/2000/svg"><title>A Teocuitlatl Artwork</title><g id="tile_1x1"><rect fill="#745fa6" height="75.0" width="75.0" x="0.0" y="0.0" /><rect fill="#f16762" height="53.28" width="53.28" x="10.36" y="10.36" /></g><g id="tile_2x1"><rect fill="#eee13a" height="75.0" width="75.0" x="74.0" y="0.0" /><rect fill="#8a6698" height="53.28" width="53.28" x="84.36" y="10.36" /></g><g id="tile_3x1"><rect fill="#68d178" height="75.0" width="75.0" x="148.0" y="0.0" /><rect fill="#745fa6" height="53.28" width="53.28" x="158.36" y="10.36" /></g><g id="tile_4x1"><rect fill="#308ad6" height="75.0" width="75.0" x="222.0" y="0.0" /><rect fill="#68d178" height="53.28" width="53.28" x="232.36" y="10.36" /></g><g id="tile_5x1"><rect fill="#745fa6" height="75.0" width="75.0" x="296.0" y="0.0" /><rect fill="#2ab0ba" height="53.28" width="53.28" x="306.36" y="10.36" /></g><g id="tile_6x1"><rect fill="#ce6978" height="75.0" width="75.0" x="370.0" y="0.0" /><circle cx="407.0" cy="37.0" fill="#eee13a" r="26.64" /></g><g id="tile_7x1"><rect fill="#fac440" height="75.0" width="75.0" x="444.0" y="0.0" /><circle cx="481.0" cy="37.0" fill="#745fa6" r="26.64" /></g><g id="tile_8x1"><rect fill="#ce6978" height="75.0" width="75.0" x="518.0" y="0.0" /><circle cx="555.0" cy="37.0" fill="#745fa6" r="26.64" /></g><g id="tile_9x1"><rect fill="#8fdc43" height="75.0" width="75.0" x="592.0" y="0.0" /><circle cx="629.0" cy="37.0" fill="#745fa6" r="26.64" /></g><g id="tile_10x1"><rect fill="#6172c5" height="75.0" width="74.0" x="666.0" y="0.0" /><circle cx="703.0" cy="37.0" fill="#ce6978" r="26.64" /></g><g id="tile_1x2"><rect fill="#68d178" height="75.0" width="75.0" x="0.0" y="74.0" /><rect fill="#6172c5" height="53.28" width="53.28" x="10.36" y="84.36" /></g><g id="tile_2x2"><rect fill="#745fa6" height="75.0" width="75.0" x="74.0" y="74.0" /><rect fill="#308ad6" height="53.28" width="53.28" x="84.36" y="84.36" /></g><g id="tile_3x2"><rect fill="#308ad6" height="75.0" width="75.0" x="148.0" y="74.0" /><rect fill="#745fa6" height="53.28" width="53.28" x="158.36" y="84.36" /></g><g id="tile_4x2"><rect fill="#f16762" height="75.0" width="75.0" x="222.0" y="74.0" /><rect fill="#745fa6" height="53.28" width="53.28" x="232.36" y="84.36" /></g><g id="tile_5x2"><rect fill="#2ab0ba" height="75.0" width="75.0" x="296.0" y="74.0" /><rect fill="#6172c5" height="53.28" width="53.28" x="306.36" y="84.36" /></g><g id="tile_6x2"><rect fill="#6172c5" height="75.0" width="75.0" x="370.0" y="74.0" /><circle cx="407.0" cy="111.0" fill="#ce6978" r="26.64" /></g><g id="tile_7x2"><rect fill="#68d178" height="75.0" width="75.0" x="444.0" y="74.0" /><circle cx="481.0" cy="111.0" fill="#6172c5" r="26.64" /></g><g id="tile_8x2"><rect fill="#8a6698" height="75.0" width="75.0" x="518.0" y="74.0" /><circle cx="555.0" cy="111.0" fill="#308ad6" r="26.64" /></g><g id="tile_9x2"><rect fill="#fac440" height="75.0" width="75.0" x="592.0" y="74.0" /><circle cx="629.0" cy="111.0" fill="#745fa6" r="26.64" /></g><g id="tile_10x2"><rect fill="#f16762" height="75.0" width="74.0" x="666.0" y="74.0" /><circle cx="703.0" cy="111.0" fill="#8a6698" r="26.64" /></g><g id="tile_1x3"><rect fill="#eee13a" height="75.0" width="75.0" x="0.0" y="148.0" /><rect fill="#308ad6" height="53.28" width="53.28" x="10.36" y="158.36" /></g><g id="tile_2x3"><rect fill="#68d178" height="75.0" width="75.0" x="74.0" y="148.0" /><rect fill="#8fdc43" height="53.28" width="53.28" x="84.36" y="158.36" /></g><g id="tile_3x3"><rect fill="#fa8b00" height="75.0" width="75.0" x="148.0" y="148.0" /><circle cx="185.0" cy="185.0" fill="#745fa6" r="26.64" /></g><g id="tile_4x3"><rect fill="#8fdc43" height="75.0" width="75.0" x="222.0" y="148.0" /><circle cx="259.0" cy="185.0" fill="#308ad6" r="26.64" /></g><g id="tile_5x3"><rect fill="#6172c5" height="75.0" width="75.0" x="296.0" y="148.0" /><circle cx="333.0" cy="185.0" fill="#308ad6" r="26.64" /></g><g id="tile_6x3"><rect fill="#745fa6" height="75.0" width="75.0" x="370.0" y="148.0" /><rect fill="#6172c5" height="53.28" width="53.28" x="380.36" y="158.36" /></g><g id="tile_7x3"><rect fill="#8a6698" height="75.0" width="75.0" x="444.0" y="148.0" /><rect fill="#2ab0ba" height="53.28" width="53.28" x="454.36" y="158.36" /></g><g id="tile_8x3"><rect fill="#f16762" height="75.0" width="75.0" x="518.0" y="148.0" /><rect fill="#6172c5" height="53.28" width="53.28" x="528.36" y="158.36" /></g><g id="tile_9x3"><rect fill="#745fa6" height="75.0" width="75.0" x="592.0" y="148.0" /><circle cx="629.0" cy="185.0" fill="#68d178" r="26.64" /></g><g id="tile_10x3"><rect fill="#fac440" height="75.0" width="74.0" x="666.0" y="148.0" /><circle cx="703.0" cy="185.0" fill="#308ad6" r="26.64" /></g><g id="tile_1x4"><rect fill="#68d178" height="75.0" width="75.0" x="0.0" y="222.0" /><rect fill="#eee13a" height="53.28" width="53.28" x="10.36" y="232.36" /></g><g id="tile_2x4"><rect fill="#308ad6" height="75.0" width="75.0" x="74.0" y="222.0" /><rect fill="#2ab0ba" height="53.28" width="53.28" x="84.36" y="232.36" /></g><g id="tile_3x4"><rect fill="#f16762" height="75.0" width="75.0" x="148.0" y="222.0" /><circle cx="185.0" cy="259.0" fill="#8a6698" r="26.64" /></g><g id="tile_4x4"><rect fill="#2ab0ba" height="75.0" width="75.0" x="222.0" y="222.0" /><circle cx="259.0" cy="259.0" fill="#fa8b00" r="26.64" /></g><g id="tile_5x4"><rect fill="#fac440" height="75.0" width="75.0" x="296.0" y="222.0" /><circle cx="333.0" cy="259.0" fill="#ce6978" r="26.64" /></g><g id="tile_6x4"><rect fill="#ce6978" height="75.0" width="75.0" x="370.0" y="222.0" /><rect fill="#745fa6" height="53.28" width="53.28" x="380.36" y="232.36" /></g><g id="tile_7x4"><rect fill="#f16762" height="75.0" width="75.0" x="444.0" y="222.0" /><rect fill="#745fa6" height="53.28" width="53.28" x="454.36" y="232.36" /></g><g id="tile_8x4"><rect fill="#8fdc43" height="75.0" width="75.0" x="518.0" y="222.0" /><rect fill="#68d178" height="53.28" width="53.28" x="528.36" y="232.36" /></g><g id="tile_9x4"><rect fill="#fac440" height="75.0" width="75.0" x="592.0" y="222.0" /><circle cx="629.0" cy="259.0" fill="#308ad6" r="26.64" /></g><g id="tile_10x4"><rect fill="#f16762" height="75.0" width="74.0" x="666.0" y="222.0" /><circle cx="703.0" cy="259.0" fill="#fac440" r="26.64" /></g><g id="tile_1x5"><rect fill="#eee13a" height="75.0" width="75.0" x="0.0" y="296.0" /><rect fill="#745fa6" height="53.28" width="53.28" x="10.36" y="306.36" /></g><g id="tile_2x5"><rect fill="#68d178" height="75.0" width="75.0" x="74.0" y="296.0" /><rect fill="#8fdc43" height="53.28" width="53.28" x="84.36" y="306.36" /></g><g id="tile_3x5"><rect fill="#fa8b00" height="75.0" width="75.0" x="148.0" y="296.0" /><circle cx="185.0" cy="333.0" fill="#ce6978" r="26.64" /></g><g id="tile_4x5"><rect fill="#745fa6" height="75.0" width="75.0" x="222.0" y="296.0" /><circle cx="259.0" cy="333.0" fill="#308ad6" r="26.64" /></g><g id="tile_5x5"><rect fill="#68d178" height="75.0" width="75.0" x="296.0" y="296.0" /><circle cx="333.0" cy="333.0" fill="#6172c5" r="26.64" /></g><g id="tile_6x5"><rect fill="#8a6698" height="75.0" width="75.0" x="370.0" y="296.0" /><rect fill="#2ab0ba" height="53.28" width="53.28" x="380.36" y="306.36" /></g><g id="tile_7x5"><rect fill="#308ad6" height="75.0" width="75.0" x="444.0" y="296.0" /><rect fill="#2ab0ba" height="53.28" width="53.28" x="454.36" y="306.36" /></g><g id="tile_8x5"><rect fill="#745fa6" height="75.0" width="75.0" x="518.0" y="296.0" /><rect fill="#2ab0ba" height="53.28" width="53.28" x="528.36" y="306.36" /></g><g id="tile_9x5"><rect fill="#308ad6" height="75.0" width="75.0" x="592.0" y="296.0" /><circle cx="629.0" cy="333.0" fill="#fa8b00" r="26.64" /></g><g id="tile_10x5"><rect fill="#fac440" height="75.0" width="74.0" x="666.0" y="296.0" /><circle cx="703.0" cy="333.0" fill="#68d178" r="26.64" /></g><g id="tile_1x6"><rect fill="#308ad6" height="75.0" width="75.0" x="0.0" y="370.0" /><circle cx="37.0" cy="407.0" fill="#68d178" r="26.64" /></g><g id="tile_2x6"><rect fill="#8fdc43" height="75.0" width="75.0" x="74.0" y="370.0" /><circle cx="111.0" cy="407.0" fill="#f16762" r="26.64" /></g><g id="tile_3x6"><rect fill="#8a6698" height="75.0" width="75.0" x="148.0" y="370.0" /><rect fill="#8fdc43" height="53.28" width="53.28" x="158.36" y="380.36" /></g><g id="tile_4x6"><rect fill="#f16762" height="75.0" width="75.0" x="222.0" y="370.0" /><rect fill="#8a6698" height="53.28" width="53.28" x="232.36" y="380.36" /></g><g id="tile_5x6"><rect fill="#745fa6" height="75.0" width="75.0" x="296.0" y="370.0" /><rect fill="#68d178" height="53.28" width="53.28" x="306.36" y="380.36" /></g><g id="tile_6x6"><rect fill="#ce6978" height="75.0" width="75.0" x="370.0" y="370.0" /><circle cx="407.0" cy="407.0" fill="#745fa6" r="26.64" /></g><g id="tile_7x6"><rect fill="#6172c5" height="75.0" width="75.0" x="444.0" y="370.0" /><circle cx="481.0" cy="407.0" fill="#2ab0ba" r="26.64" /></g><g id="tile_8x6"><rect fill="#fac440" height="75.0" width="75.0" x="518.0" y="370.0" /><circle cx="555.0" cy="407.0" fill="#308ad6" r="26.64" /></g><g id="tile_9x6"><rect fill="#ce6978" height="75.0" width="75.0" x="592.0" y="370.0" /><rect fill="#308ad6" height="53.28" width="53.28" x="602.36" y="380.36" /></g><g id="tile_10x6"><rect fill="#8a6698" height="75.0" width="74.0" x="666.0" y="370.0" /><rect fill="#f16762" height="53.28" width="53.28" x="676.36" y="380.36" /></g><g id="tile_1x7"><rect fill="#6172c5" height="75.0" width="75.0" x="0.0" y="444.0" /><circle cx="37.0" cy="481.0" fill="#8fdc43" r="26.64" /></g><g id="tile_2x7"><rect fill="#68d178" height="75.0" width="75.0" x="74.0" y="444.0" /><circle cx="111.0" cy="481.0" fill="#745fa6" r="26.64" /></g><g id="tile_3x7"><rect fill="#ce6978" height="75.0" width="75.0" x="148.0" y="444.0" /><rect fill="#f16762" height="53.28" width="53.28" x="158.36" y="454.36" /></g><g id="tile_4x7"><rect fill="#eee13a" height="75.0" width="75.0" x="222.0" y="444.0" /><rect fill="#ce6978" height="53.28" width="53.28" x="232.36" y="454.36" /></g><g id="tile_5x7"><rect fill="#ce6978" height="75.0" width="75.0" x="296.0" y="444.0" /><rect fill="#308ad6" height="53.28" width="53.28" x="306.36" y="454.36" /></g><g id="tile_6x7"><rect fill="#2ab0ba" height="75.0" width="75.0" x="370.0" y="444.0" /><circle cx="407.0" cy="481.0" fill="#308ad6" r="26.64" /></g><g id="tile_7x7"><rect fill="#745fa6" height="75.0" width="75.0" x="444.0" y="444.0" /><circle cx="481.0" cy="481.0" fill="#308ad6" r="26.64" /></g><g id="tile_8x7"><rect fill="#8fdc43" height="75.0" width="75.0" x="518.0" y="444.0" /><circle cx="555.0" cy="481.0" fill="#8a6698" r="26.64" /></g><g id="tile_9x7"><rect fill="#fa8b00" height="75.0" width="75.0" x="592.0" y="444.0" /><rect fill="#6172c5" height="53.28" width="53.28" x="602.36" y="454.36" /></g><g id="tile_10x7"><rect fill="#f16762" height="75.0" width="74.0" x="666.0" y="444.0" /><rect fill="#745fa6" height="53.28" width="53.28" x="676.36" y="454.36" /></g><g id="tile_1x8"><rect fill="#eee13a" height="75.0" width="75.0" x="0.0" y="518.0" /><circle cx="37.0" cy="555.0" fill="#8fdc43" r="26.64" /></g><g id="tile_2x8"><rect fill="#6172c5" height="75.0" width="75.0" x="74.0" y="518.0" /><circle cx="111.0" cy="555.0" fill="#2ab0ba" r="26.64" /></g><g id="tile_3x8"><rect fill="#2ab0ba" height="75.0" width="75.0" x="148.0" y="518.0" /><rect fill="#f16762" height="53.28" width="53.28" x="158.36" y="528.36" /></g><g id="tile_4x8"><rect fill="#ce6978" height="75.0" width="75.0" x="222.0" y="518.0" /><rect fill="#6172c5" height="53.28" width="53.28" x="232.36" y="528.36" /></g><g id="tile_5x8"><rect fill="#fa8b00" height="75.0" width="75.0" x="296.0" y="518.0" /><rect fill="#8a6698" height="53.28" width="53.28" x="306.36" y="528.36" /></g><g id="tile_6x8"><rect fill="#8a6698" height="75.0" width="75.0" x="370.0" y="518.0" /><circle cx="407.0" cy="555.0" fill="#ce6978" r="26.64" /></g><g id="tile_7x8"><rect fill="#fa8b00" height="75.0" width="75.0" x="444.0" y="518.0" /><circle cx="481.0" cy="555.0" fill="#2ab0ba" r="26.64" /></g><g id="tile_8x8"><rect fill="#8a6698" height="75.0" width="75.0" x="518.0" y="518.0" /><circle cx="555.0" cy="555.0" fill="#68d178" r="26.64" /></g><g id="tile_9x8"><rect fill="#f16762" height="75.0" width="75.0" x="592.0" y="518.0" /><rect fill="#68d178" height="53.28" width="53.28" x="602.36" y="528.36" /></g><g id="tile_10x8"><rect fill="#ce6978" height="75.0" width="74.0" x="666.0" y="518.0" /><rect fill="#8a6698" height="53.28" width="53.28" x="676.36" y="528.36" /></g><g id="tile_1x9"><rect fill="#745fa6" height="75.0" width="75.0" x="0.0" y="592.0" /><circle cx="37.0" cy="629.0" fill="#68d178" r="26.64" /></g><g id="tile_2x9"><rect fill="#68d178" height="75.0" width="75.0" x="74.0" y="592.0" /><circle cx="111.0" cy="629.0" fill="#ce6978" r="26.64" /></g><g id="tile_3x9"><rect fill="#8a6698" height="75.0" width="75.0" x="148.0" y="592.0" /><circle cx="185.0" cy="629.0" fill="#ce6978" r="26.64" /></g><g id="tile_4x9"><rect fill="#308ad6" height="75.0" width="75.0" x="222.0" y="592.0" /><circle cx="259.0" cy="629.0" fill="#f16762" r="26.64" /></g><g id="tile_5x9"><rect fill="#ce6978" height="75.0" width="75.0" x="296.0" y="592.0" /><circle cx="333.0" cy="629.0" fill="#f16762" r="26.64" /></g><g id="tile_6x9"><rect fill="#308ad6" height="75.0" width="75.0" x="370.0" y="592.0" /><rect fill="#745fa6" height="53.28" width="53.28" x="380.36" y="602.36" /></g><g id="tile_7x9"><rect fill="#ce6978" height="75.0" width="75.0" x="444.0" y="592.0" /><rect fill="#8a6698" height="53.28" width="53.28" x="454.36" y="602.36" /></g><g id="tile_8x9"><rect fill="#fa8b00" height="75.0" width="75.0" x="518.0" y="592.0" /><rect fill="#ce6978" height="53.28" width="53.28" x="528.36" y="602.36" /></g><g id="tile_9x9"><rect fill="#8a6698" height="75.0" width="75.0" x="592.0" y="592.0" /><rect fill="#ce6978" height="53.28" width="53.28" x="602.36" y="602.36" /></g><g id="tile_10x9"><rect fill="#68d178" height="75.0" width="74.0" x="666.0" y="592.0" /><rect fill="#2ab0ba" height="53.28" width="53.28" x="676.36" y="602.36" /></g><g id="tile_1x10"><rect fill="#8fdc43" height="74.0" width="75.0" x="0.0" y="666.0" /><circle cx="37.0" cy="703.0" fill="#fa8b00" r="26.64" /></g><g id="tile_2x10"><rect fill="#eee13a" height="74.0" width="75.0" x="74.0" y="666.0" /><circle cx="111.0" cy="703.0" fill="#8fdc43" r="26.64" /></g><g id="tile_3x10"><rect fill="#f16762" height="74.0" width="75.0" x="148.0" y="666.0" /><circle cx="185.0" cy="703.0" fill="#745fa6" r="26.64" /></g><g id="tile_4x10"><rect fill="#6172c5" height="74.0" width="75.0" x="222.0" y="666.0" /><circle cx="259.0" cy="703.0" fill="#8a6698" r="26.64" /></g><g id="tile_5x10"><rect fill="#308ad6" height="74.0" width="75.0" x="296.0" y="666.0" /><circle cx="333.0" cy="703.0" fill="#fac440" r="26.64" /></g><g id="tile_6x10"><rect fill="#fac440" height="74.0" width="75.0" x="370.0" y="666.0" /><rect fill="#fa8b00" height="53.28" width="53.28" x="380.36" y="676.36" /></g><g id="tile_7x10"><rect fill="#f16762" height="74.0" width="75.0" x="444.0" y="666.0" /><rect fill="#68d178" height="53.28" width="53.28" x="454.36" y="676.36" /></g><g id="tile_8x10"><rect fill="#6172c5" height="74.0" width="75.0" x="518.0" y="666.0" /><rect fill="#745fa6" height="53.28" width="53.28" x="528.36" y="676.36" /></g><g id="tile_9x10"><rect fill="#fac440" height="74.0" width="75.0" x="592.0" y="666.0" /><rect fill="#68d178" height="53.28" width="53.28" x="602.36" y="676.36" /></g><g id="tile_10x10"><rect fill="#ce6978" height="74.0" width="74.0" x="666.0" y="666.0" /><rect fill="#8a6698" height="53.28" width="53.28" x="676.36" y="676.36" /></g></svg>
