<svg height="220" viewBox="0 0 888 888" width="220" xmlns="http://www.w3.org/2000/svg"><title>A Teocuitlatl Artwork</title><g id="tile_1x1"><rect fill="#3066d0" height="75.0" width="75.0" x="0.0" y="0.0" /><rect fill="#3d5577" height="34.0" width="34.0" x="20.0" y="20.0" /></g><g id="tile_2x1"><rect fill="#f8dd8f" height="75.0" width="75.0" x="74.0" y="0.0" /><rect fill="#70b371" height="34.0" width="34.0" x="94.0" y="20.0" /></g><g id="tile_3x1"><rect fill="#3066d0" height="75.0" width="75.0" x="148.0" y="0.0" /><rect fill="#008db8" height="34.0" width="34.0" x="168.0" y="20.0" /></g><g id="tile_4x1"><rect fill="#70a9ec" height="75.0" width="75.0" x="222.0" y="0.0" /><rect fill="#008db8" height="34.0" width="34.0" x="242.0" y="20.0" /></g><g id="tile_5x1"><rect fill="#ffa452" height="75.0" width="75.0" x="296.0" y="0.0" /><rect fill="#70b371" height="34.0" width="34.0" x="316.0" y="20.0" /></g><g id="tile_6x1"><rect fill="#008db8" height="75.0" width="75.0" x="370.0" y="0.0" /><rect fill="#70a9ec" height="34.0" width="34.0" x="390.0" y="20.0" /></g><g id="tile_7x1"><rect fill="#e86283" height="75.0" width="75.0" x="444.0" y="0.0" /><rect fill="#ffa452" height="34.0" width="34.0" x="464.0" y="20.0" /></g><g id="tile_8x1"><rect fill="#70a9ec" height="75.0" width="75.0" x="518.0" y="0.0" /><rect fill="#ffe0e6" height="34.0" width="34.0" x="538.0" y="20.0" /></g><g id="tile_9x1"><rect fill="#c58dd3" height="75.0" width="75.0" x="592.0" y="0.0" /><rect fill="#3066d0" height="34.0" width="34.0" x="612.0" y="20.0" /></g><g id="tile_10x1"><rect fill="#ffe0e6" height="75.0" width="75.0" x="666.0" y="0.0" /><rect fill="#ffa452" height="34.0" width="34.0" x="686.0" y="20.0" /></g><g id="tile_11x1"><rect fill="#f8dd8f" height="75.0" width="75.0" x="740.0" y="0.0" /><rect fill="#c58dd3" height="34.0" width="34.0" x="760.0" y="20.0" /></g><g id="tile_12x1"><rect fill="#c58dd3" height="75.0" width="74.0" x="814.0" y="0.0" /><rect fill="#ffa452" height="34.0" width="34.0" x="834.0" y="20.0" /></g><g id="tile_1x2"><rect fill="#e86283" height="75.0" width="75.0" x="0.0" y="74.0" /><rect fill="#70b371" height="34.0" width="34.0" x="20.0" y="94.0" /></g><g id="tile_2x2"><rect fill="#c58dd3" height="75.0" width="75.0" x="74.0" y="74.0" /><circle cx="111.0" cy="111.0" fill="#a27cab" r="17.0" /></g><g id="tile_3x2"><rect fill="#ffe0e6" height="75.0" width="75.0" x="148.0" y="74.0" /><circle cx="185.0" cy="111.0" fill="#ffa452" r="17.0" /></g><g id="tile_4x2"><rect fill="#70b371" height="75.0" width="75.0" x="222.0" y="74.0" /><circle cx="259.0" cy="111.0" fill="#70a9ec" r="17.0" /></g><g id="tile_5x2"><rect fill="#e86283" height="75.0" width="75.0" x="296.0" y="74.0" /><circle cx="333.0" cy="111.0" fill="#ffa452" r="17.0" /></g><g id="tile_6x2"><rect fill="#c58dd3" height="75.0" width="75.0" x="370.0" y="74.0" /><circle cx="407.0" cy="111.0" fill="#008db8" r="17.0" /></g><g id="tile_7x2"><rect fill="#ffa452" height="75.0" width="75.0" x="444.0" y="74.0" /><circle cx="481.0" cy="111.0" fill="#e86283" r="17.0" /></g><g id="tile_8x2"><rect fill="#008db8" height="75.0" width="75.0" x="518.0" y="74.0" /><circle cx="555.0" cy="111.0" fill="#3066d0" r="17.0" /></g><g id="tile_9x2"><rect fill="#70a9ec" height="75.0" width="75.0" x="592.0" y="74.0" /><circle cx="629.0" cy="111.0" fill="#c58dd3" r="17.0" /></g><g id="tile_10x2"><rect fill="#ffa452" height="75.0" width="75.0" x="666.0" y="74.0" /><circle cx="703.0" cy="111.0" fill="#008db8" r="17.0" /></g><g id="tile_11x2"><rect fill="#a27cab" height="75.0" width="75.0" x="740.0" y="74.0" /><circle cx="777.0" cy="111.0" fill="#008db8" r="17.0" /></g><g id="tile_12x2"><rect fill="#e86283" height="75.0" width="74.0" x="814.0" y="74.0" /><rect fill="#c58dd3" height="34.0" width="34.0" x="834.0" y="94.0" /></g><g id="tile_1x3"><rect fill="#3066d0" height="75.0" width="75.0" x="0.0" y="148.0" /><rect fill="#a27cab" height="34.0" width="34.0" x="20.0" y="168.0" /></g><g id="tile_2x3"><rect fill="#70b371" height="75.0" width="75.0" x="74.0" y="148.0" /><circle cx="111.0" cy="185.0" fill="#c58dd3" r="17.0" /></g><g id="tile_3x3"><rect fill="#a27cab" height="75.0" width="75.0" x="148.0" y="148.0" /><circle cx="185.0" cy="185.0" fill="#70a9ec" r="17.0" /></g><g id="tile_4x3"><rect fill="#ffe0e6" height="75.0" width="75.0" x="222.0" y="148.0" /><circle cx="259.0" cy="185.0" fill="#c58dd3" r="17.0" /></g><g id="tile_5x3"><rect fill="#a27cab" height="75.0" width="75.0" x="296.0" y="148.0" /><circle cx="333.0" cy="185.0" fill="#3066d0" r="17.0" /></g><g id="tile_6x3"><rect fill="#e86283" height="75.0" width="75.0" x="370.0" y="148.0" /><circle cx="407.0" cy="185.0" fill="#c58dd3" r="17.0" /></g><g id="tile_7x3"><rect fill="#a27cab" height="75.0" width="75.0" x="444.0" y="148.0" /><circle cx="481.0" cy="185.0" fill="#008db8" r="17.0" /></g><g id="tile_8x3"><rect fill="#e86283" height="75.0" width="75.0" x="518.0" y="148.0" /><circle cx="555.0" cy="185.0" fill="#70b371" r="17.0" /></g><g id="tile_9x3"><rect fill="#ffa452" height="75.0" width="75.0" x="592.0" y="148.0" /><circle cx="629.0" cy="185.0" fill="#a27cab" r="17.0" /></g><g id="tile_10x3"><rect fill="#70a9ec" height="75.0" width="75.0" x="666.0" y="148.0" /><circle cx="703.0" cy="185.0" fill="#70b371" r="17.0" /></g><g id="tile_11x3"><rect fill="#ffa452" height="75.0" width="75.0" x="740.0" y="148.0" /><circle cx="777.0" cy="185.0" fill="#e86283" r="17.0" /></g><g id="tile_12x3"><rect fill="#ffe0e6" height="75.0" width="74.0" x="814.0" y="148.0" /><rect fill="#ffa452" height="34.0" width="34.0" x="834.0" y="168.0" /></g><g id="tile_1x4"><rect fill="#3d5577" height="75.0" width="75.0" x="0.0" y="222.0" /><rect fill="#e86283" height="34.0" width="34.0" x="20.0" y="242.0" /></g><g id="tile_2x4"><rect fill="#ffe0e6" height="75.0" width="75.0" x="74.0" y="222.0" /><circle cx="111.0" cy="259.0" fill="#c58dd3" r="17.0" /></g><g id="tile_3x4"><rect fill="#c58dd3" height="75.0" width="75.0" x="148.0" y="222.0" /><circle cx="185.0" cy="259.0" fill="#ffa452" r="17.0" /></g><g id="tile_4x4"><rect fill="#3066d0" height="75.0" width="75.0" x="222.0" y="222.0" /><circle cx="259.0" cy="259.0" fill="#70a9ec" r="17.0" /></g><g id="tile_5x4"><rect fill="#c58dd3" height="75.0" width="75.0" x="296.0" y="222.0" /><circle cx="333.0" cy="259.0" fill="#ffa452" r="17.0" /></g><g id="tile_6x4"><rect fill="#ffa452" height="75.0" width="75.0" x="370.0" y="222.0" /><circle cx="407.0" cy="259.0" fill="#a27cab" r="17.0" /></g><g id="tile_7x4"><rect fill="#e86283" height="75.0" width="75.0" x="444.0" y="222.0" /><circle cx="481.0" cy="259.0" fill="#70a9ec" r="17.0" /></g><g id="tile_8x4"><rect fill="#008db8" height="75.0" width="75.0" x="518.0" y="222.0" /><circle cx="555.0" cy="259.0" fill="#e86283" r="17.0" /></g><g id="tile_9x4"><rect fill="#70a9ec" height="75.0" width="75.0" x="592.0" y="222.0" /><circle cx="629.0" cy="259.0" fill="#c58dd3" r="17.0" /></g><g id="tile_10x4"><rect fill="#3d5577" height="75.0" width="75.0" x="666.0" y="222.0" /><circle cx="703.0" cy="259.0" fill="#008db8" r="17.0" /></g><g id="tile_11x4"><rect fill="#a27cab" height="75.0" width="75.0" x="740.0" y="222.0" /><circle cx="777.0" cy="259.0" fill="#e86283" r="17.0" /></g><g id="tile_12x4"><rect fill="#ffa452" height="75.0" width="74.0" x="814.0" y="222.0" /><rect fill="#ffe0e6" height="34.0" width="34.0" x="834.0" y="242.0" /></g><g id="tile_1x5"><rect fill="#e86283" height="75.0" width="75.0" x="0.0" y="296.0" /><rect fill="#3d5577" height="34.0" width="34.0" x="20.0" y="316.0" /></g><g id="tile_2x5"><rect fill="#c58dd3" height="75.0" width="75.0" x="74.0" y="296.0" /><circle cx="111.0" cy="333.0" fill="#e86283" r="17.0" /></g><g id="tile_3x5"><rect fill="#ffa452" height="75.0" width="75.0" x="148.0" y="296.0" /><circle cx="185.0" cy="333.0" fill="#e86283" r="17.0" /></g><g id="tile_4x5"><rect fill="#c58dd3" height="75.0" width="75.0" x="222.0" y="296.0" /><circle cx="259.0" cy="333.0" fill="#70a9ec" r="17.0" /></g><g id="tile_5x5"><rect fill="#f8dd8f" height="75.0" width="75.0" x="296.0" y="296.0" /><circle cx="333.0" cy="333.0" fill="#a27cab" r="17.0" /></g><g id="tile_6x5"><rect fill="#70a9ec" height="75.0" width="75.0" x="370.0" y="296.0" /><circle cx="407.0" cy="333.0" fill="#ffa452" r="17.0" /></g><g id="tile_7x5"><rect fill="#a27cab" height="75.0" width="75.0" x="444.0" y="296.0" /><circle cx="481.0" cy="333.0" fill="#70a9ec" r="17.0" /></g><g id="tile_8x5"><rect fill="#3066d0" height="75.0" width="75.0" x="518.0" y="296.0" /><circle cx="555.0" cy="333.0" fill="#e86283" r="17.0" /></g><g id="tile_9x5"><rect fill="#c58dd3" height="75.0" width="75.0" x="592.0" y="296.0" /><circle cx="629.0" cy="333.0" fill="#a27cab" r="17.0" /></g><g id="tile_10x5"><rect fill="#3066d0" height="75.0" width="75.0" x="666.0" y="296.0" /><circle cx="703.0" cy="333.0" fill="#3d5577" r="17.0" /></g><g id="tile_11x5"><rect fill="#e86283" height="75.0" width="75.0" x="740.0" y="296.0" /><circle cx="777.0" cy="333.0" fill="#a27cab" r="17.0" /></g><g id="tile_12x5"><rect fill="#f8dd8f" height="75.0" width="74.0" x="814.0" y="296.0" /><rect fill="#ffa452" height="34.0" width="34.0" x="834.0" y="316.0" /></g><g id="tile_1x6"><rect fill="#008db8" height="75.0" width="75.0" x="0.0" y="370.0" /><rect fill="#70b371" height="34.0" width="34.0" x="20.0" y="390.0" /></g><g id="tile_2x6"><rect fill="#f8dd8f" height="75.0" width="75.0" x="74.0" y="370.0" /><circle cx="111.0" cy="407.0" fill="#c58dd3" r="17.0" /></g><g id="tile_3x6"><rect fill="#c58dd3" height="75.0" width="75.0" x="148.0" y="370.0" /><circle cx="185.0" cy="407.0" fill="#70a9ec" r="17.0" /></g><g id="tile_4x6"><rect fill="#70b371" height="75.0" width="75.0" x="222.0" y="370.0" /><circle cx="259.0" cy="407.0" fill="#ffe0e6" r="17.0" /></g><g id="tile_5x6"><rect fill="#c58dd3" height="75.0" width="75.0" x="296.0" y="370.0" /><circle cx="333.0" cy="407.0" fill="#70b371" r="17.0" /></g><g id="tile_6x6"><rect fill="#70b371" height="75.0" width="75.0" x="370.0" y="370.0" /><circle cx="407.0" cy="407.0" fill="#70a9ec" r="17.0" /></g><g id="tile_7x6"><rect fill="#ffa452" height="75.0" width="75.0" x="444.0" y="370.0" /><circle cx="481.0" cy="407.0" fill="#3d5577" r="17.0" /></g><g id="tile_8x6"><rect fill="#c58dd3" height="75.0" width="75.0" x="518.0" y="370.0" /><circle cx="555.0" cy="407.0" fill="#e86283" r="17.0" /></g><g id="tile_9x6"><rect fill="#70a9ec" height="75.0" width="75.0" x="592.0" y="370.0" /><circle cx="629.0" cy="407.0" fill="#f8dd8f" r="17.0" /></g><g id="tile_10x6"><rect fill="#70b371" height="75.0" width="75.0" x="666.0" y="370.0" /><circle cx="703.0" cy="407.0" fill="#70a9ec" r="17.0" /></g><g id="tile_11x6"><rect fill="#ffe0e6" height="75.0" width="75.0" x="740.0" y="370.0" /><circle cx="777.0" cy="407.0" fill="#008db8" r="17.0" /></g><g id="tile_12x6"><rect fill="#ffa452" height="75.0" width="74.0" x="814.0" y="370.0" /><rect fill="#a27cab" height="34.0" width="34.0" x="834.0" y="390.0" /></g><g id="tile_1x7"><rect fill="#e86283" height="75.0" width="75.0" x="0.0" y="444.0" /><rect fill="#a27cab" height="34.0" width="34.0" x="20.0" y="464.0" /></g><g id="tile_2x7"><rect fill="#ffa452" height="75.0" width="75.0" x="74.0" y="444.0" /><circle cx="111.0" cy="481.0" fill="#70a9ec" r="17.0" /></g><g id="tile_3x7"><rect fill="#a27cab" height="75.0" width="75.0" x="148.0" y="444.0" /><circle cx="185.0" cy="481.0" fill="#f8dd8f" r="17.0" /></g><g id="tile_4x7"><rect fill="#c58dd3" height="75.0" width="75.0" x="222.0" y="444.0" /><circle cx="259.0" cy="481.0" fill="#f8dd8f" r="17.0" /></g><g id="tile_5x7"><rect fill="#f8dd8f" height="75.0" width="75.0" x="296.0" y="444.0" /><circle cx="333.0" cy="481.0" fill="#c58dd3" r="17.0" /></g><g id="tile_6x7"><rect fill="#e86283" height="75.0" width="75.0" x="370.0" y="444.0" /><circle cx="407.0" cy="481.0" fill="#70a9ec" r="17.0" /></g><g id="tile_7x7"><rect fill="#f8dd8f" height="75.0" width="75.0" x="444.0" y="444.0" /><circle cx="481.0" cy="481.0" fill="#c58dd3" r="17.0" /></g><g id="tile_8x7"><rect fill="#70b371" height="75.0" width="75.0" x="518.0" y="444.0" /><circle cx="555.0" cy="481.0" fill="#a27cab" r="17.0" /></g><g id="tile_9x7"><rect fill="#e86283" height="75.0" width="75.0" x="592.0" y="444.0" /><circle cx="629.0" cy="481.0" fill="#3066d0" r="17.0" /></g><g id="tile_10x7"><rect fill="#3066d0" height="75.0" width="75.0" x="666.0" y="444.0" /><circle cx="703.0" cy="481.0" fill="#70a9ec" r="17.0" /></g><g id="tile_11x7"><rect fill="#70a9ec" height="75.0" width="75.0" x="740.0" y="444.0" /><circle cx="777.0" cy="481.0" fill="#c58dd3" r="17.0" /></g><g id="tile_12x7"><rect fill="#3066d0" height="75.0" width="74.0" x="814.0" y="444.0" /><rect fill="#ffe0e6" height="34.0" width="34.0" x="834.0" y="464.0" /></g><g id="tile_1x8"><rect fill="#008db8" height="75.0" width="75.0" x="0.0" y="518.0" /><rect fill="#3d5577" height="34.0" width="34.0" x="20.0" y="538.0" /></g><g id="tile_2x8"><rect fill="#70a9ec" height="75.0" width="75.0" x="74.0" y="518.0" /><circle cx="111.0" cy="555.0" fill="#ffa452" r="17.0" /></g><g id="tile_3x8"><rect fill="#c58dd3" height="75.0" width="75.0" x="148.0" y="518.0" /><circle cx="185.0" cy="555.0" fill="#a27cab" r="17.0" /></g><g id="tile_4x8"><rect fill="#70a9ec" height="75.0" width="75.0" x="222.0" y="518.0" /><circle cx="259.0" cy="555.0" fill="#c58dd3" r="17.0" /></g><g id="tile_5x8"><rect fill="#a27cab" height="75.0" width="75.0" x="296.0" y="518.0" /><circle cx="333.0" cy="555.0" fill="#c58dd3" r="17.0" /></g><g id="tile_6x8"><rect fill="#3d5577" height="75.0" width="75.0" x="370.0" y="518.0" /><circle cx="407.0" cy="555.0" fill="#a27cab" r="17.0" /></g><g id="tile_7x8"><rect fill="#70b371" height="75.0" width="75.0" x="444.0" y="518.0" /><circle cx="481.0" cy="555.0" fill="#70a9ec" r="17.0" /></g><g id="tile_8x8"><rect fill="#f8dd8f" height="75.0" width="75.0" x="518.0" y="518.0" /><circle cx="555.0" cy="555.0" fill="#008db8" r="17.0" /></g><g id="tile_9x8"><rect fill="#70b371" height="75.0" width="75.0" x="592.0" y="518.0" /><circle cx="629.0" cy="555.0" fill="#008db8" r="17.0" /></g><g id="tile_10x8"><rect fill="#f8dd8f" height="75.0" width="75.0" x="666.0" y="518.0" /><circle cx="703.0" cy="555.0" fill="#70b371" r="17.0" /></g><g id="tile_11x8"><rect fill="#70b371" height="75.0" width="75.0" x="740.0" y="518.0" /><circle cx="777.0" cy="555.0" fill="#c58dd3" r="17.0" /></g><g id="tile_12x8"><rect fill="#f8dd8f" height="75.0" width="74.0" x="814.0" y="518.0" /><rect fill="#ffa452" height="34.0" width="34.0" x="834.0" y="538.0" /></g><g id="tile_1x9"><rect fill="#3d5577" height="75.0" width="75.0" x="0.0" y="592.0" /><rect fill="#008db8" height="34.0" width="34.0" x="20.0" y="612.0" /></g><g id="tile_2x9"><rect fill="#ffa452" height="75.0" width="75.0" x="74.0" y="592.0" /><circle cx="111.0" cy="629.0" fill="#c58dd3" r="17.0" /></g><g id="tile_3x9"><rect fill="#70a9ec" height="75.0" width="75.0" x="148.0" y="592.0" /><circle cx="185.0" cy="629.0" fill="#e86283" r="17.0" /></g><g id="tile_4x9"><rect fill="#ffa452" height="75.0" width="75.0" x="222.0" y="592.0" /><circle cx="259.0" cy="629.0" fill="#70b371" r="17.0" /></g><g id="tile_5x9"><rect fill="#70a9ec" height="75.0" width="75.0" x="296.0" y="592.0" /><circle cx="333.0" cy="629.0" fill="#a27cab" r="17.0" /></g><g id="tile_6x9"><rect fill="#a27cab" height="75.0" width="75.0" x="370.0" y="592.0" /><circle cx="407.0" cy="629.0" fill="#70b371" r="17.0" /></g><g id="tile_7x9"><rect fill="#e86283" height="75.0" width="75.0" x="444.0" y="592.0" /><circle cx="481.0" cy="629.0" fill="#008db8" r="17.0" /></g><g id="tile_8x9"><rect fill="#70a9ec" height="75.0" width="75.0" x="518.0" y="592.0" /><circle cx="555.0" cy="629.0" fill="#e86283" r="17.0" /></g><g id="tile_9x9"><rect fill="#e86283" height="75.0" width="75.0" x="592.0" y="592.0" /><circle cx="629.0" cy="629.0" fill="#70a9ec" r="17.0" /></g><g id="tile_10x9"><rect fill="#70b371" height="75.0" width="75.0" x="666.0" y="592.0" /><circle cx="703.0" cy="629.0" fill="#c58dd3" r="17.0" /></g><g id="tile_11x9"><rect fill="#e86283" height="75.0" width="75.0" x="740.0" y="592.0" /><circle cx="777.0" cy="629.0" fill="#c58dd3" r="17.0" /></g><g id="tile_12x9"><rect fill="#3066d0" height="75.0" width="74.0" x="814.0" y="592.0" /><rect fill="#f8dd8f" height="34.0" width="34.0" x="834.0" y="612.0" /></g><g id="tile_1x10"><rect fill="#008db8" height="75.0" width="75.0" x="0.0" y="666.0" /><rect fill="#e86283" height="34.0" width="34.0" x="20.0" y="686.0" /></g><g id="tile_2x10"><rect fill="#70a9ec" height="75.0" width="75.0" x="74.0" y="666.0" /><circle cx="111.0" cy="703.0" fill="#3066d0" r="17.0" /></g><g id="tile_3x10"><rect fill="#c58dd3" height="75.0" width="75.0" x="148.0" y="666.0" /><circle cx="185.0" cy="703.0" fill="#70a9ec" r="17.0" /></g><g id="tile_4x10"><rect fill="#f8dd8f" height="75.0" width="75.0" x="222.0" y="666.0" /><circle cx="259.0" cy="703.0" fill="#70b371" r="17.0" /></g><g id="tile_5x10"><rect fill="#a27cab" height="75.0" width="75.0" x="296.0" y="666.0" /><circle cx="333.0" cy="703.0" fill="#e86283" r="17.0" /></g><g id="tile_6x10"><rect fill="#e86283" height="75.0" width="75.0" x="370.0" y="666.0" /><circle cx="407.0" cy="703.0" fill="#70b371" r="17.0" /></g><g id="tile_7x10"><rect fill="#f8dd8f" height="75.0" width="75.0" x="444.0" y="666.0" /><circle cx="481.0" cy="703.0" fill="#e86283" r="17.0" /></g><g id="tile_8x10"><rect fill="#3066d0" height="75.0" width="75.0" x="518.0" y="666.0" /><circle cx="555.0" cy="703.0" fill="#70b371" r="17.0" /></g><g id="tile_9x10"><rect fill="#f8dd8f" height="75.0" width="75.0" x="592.0" y="666.0" /><circle cx="629.0" cy="703.0" fill="#70a9ec" r="17.0" /></g><g id="tile_10x10"><rect fill="#70a9ec" height="75.0" width="75.0" x="666.0" y="666.0" /><circle cx="703.0" cy="703.0" fill="#70b371" r="17.0" /></g><g id="tile_11x10"><rect fill="#70b371" height="75.0" width="75.0" x="740.0" y="666.0" /><circle cx="777.0" cy="703.0" fill="#e86283" r="17.0" /></g><g id="tile_12x10"><rect fill="#ffe0e6" height="75.0" width="74.0" x="814.0" y="666.0" /><rect fill="#a27cab" height="34.0" width="34.0" x="834.0" y="686.0" /></g><g id="tile_1x11"><rect fill="#70a9ec" height="75.0" width="75.0" x="0.0" y="740.0" /><rect fill="#3d5577" height="34.0" width="34.0" x="20.0" y="760.0" /></g><g id="tile_2x11"><rect fill="#ffa452" height="75.0" width="75.0" x="74.0" y="740.0" /><circle cx="111.0" cy="777.0" fill="#a27cab" r="17.0" /></g><g id="tile_3x11"><rect fill="#f8dd8f" height="75.0" width="75.0" x="148.0" y="740.0" /><circle cx="185.0" cy="777.0" fill="#e86283" r="17.0" /></g><g id="tile_4x11"><rect fill="#ffa452" height="75.0" width="75.0" x="222.0" y="740.0" /><circle cx="259.0" cy="777.0" fill="#c58dd3" r="17.0" /></g><g id="tile_5x11"><rect fill="#c58dd3" height="75.0" width="75.0" x="296.0" y="740.0" /><circle cx="333.0" cy="777.0" fill="#ffa452" r="17.0" /></g><g id="tile_6x11"><rect fill="#f8dd8f" height="75.0" width="75.0" x="370.0" y="740.0" /><circle cx="407.0" cy="777.0" fill="#70b371" r="17.0" /></g><g id="tile_7x11"><rect fill="#e86283" height="75.0" width="75.0" x="444.0" y="740.0" /><circle cx="481.0" cy="777.0" fill="#c58dd3" r="17.0" /></g><g id="tile_8x11"><rect fill="#008db8" height="75.0" width="75.0" x="518.0" y="740.0" /><circle cx="555.0" cy="777.0" fill="#70b371" r="17.0" /></g><g id="tile_9x11"><rect fill="#70b371" height="75.0" width="75.0" x="592.0" y="740.0" /><circle cx="629.0" cy="777.0" fill="#008db8" r="17.0" /></g><g id="tile_10x11"><rect fill="#e86283" height="75.0" width="75.0" x="666.0" y="740.0" /><circle cx="703.0" cy="777.0" fill="#ffa452" r="17.0" /></g><g id="tile_11x11"><rect fill="#008db8" height="75.0" width="75.0" x="740.0" y="740.0" /><circle cx="777.0" cy="777.0" fill="#70b371" r="17.0" /></g><g id="tile_12x11"><rect fill="#f8dd8f" height="75.0" width="74.0" x="814.0" y="740.0" /><rect fill="#ffa452" height="34.0" width="34.0" x="834.0" y="760.0" /></g><g id="tile_1x12"><rect fill="#70b371" height="74.0" width="75.0" x="0.0" y="814.0" /><rect fill="#3066d0" height="34.0" width="34.0" x="20.0" y="834.0" /></g><g id="tile_2x12"><rect fill="#3066d0" height="74.0" width="75.0" x="74.0" y="814.0" /><rect fill="#3d5577" height="34.0" width="34.0" x="94.0" y="834.0" /></g><g id="tile_3x12"><rect fill="#e86283" height="74.0" width="75.0" x="148.0" y="814.0" /><rect fill="#70b371" height="34.0" width="34.0" x="168.0" y="834.0" /></g><g id="tile_4x12"><rect fill="#3066d0" height="74.0" width="75.0" x="222.0" y="814.0" /><rect fill="#008db8" height="34.0" width="34.0" x="242.0" y="834.0" /></g><g id="tile_5x12"><rect fill="#e86283" height="74.0" width="75.0" x="296.0" y="814.0" /><rect fill="#c58dd3" height="34.0" width="34.0" x="316.0" y="834.0" /></g><g id="tile_6x12"><rect fill="#a27cab" height="74.0" width="75.0" x="370.0" y="814.0" /><rect fill="#70a9ec" height="34.0" width="34.0" x="390.0" y="834.0" /></g><g id="tile_7x12"><rect fill="#c58dd3" height="74.0" width="75.0" x="444.0" y="814.0" /><rect fill="#008db8" height="34.0" width="34.0" x="464.0" y="834.0" /></g><g id="tile_8x12"><rect fill="#ffa452" height="74.0" width="75.0" x="518.0" y="814.0" /><rect fill="#3d5577" height="34.0" width="34.0" x="538.0" y="834.0" /></g><g id="tile_9x12"><rect fill="#70a9ec" height="74.0" width="75.0" x="592.0" y="814.0" /><rect fill="#f8dd8f" height="34.0" width="34.0" x="612.0" y="834.0" /></g><g id="tile_10x12"><rect fill="#70b371" height="74.0" width="75.0" x="666.0" y="814.0" /><rect fill="#008db8" height="34.0" width="34.0" x="686.0" y="834.0" /></g><g id="tile_11x12"><rect fill="#ffa452" height="74.0" width="75.0" x="740.0" y="814.0" /><rect fill="#e86283" height="34.0" width="34.0" x="760.0" y="834.0" /></g><g id="tile_12x12"><rect fill="#c58dd3" height="74.0" width="74.0" x="814.0" y="814.0" /><rect fill="#ffe0e6" height="34.0" width="34.0" x="834.0" y="834.0" /></g></svg>
