<svg height="220" viewBox="0 0 1184 1184" width="220" xmlns="http://www.w3.org/2000/svg"><title>A Teocuitlatl Artwork</title><g id="tile_1x1"><rect fill="#000000" height="75.0" width="75.0" x="0.0" y="0.0" /><circle cx="37.0" cy="37.0" fill="#000000" r="26.64" /></g><g id="tile_2x1"><rect fill="#000000" height="75.0" width="75.0" x="74.0" y="0.0" /><circle cx="111.0" cy="37.0" fill="#000000" r="26.64" /></g><g id="tile_3x1"><rect fill="#000000" height="75.0" width="75.0" x="148.0" y="0.0" /><circle cx="185.0" cy="37.0" fill="#000000" r="26.64" /></g><g id="tile_4x1"><rect fill="#000000" height="75.0" width="75.0" x="222.0" y="0.0" /><circle cx="259.0" cy="37.0" fill="#000000" r="26.64" /></g><g id="tile_5x1"><rect fill="#000000" height="75.0" width="75.0" x="296.0" y="0.0" /><circle cx="333.0" cy="37.0" fill="#000000" r="26.64" /></g><g id="tile_6x1"><rect fill="#ffffff" height="75.0" width="75.0" x="370.0" y="0.0" /><circle cx="407.0" cy="37.0" fill="#000000" r="26.64" /></g><g id="tile_7x1"><rect fill="#000000" height="75.0" width="75.0" x="444.0" y="0.0" /><circle cx="481.0" cy="37.0" fill="#ffffff" r="26.64" /></g><g id="tile_8x1"><rect fill="#ffffff" height="75.0" width="75.0" x="518.0" y="0.0" /><circle cx="555.0" cy="37.0" fill="#000000" r="26.64" /></g><g id="tile_9x1"><rect fill="#000000" height="75.0" width="75.0" x="592.0" y="0.0" /><rect fill="#ffffff" height="53.28" width="53.28" x="602.36" y="10.36" /></g><g id="tile_10x1"><rect fill="#ffffff" height="75.0" width="75.0" x="666.0" y="0.0" /><rect fill="#000000" height="53.28" width="53.28" x="676.36" y="10.36" /></g><g id="tile_11x1"><rect fill="#000000" height="75.0" width="75.0" x="740.0" y="0.0" /><rect fill="#ffffff" height="53.28" width="53.28" x="750.36" y="10.36" /></g><g id="tile_12x1"><rect fill="#ffffff" height="75.0" width="75.0" x="814.0" y="0.0" /><rect fill="#ffffff" height="53.28" width="53.28" x="824.36" y="10.36" /></g><g id="tile_13x1"><rect fill="#ffffff" height="75.0" width="75.0" x="888.0" y="0.0" /><rect fill="#000000" height="53.28" width="53.28" x="898.36" y="10.36" /></g><g id="tile_14x1"><rect fill="#ffffff" height="75.0" width="75.0" x="962.0" y="0.0" /><rect fill="#ffffff" height="53.28" width="53.28" x="972.36" y="10.36" /></g><g id="tile_15x1"><rect fill="#ffffff" height="75.0" width="75.0" x="1036.0" y="0.0" /><rect fill="#ffffff" height="53.28" width="53.28" x="1046.36" y="10.36" /></g><g id="tile_16x1"><rect fill="#ffffff" height="75.0" width="74.0" x="1110.0" y="0.0" /><rect fill="#ffffff" height="53.28" width="53.28" x="1120.36" y="10.36" /></g><g id="tile_1x2"><rect fill="#000000" height="75.0" width="75.0" x="0.0" y="74.0" /><circle cx="37.0" cy="111.0" fill="#000000" r="26.64" /></g><g id="tile_2x2"><rect fill="#000000" height="75.0" width="75.0" x="74.0" y="74.0" /><circle cx="111.0" cy="111.0" fill="#000000" r="26.64" /></g><g id="tile_3x2"><rect fill="#000000" height="75.0" width="75.0" x="148.0" y="74.0" /><circle cx="185.0" cy="111.0" fill="#000000" r="26.64" /></g><g id="tile_4x2"><rect fill="#000000" height="75.0" width="75.0" x="222.0" y="74.0" /><circle cx="259.0" cy="111.0" fill="#000000" r="26.64" /></g><g id="tile_5x2"><rect fill="#000000" height="75.0" width="75.0" x="296.0" y="74.0" /><circle cx="333.0" cy="111.0" fill="#000000" r="26.64" /></g><g id="tile_6x2"><rect fill="#000000" height="75.0" width="75.0" x="370.0" y="74.0" /><circle cx="407.0" cy="111.0" fill="#000000" r="26.64" /></g><g id="tile_7x2"><rect fill="#000000" height="75.0" width="75.0" x="444.0" y="74.0" /><circle cx="481.0" cy="111.0" fill="#ffffff" r="26.64" /></g><g id="tile_8x2"><rect fill="#000000" height="75.0" width="75.0" x="518.0" y="74.0" /><circle cx="555.0" cy="111.0" fill="#ffffff" r="26.64" /></g><g id="tile_9x2"><rect fill="#ffffff" height="75.0" width="75.0" x="592.0" y="74.0" /><rect fill="#000000" height="53.28" width="53.28" x="602.36" y="84.36" /></g><g id="tile_10x2"><rect fill="#000000" height="75.0" width="75.0" x="666.0" y="74.0" /><rect fill="#ffffff" height="53.28" width="53.28" x="676.36" y="84.36" /></g><g id="tile_11x2"><rect fill="#ffffff" height="75.0" width="75.0" x="740.0" y="74.0" /><rect fill="#000000" height="53.28" width="53.28" x="750.36" y="84.36" /></g><g id="tile_12x2"><rect fill="#ffffff" height="75.0" width="75.0" x="814.0" y="74.0" /><rect fill="#ffffff" height="53.28" width="53.28" x="824.36" y="84.36" /></g><g id="tile_13x2"><rect fill="#ffffff" height="75.0" width="75.0" x="888.0" y="74.0" /><rect fill="#ffffff" height="53.28" width="53.28" x="898.36" y="84.36" /></g><g id="tile_14x2"><rect fill="#ffffff" height="75.0" width="75.0" x="962.0" y="74.0" /><rect fill="#ffffff" height="53.28" width="53.28" x="972.36" y="84.36" /></g><g id="tile_15x2"><rect fill="#ffffff" height="75.0" width="75.0" x="1036.0" y="74.0" /><rect fill="#ffffff" height="53.28" width="53.28" x="1046.36" y="84.36" /></g><g id="tile_16x2"><rect fill="#ffffff" height="75.0" width="74.0" x="1110.0" y="74.0" /><rect fill="#ffffff" height="53.28" width="53.28" x="1120.36" y="84.36" /></g><g id="tile_1x3"><rect fill="#000000" height="75.0" width="75.0" x="0.0" y="148.0" /><circle cx="37.0" cy="185.0" fill="#000000" r="26.64" /></g><g id="tile_2x3"><rect fill="#000000" height="75.0" width="75.0" x="74.0" y="148.0" /><circle cx="111.0" cy="185.0" fill="#000000" r="26.64" /></g><g id="tile_3x3"><rect fill="#000000" height="75.0" width="75.0" x="148.0" y="148.0" /><circle cx="185.0" cy="185.0" fill="#000000" r="26.64" /></g><g id="tile_4x3"><rect fill="#000000" height="75.0" width="75.0" x="222.0" y="148.0" /><circle cx="259.0" cy="185.0" fill="#000000" r="26.64" /></g><g id="tile_5x3"><rect fill="#000000" height="75.0" width="75.0" x="296.0" y="148.0" /><circle cx="333.0" cy="185.0" fill="#000000" r="26.64" /></g><g id="tile_6x3"><rect fill="#000000" height="75.0" width="75.0" x="370.0" y="148.0" /><circle cx="407.0" cy="185.0" fill="#000000" r="26.64" /></g><g id="tile_7x3"><rect fill="#ffffff" height="75.0" width="75.0" x="444.0" y="148.0" /><circle cx="481.0" cy="185.0" fill="#000000" r="26.64" /></g><g id="tile_8x3"><rect fill="#000000" height="75.0" width="75.0" x="518.0" y="148.0" /><circle cx="555.0" cy="185.0" fill="#ffffff" r="26.64" /></g><g id="tile_9x3"><rect fill="#000000" height="75.0" width="75.0" x="592.0" y="148.0" /><rect fill="#ffffff" height="53.28" width="53.28" x="602.36" y="158.36" /></g><g id="tile_10x3"><rect fill="#ffffff" height="75.0" width="75.0" x="666.0" y="148.0" /><rect fill="#000000" height="53.28" width="53.28" x="676.36" y="158.36" /></g><g id="tile_11x3"><rect fill="#000000" height="75.0" width="75.0" x="740.0" y="148.0" /><rect fill="#ffffff" height="53.28" width="53.28" x="750.36" y="158.36" /></g><g id="tile_12x3"><rect fill="#ffffff" height="75.0" width="75.0" x="814.0" y="148.0" /><rect fill="#ffffff" height="53.28" width="53.28" x="824.36" y="158.36" /></g><g id="tile_13x3"><rect fill="#ffffff" height="75.0" width="75.0" x="888.0" y="148.0" /><rect fill="#ffffff" height="53.28" width="53.28" x="898.36" y="158.36" /></g><g id="tile_14x3"><rect fill="#ffffff" height="75.0" width="75.0" x="962.0" y="148.0" /><rect fill="#ffffff" height="53.28" width="53.28" x="972.36" y="158.36" /></g><g id="tile_15x3"><rect fill="#ffffff" height="75.0" width="75.0" x="1036.0" y="148.0" /><rect fill="#ffffff" height="53.28" width="53.28" x="1046.36" y="158.36" /></g><g id="tile_16x3"><rect fill="#ffffff" height="75.0" width="74.0" x="1110.0" y="148.0" /><rect fill="#ffffff" height="53.28" width="53.28" x="1120.36" y="158.36" /></g><g id="tile_1x4"><rect fill="#000000" height="75.0" width="75.0" x="0.0" y="222.0" /><circle cx="37.0" cy="259.0" fill="#000000" r="26.64" /></g><g id="tile_2x4"><rect fill="#000000" height="75.0" width="75.0" x="74.0" y="222.0" /><circle cx="111.0" cy="259.0" fill="#000000" r="26.64" /></g><g id="tile_3x4"><rect fill="#000000" height="75.0" width="75.0" x="148.0" y="222.0" /><circle cx="185.0" cy="259.0" fill="#000000" r="26.64" /></g><g id="tile_4x4"><rect fill="#000000" height="75.0" width="75.0" x="222.0" y="222.0" /><circle cx="259.0" cy="259.0" fill="#000000" r="26.64" /></g><g id="tile_5x4"><rect fill="#000000" height="75.0" width="75.0" x="296.0" y="222.0" /><circle cx="333.0" cy="259.0" fill="#000000" r="26.64" /></g><g id="tile_6x4"><rect fill="#000000" height="75.0" width="75.0" x="370.0" y="222.0" /><circle cx="407.0" cy="259.0" fill="#ffffff" r="26.64" /></g><g id="tile_7x4"><rect fill="#000000" height="75.0" width="75.0" x="444.0" y="222.0" /><circle cx="481.0" cy="259.0" fill="#ffffff" r="26.64" /></g><g id="tile_8x4"><rect fill="#ffffff" height="75.0" width="75.0" x="518.0" y="222.0" /><circle cx="555.0" cy="259.0" fill="#000000" r="26.64" /></g><g id="tile_9x4"><rect fill="#000000" height="75.0" width="75.0" x="592.0" y="222.0" /><rect fill="#ffffff" height="53.28" width="53.28" x="602.36" y="232.36" /></g><g id="tile_10x4"><rect fill="#ffffff" height="75.0" width="75.0" x="666.0" y="222.0" /><rect fill="#000000" height="53.28" width="53.28" x="676.36" y="232.36" /></g><g id="tile_11x4"><rect fill="#ffffff" height="75.0" width="75.0" x="740.0" y="222.0" /><rect fill="#000000" height="53.28" width="53.28" x="750.36" y="232.36" /></g><g id="tile_12x4"><rect fill="#ffffff" height="75.0" width="75.0" x="814.0" y="222.0" /><rect fill="#000000" height="53.28" width="53.28" x="824.36" y="232.36" /></g><g id="tile_13x4"><rect fill="#ffffff" height="75.0" width="75.0" x="888.0" y="222.0" /><rect fill="#ffffff" height="53.28" width="53.28" x="898.36" y="232.36" /></g><g id="tile_14x4"><rect fill="#ffffff" height="75.0" width="75.0" x="962.0" y="222.0" /><rect fill="#ffffff" height="53.28" width="53.28" x="972.36" y="232.36" /></g><g id="tile_15x4"><rect fill="#ffffff" height="75.0" width="75.0" x="1036.0" y="222.0" /><rect fill="#ffffff" height="53.28" width="53.28" x="1046.36" y="232.36" /></g><g id="tile_16x4"><rect fill="#ffffff" height="75.0" width="74.0" x="1110.0" y="222.0" /><rect fill="#ffffff" height="53.28" width="53.28" x="1120.36" y="232.36" /></g><g id="tile_1x5"><rect fill="#000000" height="75.0" width="75.0" x="0.0" y="296.0" /><circle cx="37.0" cy="333.0" fill="#000000" r="26.64" /></g><g id="tile_2x5"><rect fill="#000000" height="75.0" width="75.0" x="74.0" y="296.0" /><circle cx="111.0" cy="333.0" fill="#000000" r="26.64" /></g><g id="tile_3x5"><rect fill="#000000" height="75.0" width="75.0" x="148.0" y="296.0" /><circle cx="185.0" cy="333.0" fill="#000000" r="26.64" /></g><g id="tile_4x5"><rect fill="#000000" height="75.0" width="75.0" x="222.0" y="296.0" /><circle cx="259.0" cy="333.0" fill="#000000" r="26.64" /></g><g id="tile_5x5"><rect fill="#ffffff" height="75.0" width="75.0" x="296.0" y="296.0" /><rect fill="#ffffff" height="53.28" width="53.28" x="306.36" y="306.36" /></g><g id="tile_6x5"><rect fill="#ffffff" height="75.0" width="75.0" x="370.0" y="296.0" /><rect fill="#ffffff" height="53.28" width="53.28" x="380.36" y="306.36" /></g><g id="tile_7x5"><rect fill="#ffffff" height="75.0" width="75.0" x="444.0" y="296.0" /><rect fill="#000000" height="53.28" width="53.28" x="454.36" y="306.36" /></g><g id="tile_8x5"><rect fill="#000000" height="75.0" width="75.0" x="518.0" y="296.0" /><rect fill="#ffffff" height="53.28" width="53.28" x="528.36" y="306.36" /></g><g id="tile_9x5"><rect fill="#ffffff" height="75.0" width="75.0" x="592.0" y="296.0" /><circle cx="629.0" cy="333.0" fill="#000000" r="26.64" /></g><g id="tile_10x5"><rect fill="#000000" height="75.0" width="75.0" x="666.0" y="296.0" /><circle cx="703.0" cy="333.0" fill="#ffffff" r="26.64" /></g><g id="tile_11x5"><rect fill="#000000" height="75.0" width="75.0" x="740.0" y="296.0" /><circle cx="777.0" cy="333.0" fill="#ffffff" r="26.64" /></g><g id="tile_12x5"><rect fill="#000000" height="75.0" width="75.0" x="814.0" y="296.0" /><circle cx="851.0" cy="333.0" fill="#ffffff" r="26.64" /></g><g id="tile_13x5"><rect fill="#ffffff" height="75.0" width="75.0" x="888.0" y="296.0" /><rect fill="#ffffff" height="53.28" width="53.28" x="898.36" y="306.36" /></g><g id="tile_14x5"><rect fill="#ffffff" height="75.0" width="75.0" x="962.0" y="296.0" /><rect fill="#ffffff" height="53.28" width="53.28" x="972.36" y="306.36" /></g><g id="tile_15x5"><rect fill="#ffffff" height="75.0" width="75.0" x="1036.0" y="296.0" /><rect fill="#ffffff" height="53.28" width="53.28" x="1046.36" y="306.36" /></g><g id="tile_16x5"><rect fill="#ffffff" height="75.0" width="74.0" x="1110.0" y="296.0" /><rect fill="#ffffff" height="53.28" width="53.28" x="1120.36" y="306.36" /></g><g id="tile_1x6"><rect fill="#000000" height="75.0" width="75.0" x="0.0" y="370.0" /><circle cx="37.0" cy="407.0" fill="#000000" r="26.64" /></g><g id="tile_2x6"><rect fill="#000000" height="75.0" width="75.0" x="74.0" y="370.0" /><circle cx="111.0" cy="407.0" fill="#000000" r="26.64" /></g><g id="tile_3x6"><rect fill="#000000" height="75.0" width="75.0" x="148.0" y="370.0" /><circle cx="185.0" cy="407.0" fill="#000000" r="26.64" /></g><g id="tile_4x6"><rect fill="#000000" height="75.0" width="75.0" x="222.0" y="370.0" /><circle cx="259.0" cy="407.0" fill="#000000" r="26.64" /></g><g id="tile_5x6"><rect fill="#ffffff" height="75.0" width="75.0" x="296.0" y="370.0" /><rect fill="#ffffff" height="53.28" width="53.28" x="306.36" y="380.36" /></g><g id="tile_6x6"><rect fill="#000000" height="75.0" width="75.0" x="370.0" y="370.0" /><rect fill="#ffffff" height="53.28" width="53.28" x="380.36" y="380.36" /></g><g id="tile_7x6"><rect fill="#ffffff" height="75.0" width="75.0" x="444.0" y="370.0" /><rect fill="#000000" height="53.28" width="53.28" x="454.36" y="380.36" /></g><g id="tile_8x6"><rect fill="#ffffff" height="75.0" width="75.0" x="518.0" y="370.0" /><rect fill="#000000" height="53.28" width="53.28" x="528.36" y="380.36" /></g><g id="tile_9x6"><rect fill="#000000" height="75.0" width="75.0" x="592.0" y="370.0" /><circle cx="629.0" cy="407.0" fill="#ffffff" r="26.64" /></g><g id="tile_10x6"><rect fill="#ffffff" height="75.0" width="75.0" x="666.0" y="370.0" /><circle cx="703.0" cy="407.0" fill="#000000" r="26.64" /></g><g id="tile_11x6"><rect fill="#000000" height="75.0" width="75.0" x="740.0" y="370.0" /><circle cx="777.0" cy="407.0" fill="#ffffff" r="26.64" /></g><g id="tile_12x6"><rect fill="#000000" height="75.0" width="75.0" x="814.0" y="370.0" /><circle cx="851.0" cy="407.0" fill="#000000" r="26.64" /></g><g id="tile_13x6"><rect fill="#ffffff" height="75.0" width="75.0" x="888.0" y="370.0" /><rect fill="#ffffff" height="53.28" width="53.28" x="898.36" y="380.36" /></g><g id="tile_14x6"><rect fill="#ffffff" height="75.0" width="75.0" x="962.0" y="370.0" /><rect fill="#ffffff" height="53.28" width="53.28" x="972.36" y="380.36" /></g><g id="tile_15x6"><rect fill="#ffffff" height="75.0" width="75.0" x="1036.0" y="370.0" /><rect fill="#ffffff" height="53.28" width="53.28" x="1046.36" y="380.36" /></g><g id="tile_16x6"><rect fill="#ffffff" height="75.0" width="74.0" x="1110.0" y="370.0" /><rect fill="#ffffff" height="53.28" width="53.28" x="1120.36" y="380.36" /></g><g id="tile_1x7"><rect fill="#000000" height="75.0" width="75.0" x="0.0" y="444.0" /><circle cx="37.0" cy="481.0" fill="#000000" r="26.64" /></g><g id="tile_2x7"><rect fill="#000000" height="75.0" width="75.0" x="74.0" y="444.0" /><circle cx="111.0" cy="481.0" fill="#000000" r="26.64" /></g><g id="tile_3x7"><rect fill="#000000" height="75.0" width="75.0" x="148.0" y="444.0" /><circle cx="185.0" cy="481.0" fill="#000000" r="26.64" /></g><g id="tile_4x7"><rect fill="#000000" height="75.0" width="75.0" x="222.0" y="444.0" /><circle cx="259.0" cy="481.0" fill="#000000" r="26.64" /></g><g id="tile_5x7"><rect fill="#ffffff" height="75.0" width="75.0" x="296.0" y="444.0" /><rect fill="#ffffff" height="53.28" width="53.28" x="306.36" y="454.36" /></g><g id="tile_6x7"><rect fill="#ffffff" height="75.0" width="75.0" x="370.0" y="444.0" /><rect fill="#000000" height="53.28" width="53.28" x="380.36" y="454.36" /></g><g id="tile_7x7"><rect fill="#000000" height="75.0" width="75.0" x="444.0" y="444.0" /><rect fill="#ffffff" height="53.28" width="53.28" x="454.36" y="454.36" /></g><g id="tile_8x7"><rect fill="#ffffff" height="75.0" width="75.0" x="518.0" y="444.0" /><rect fill="#000000" height="53.28" width="53.28" x="528.36" y="454.36" /></g><g id="tile_9x7"><rect fill="#000000" height="75.0" width="75.0" x="592.0" y="444.0" /><circle cx="629.0" cy="481.0" fill="#ffffff" r="26.64" /></g><g id="tile_10x7"><rect fill="#000000" height="75.0" width="75.0" x="666.0" y="444.0" /><circle cx="703.0" cy="481.0" fill="#ffffff" r="26.64" /></g><g id="tile_11x7"><rect fill="#ffffff" height="75.0" width="75.0" x="740.0" y="444.0" /><circle cx="777.0" cy="481.0" fill="#000000" r="26.64" /></g><g id="tile_12x7"><rect fill="#000000" height="75.0" width="75.0" x="814.0" y="444.0" /><circle cx="851.0" cy="481.0" fill="#000000" r="26.64" /></g><g id="tile_13x7"><rect fill="#ffffff" height="75.0" width="75.0" x="888.0" y="444.0" /><rect fill="#ffffff" height="53.28" width="53.28" x="898.36" y="454.36" /></g><g id="tile_14x7"><rect fill="#ffffff" height="75.0" width="75.0" x="962.0" y="444.0" /><rect fill="#ffffff" height="53.28" width="53.28" x="972.36" y="454.36" /></g><g id="tile_15x7"><rect fill="#ffffff" height="75.0" width="75.0" x="1036.0" y="444.0" /><rect fill="#ffffff" height="53.28" width="53.28" x="1046.36" y="454.36" /></g><g id="tile_16x7"><rect fill="#ffffff" height="75.0" width="74.0" x="1110.0" y="444.0" /><rect fill="#ffffff" height="53.28" width="53.28" x="1120.36" y="454.36" /></g><g id="tile_1x8"><rect fill="#000000" height="75.0" width="75.0" x="0.0" y="518.0" /><circle cx="37.0" cy="555.0" fill="#000000" r="26.64" /></g><g id="tile_2x8"><rect fill="#000000" height="75.0" width="75.0" x="74.0" y="518.0" /><circle cx="111.0" cy="555.0" fill="#000000" r="26.64" /></g><g id="tile_3x8"><rect fill="#000000" height="75.0" width="75.0" x="148.0" y="518.0" /><circle cx="185.0" cy="555.0" fill="#000000" r="26.64" /></g><g id="tile_4x8"><rect fill="#000000" height="75.0" width="75.0" x="222.0" y="518.0" /><circle cx="259.0" cy="555.0" fill="#000000" r="26.64" /></g><g id="tile_5x8"><rect fill="#ffffff" height="75.0" width="75.0" x="296.0" y="518.0" /><rect fill="#ffffff" height="53.28" width="53.28" x="306.36" y="528.36" /></g><g id="tile_6x8"><rect fill="#ffffff" height="75.0" width="75.0" x="370.0" y="518.0" /><rect fill="#ffffff" height="53.28" width="53.28" x="380.36" y="528.36" /></g><g id="tile_7x8"><rect fill="#ffffff" height="75.0" width="75.0" x="444.0" y="518.0" /><rect fill="#000000" height="53.28" width="53.28" x="454.36" y="528.36" /></g><g id="tile_8x8"><rect fill="#000000" height="75.0" width="75.0" x="518.0" y="518.0" /><rect fill="#ffffff" height="53.28" width="53.28" x="528.36" y="528.36" /></g><g id="tile_9x8"><rect fill="#ffffff" height="75.0" width="75.0" x="592.0" y="518.0" /><circle cx="629.0" cy="555.0" fill="#000000" r="26.64" /></g><g id="tile_10x8"><rect fill="#000000" height="75.0" width="75.0" x="666.0" y="518.0" /><circle cx="703.0" cy="555.0" fill="#ffffff" r="26.64" /></g><g id="tile_11x8"><rect fill="#000000" height="75.0" width="75.0" x="740.0" y="518.0" /><circle cx="777.0" cy="555.0" fill="#ffffff" r="26.64" /></g><g id="tile_12x8"><rect fill="#000000" height="75.0" width="75.0" x="814.0" y="518.0" /><circle cx="851.0" cy="555.0" fill="#000000" r="26.64" /></g><g id="tile_13x8"><rect fill="#ffffff" height="75.0" width="75.0" x="888.0" y="518.0" /><rect fill="#ffffff" height="53.28" width="53.28" x="898.36" y="528.36" /></g><g id="tile_14x8"><rect fill="#ffffff" height="75.0" width="75.0" x="962.0" y="518.0" /><rect fill="#ffffff" height="53.28" width="53.28" x="972.36" y="528.36" /></g><g id="tile_15x8"><rect fill="#ffffff" height="75.0" width="75.0" x="1036.0" y="518.0" /><rect fill="#ffffff" height="53.28" width="53.28" x="1046.36" y="528.36" /></g><g id="tile_16x8"><rect fill="#ffffff" height="75.0" width="74.0" x="1110.0" y="518.0" /><rect fill="#ffffff" height="53.28" width="53.28" x="1120.36" y="528.36" /></g><g id="tile_1x9"><rect fill="#000000" height="75.0" width="75.0" x="0.0" y="592.0" /><rect fill="#000000" height="53.28" width="53.28" x="10.36" y="602.36" /></g><g id="tile_2x9"><rect fill="#000000" height="75.0" width="75.0" x="74.0" y="592.0" /><rect fill="#000000" height="53.28" width="53.28" x="84.36" y="602.36" /></g><g id="tile_3x9"><rect fill="#000000" height="75.0" width="75.0" x="148.0" y="592.0" /><rect fill="#000000" height="53.28" width="53.28" x="158.36" y="602.36" /></g><g id="tile_4x9"><rect fill="#000000" height="75.0" width="75.0" x="222.0" y="592.0" /><rect fill="#000000" height="53.28" width="53.28" x="232.36" y="602.36" /></g><g id="tile_5x9"><rect fill="#ffffff" height="75.0" width="75.0" x="296.0" y="592.0" /><circle cx="333.0" cy="629.0" fill="#ffffff" r="26.64" /></g><g id="tile_6x9"><rect fill="#ffffff" height="75.0" width="75.0" x="370.0" y="592.0" /><circle cx="407.0" cy="629.0" fill="#000000" r="26.64" /></g><g id="tile_7x9"><rect fill="#000000" height="75.0" width="75.0" x="444.0" y="592.0" /><circle cx="481.0" cy="629.0" fill="#ffffff" r="26.64" /></g><g id="tile_8x9"><rect fill="#ffffff" height="75.0" width="75.0" x="518.0" y="592.0" /><circle cx="555.0" cy="629.0" fill="#000000" r="26.64" /></g><g id="tile_9x9"><rect fill="#000000" height="75.0" width="75.0" x="592.0" y="592.0" /><rect fill="#ffffff" height="53.28" width="53.28" x="602.36" y="602.36" /></g><g id="tile_10x9"><rect fill="#ffffff" height="75.0" width="75.0" x="666.0" y="592.0" /><rect fill="#000000" height="53.28" width="53.28" x="676.36" y="602.36" /></g><g id="tile_11x9"><rect fill="#000000" height="75.0" width="75.0" x="740.0" y="592.0" /><rect fill="#ffffff" height="53.28" width="53.28" x="750.36" y="602.36" /></g><g id="tile_12x9"><rect fill="#000000" height="75.0" width="75.0" x="814.0" y="592.0" /><rect fill="#ffffff" height="53.28" width="53.28" x="824.36" y="602.36" /></g><g id="tile_13x9"><rect fill="#ffffff" height="75.0" width="75.0" x="888.0" y="592.0" /><circle cx="925.0" cy="629.0" fill="#ffffff" r="26.64" /></g><g id="tile_14x9"><rect fill="#ffffff" height="75.0" width="75.0" x="962.0" y="592.0" /><circle cx="999.0" cy="629.0" fill="#ffffff" r="26.64" /></g><g id="tile_15x9"><rect fill="#ffffff" height="75.0" width="75.0" x="1036.0" y="592.0" /><circle cx="1073.0" cy="629.0" fill="#ffffff" r="26.64" /></g><g id="tile_16x9"><rect fill="#ffffff" height="75.0" width="74.0" x="1110.0" y="592.0" /><circle cx="1147.0" cy="629.0" fill="#ffffff" r="26.64" /></g><g id="tile_1x10"><rect fill="#000000" height="75.0" width="75.0" x="0.0" y="666.0" /><rect fill="#000000" height="53.28" width="53.28" x="10.36" y="676.36" /></g><g id="tile_2x10"><rect fill="#000000" height="75.0" width="75.0" x="74.0" y="666.0" /><rect fill="#000000" height="53.28" width="53.28" x="84.36" y="676.36" /></g><g id="tile_3x10"><rect fill="#000000" height="75.0" width="75.0" x="148.0" y="666.0" /><rect fill="#000000" height="53.28" width="53.28" x="158.36" y="676.36" /></g><g id="tile_4x10"><rect fill="#000000" height="75.0" width="75.0" x="222.0" y="666.0" /><rect fill="#000000" height="53.28" width="53.28" x="232.36" y="676.36" /></g><g id="tile_5x10"><rect fill="#ffffff" height="75.0" width="75.0" x="296.0" y="666.0" /><circle cx="333.0" cy="703.0" fill="#ffffff" r="26.64" /></g><g id="tile_6x10"><rect fill="#ffffff" height="75.0" width="75.0" x="370.0" y="666.0" /><circle cx="407.0" cy="703.0" fill="#ffffff" r="26.64" /></g><g id="tile_7x10"><rect fill="#ffffff" height="75.0" width="75.0" x="444.0" y="666.0" /><circle cx="481.0" cy="703.0" fill="#ffffff" r="26.64" /></g><g id="tile_8x10"><rect fill="#000000" height="75.0" width="75.0" x="518.0" y="666.0" /><circle cx="555.0" cy="703.0" fill="#ffffff" r="26.64" /></g><g id="tile_9x10"><rect fill="#ffffff" height="75.0" width="75.0" x="592.0" y="666.0" /><rect fill="#000000" height="53.28" width="53.28" x="602.36" y="676.36" /></g><g id="tile_10x10"><rect fill="#000000" height="75.0" width="75.0" x="666.0" y="666.0" /><rect fill="#ffffff" height="53.28" width="53.28" x="676.36" y="676.36" /></g><g id="tile_11x10"><rect fill="#ffffff" height="75.0" width="75.0" x="740.0" y="666.0" /><rect fill="#000000" height="53.28" width="53.28" x="750.36" y="676.36" /></g><g id="tile_12x10"><rect fill="#000000" height="75.0" width="75.0" x="814.0" y="666.0" /><rect fill="#000000" height="53.28" width="53.28" x="824.36" y="676.36" /></g><g id="tile_13x10"><rect fill="#ffffff" height="75.0" width="75.0" x="888.0" y="666.0" /><circle cx="925.0" cy="703.0" fill="#ffffff" r="26.64" /></g><g id="tile_14x10"><rect fill="#ffffff" height="75.0" width="75.0" x="962.0" y="666.0" /><circle cx="999.0" cy="703.0" fill="#ffffff" r="26.64" /></g><g id="tile_15x10"><rect fill="#ffffff" height="75.0" width="75.0" x="1036.0" y="666.0" /><circle cx="1073.0" cy="703.0" fill="#ffffff" r="26.64" /></g><g id="tile_16x10"><rect fill="#ffffff" height="75.0" width="74.0" x="1110.0" y="666.0" /><circle cx="1147.0" cy="703.0" fill="#ffffff" r="26.64" /></g><g id="tile_1x11"><rect fill="#000000" height="75.0" width="75.0" x="0.0" y="740.0" /><rect fill="#000000" height="53.28" width="53.28" x="10.36" y="750.36" /></g><g id="tile_2x11"><rect fill="#000000" height="75.0" width="75.0" x="74.0" y="740.0" /><rect fill="#000000" height="53.28" width="53.28" x="84.36" y="750.36" /></g><g id="tile_3x11"><rect fill="#000000" height="75.0" width="75.0" x="148.0" y="740.0" /><rect fill="#000000" height="53.28" width="53.28" x="158.36" y="750.36" /></g><g id="tile_4x11"><rect fill="#000000" height="75.0" width="75.0" x="222.0" y="740.0" /><rect fill="#000000" height="53.28" width="53.28" x="232.36" y="750.36" /></g><g id="tile_5x11"><rect fill="#ffffff" height="75.0" width="75.0" x="296.0" y="740.0" /><circle cx="333.0" cy="777.0" fill="#ffffff" r="26.64" /></g><g id="tile_6x11"><rect fill="#ffffff" height="75.0" width="75.0" x="370.0" y="740.0" /><circle cx="407.0" cy="777.0" fill="#ffffff" r="26.64" /></g><g id="tile_7x11"><rect fill="#000000" height="75.0" width="75.0" x="444.0" y="740.0" /><circle cx="481.0" cy="777.0" fill="#ffffff" r="26.64" /></g><g id="tile_8x11"><rect fill="#ffffff" height="75.0" width="75.0" x="518.0" y="740.0" /><circle cx="555.0" cy="777.0" fill="#000000" r="26.64" /></g><g id="tile_9x11"><rect fill="#000000" height="75.0" width="75.0" x="592.0" y="740.0" /><rect fill="#ffffff" height="53.28" width="53.28" x="602.36" y="750.36" /></g><g id="tile_10x11"><rect fill="#ffffff" height="75.0" width="75.0" x="666.0" y="740.0" /><rect fill="#000000" height="53.28" width="53.28" x="676.36" y="750.36" /></g><g id="tile_11x11"><rect fill="#000000" height="75.0" width="75.0" x="740.0" y="740.0" /><rect fill="#ffffff" height="53.28" width="53.28" x="750.36" y="750.36" /></g><g id="tile_12x11"><rect fill="#000000" height="75.0" width="75.0" x="814.0" y="740.0" /><rect fill="#000000" height="53.28" width="53.28" x="824.36" y="750.36" /></g><g id="tile_13x11"><rect fill="#ffffff" height="75.0" width="75.0" x="888.0" y="740.0" /><circle cx="925.0" cy="777.0" fill="#ffffff" r="26.64" /></g><g id="tile_14x11"><rect fill="#ffffff" height="75.0" width="75.0" x="962.0" y="740.0" /><circle cx="999.0" cy="777.0" fill="#ffffff" r="26.64" /></g><g id="tile_15x11"><rect fill="#ffffff" height="75.0" width="75.0" x="1036.0" y="740.0" /><circle cx="1073.0" cy="777.0" fill="#ffffff" r="26.64" /></g><g id="tile_16x11"><rect fill="#ffffff" height="75.0" width="74.0" x="1110.0" y="740.0" /><circle cx="1147.0" cy="777.0" fill="#ffffff" r="26.64" /></g><g id="tile_1x12"><rect fill="#000000" height="75.0" width="75.0" x="0.0" y="814.0" /><rect fill="#000000" height="53.28" width="53.28" x="10.36" y="824.36" /></g><g id="tile_2x12"><rect fill="#000000" height="75.0" width="75.0" x="74.0" y="814.0" /><rect fill="#000000" height="53.28" width="53.28" x="84.36" y="824.36" /></g><g id="tile_3x12"><rect fill="#000000" height="75.0" width="75.0" x="148.0" y="814.0" /><rect fill="#000000" height="53.28" width="53.28" x="158.36" y="824.36" /></g><g id="tile_4x12"><rect fill="#000000" height="75.0" width="75.0" x="222.0" y="814.0" /><rect fill="#000000" height="53.28" width="53.28" x="232.36" y="824.36" /></g><g id="tile_5x12"><rect fill="#ffffff" height="75.0" width="75.0" x="296.0" y="814.0" /><circle cx="333.0" cy="851.0" fill="#ffffff" r="26.64" /></g><g id="tile_6x12"><rect fill="#ffffff" height="75.0" width="75.0" x="370.0" y="814.0" /><circle cx="407.0" cy="851.0" fill="#000000" r="26.64" /></g><g id="tile_7x12"><rect fill="#ffffff" height="75.0" width="75.0" x="444.0" y="814.0" /><circle cx="481.0" cy="851.0" fill="#000000" r="26.64" /></g><g id="tile_8x12"><rect fill="#000000" height="75.0" width="75.0" x="518.0" y="814.0" /><circle cx="555.0" cy="851.0" fill="#ffffff" r="26.64" /></g><g id="tile_9x12"><rect fill="#ffffff" height="75.0" width="75.0" x="592.0" y="814.0" /><rect fill="#000000" height="53.28" width="53.28" x="602.36" y="824.36" /></g><g id="tile_10x12"><rect fill="#000000" height="75.0" width="75.0" x="666.0" y="814.0" /><rect fill="#ffffff" height="53.28" width="53.28" x="676.36" y="824.36" /></g><g id="tile_11x12"><rect fill="#ffffff" height="75.0" width="75.0" x="740.0" y="814.0" /><rect fill="#000000" height="53.28" width="53.28" x="750.36" y="824.36" /></g><g id="tile_12x12"><rect fill="#000000" height="75.0" width="75.0" x="814.0" y="814.0" /><rect fill="#000000" height="53.28" width="53.28" x="824.36" y="824.36" /></g><g id="tile_13x12"><rect fill="#ffffff" height="75.0" width="75.0" x="888.0" y="814.0" /><circle cx="925.0" cy="851.0" fill="#ffffff" r="26.64" /></g><g id="tile_14x12"><rect fill="#ffffff" height="75.0" width="75.0" x="962.0" y="814.0" /><circle cx="999.0" cy="851.0" fill="#ffffff" r="26.64" /></g><g id="tile_15x12"><rect fill="#ffffff" height="75.0" width="75.0" x="1036.0" y="814.0" /><circle cx="1073.0" cy="851.0" fill="#ffffff" r="26.64" /></g><g id="tile_16x12"><rect fill="#ffffff" height="75.0" width="74.0" x="1110.0" y="814.0" /><circle cx="1147.0" cy="851.0" fill="#ffffff" r="26.64" /></g><g id="tile_1x13"><rect fill="#000000" height="75.0" width="75.0" x="0.0" y="888.0" /><rect fill="#000000" height="53.28" width="53.28" x="10.36" y="898.36" /></g><g id="tile_2x13"><rect fill="#000000" height="75.0" width="75.0" x="74.0" y="888.0" /><rect fill="#000000" height="53.28" width="53.28" x="84.36" y="898.36" /></g><g id="tile_3x13"><rect fill="#000000" height="75.0" width="75.0" x="148.0" y="888.0" /><rect fill="#000000" height="53.28" width="53.28" x="158.36" y="898.36" /></g><g id="tile_4x13"><rect fill="#000000" height="75.0" width="75.0" x="222.0" y="888.0" /><rect fill="#000000" height="53.28" width="53.28" x="232.36" y="898.36" /></g><g id="tile_5x13"><rect fill="#000000" height="75.0" width="75.0" x="296.0" y="888.0" /><rect fill="#000000" height="53.28" width="53.28" x="306.36" y="898.36" /></g><g id="tile_6x13"><rect fill="#000000" height="75.0" width="75.0" x="370.0" y="888.0" /><rect fill="#000000" height="53.28" width="53.28" x="380.36" y="898.36" /></g><g id="tile_7x13"><rect fill="#000000" height="75.0" width="75.0" x="444.0" y="888.0" /><rect fill="#ffffff" height="53.28" width="53.28" x="454.36" y="898.36" /></g><g id="tile_8x13"><rect fill="#ffffff" height="75.0" width="75.0" x="518.0" y="888.0" /><rect fill="#000000" height="53.28" width="53.28" x="528.36" y="898.36" /></g><g id="tile_9x13"><rect fill="#000000" height="75.0" width="75.0" x="592.0" y="888.0" /><circle cx="629.0" cy="925.0" fill="#ffffff" r="26.64" /></g><g id="tile_10x13"><rect fill="#ffffff" height="75.0" width="75.0" x="666.0" y="888.0" /><circle cx="703.0" cy="925.0" fill="#000000" r="26.64" /></g><g id="tile_11x13"><rect fill="#000000" height="75.0" width="75.0" x="740.0" y="888.0" /><circle cx="777.0" cy="925.0" fill="#ffffff" r="26.64" /></g><g id="tile_12x13"><rect fill="#ffffff" height="75.0" width="75.0" x="814.0" y="888.0" /><circle cx="851.0" cy="925.0" fill="#ffffff" r="26.64" /></g><g id="tile_13x13"><rect fill="#ffffff" height="75.0" width="75.0" x="888.0" y="888.0" /><circle cx="925.0" cy="925.0" fill="#ffffff" r="26.64" /></g><g id="tile_14x13"><rect fill="#ffffff" height="75.0" width="75.0" x="962.0" y="888.0" /><circle cx="999.0" cy="925.0" fill="#ffffff" r="26.64" /></g><g id="tile_15x13"><rect fill="#ffffff" height="75.0" width="75.0" x="1036.0" y="888.0" /><circle cx="1073.0" cy="925.0" fill="#ffffff" r="26.64" /></g><g id="tile_16x13"><rect fill="#ffffff" height="75.0" width="74.0" x="1110.0" y="888.0" /><circle cx="1147.0" cy="925.0" fill="#ffffff" r="26.64" /></g><g id="tile_1x14"><rect fill="#000000" height="75.0" width="75.0" x="0.0" y="962.0" /><rect fill="#000000" height="53.28" width="53.28" x="10.36" y="972.36" /></g><g id="tile_2x14"><rect fill="#000000" height="75.0" width="75.0" x="74.0" y="962.0" /><rect fill="#000000" height="53.28" width="53.28" x="84.36" y="972.36" /></g><g id="tile_3x14"><rect fill="#000000" height="75.0" width="75.0" x="148.0" y="962.0" /><rect fill="#000000" height="53.28" width="53.28" x="158.36" y="972.36" /></g><g id="tile_4x14"><rect fill="#000000" height="75.0" width="75.0" x="222.0" y="962.0" /><rect fill="#000000" height="53.28" width="53.28" x="232.36" y="972.36" /></g><g id="tile_5x14"><rect fill="#ffffff" height="75.0" width="75.0" x="296.0" y="962.0" /><rect fill="#000000" height="53.28" width="53.28" x="306.36" y="972.36" /></g><g id="tile_6x14"><rect fill="#000000" height="75.0" width="75.0" x="370.0" y="962.0" /><rect fill="#000000" height="53.28" width="53.28" x="380.36" y="972.36" /></g><g id="tile_7x14"><rect fill="#ffffff" height="75.0" width="75.0" x="444.0" y="962.0" /><rect fill="#000000" height="53.28" width="53.28" x="454.36" y="972.36" /></g><g id="tile_8x14"><rect fill="#000000" height="75.0" width="75.0" x="518.0" y="962.0" /><rect fill="#ffffff" height="53.28" width="53.28" x="528.36" y="972.36" /></g><g id="tile_9x14"><rect fill="#ffffff" height="75.0" width="75.0" x="592.0" y="962.0" /><circle cx="629.0" cy="999.0" fill="#000000" r="26.64" /></g><g id="tile_10x14"><rect fill="#000000" height="75.0" width="75.0" x="666.0" y="962.0" /><circle cx="703.0" cy="999.0" fill="#ffffff" r="26.64" /></g><g id="tile_11x14"><rect fill="#ffffff" height="75.0" width="75.0" x="740.0" y="962.0" /><circle cx="777.0" cy="999.0" fill="#000000" r="26.64" /></g><g id="tile_12x14"><rect fill="#000000" height="75.0" width="75.0" x="814.0" y="962.0" /><circle cx="851.0" cy="999.0" fill="#ffffff" r="26.64" /></g><g id="tile_13x14"><rect fill="#ffffff" height="75.0" width="75.0" x="888.0" y="962.0" /><circle cx="925.0" cy="999.0" fill="#ffffff" r="26.64" /></g><g id="tile_14x14"><rect fill="#ffffff" height="75.0" width="75.0" x="962.0" y="962.0" /><circle cx="999.0" cy="999.0" fill="#ffffff" r="26.64" /></g><g id="tile_15x14"><rect fill="#ffffff" height="75.0" width="75.0" x="1036.0" y="962.0" /><circle cx="1073.0" cy="999.0" fill="#ffffff" r="26.64" /></g><g id="tile_16x14"><rect fill="#ffffff" height="75.0" width="74.0" x="1110.0" y="962.0" /><circle cx="1147.0" cy="999.0" fill="#ffffff" r="26.64" /></g><g id="tile_1x15"><rect fill="#000000" height="75.0" width="75.0" x="0.0" y="1036.0" /><rect fill="#000000" height="53.28" width="53.28" x="10.36" y="1046.36" /></g><g id="tile_2x15"><rect fill="#000000" height="75.0" width="75.0" x="74.0" y="1036.0" /><rect fill="#000000" height="53.28" width="53.28" x="84.36" y="1046.36" /></g><g id="tile_3x15"><rect fill="#000000" height="75.0" width="75.0" x="148.0" y="1036.0" /><rect fill="#000000" height="53.28" width="53.28" x="158.36" y="1046.36" /></g><g id="tile_4x15"><rect fill="#000000" height="75.0" width="75.0" x="222.0" y="1036.0" /><rect fill="#000000" height="53.28" width="53.28" x="232.36" y="1046.36" /></g><g id="tile_5x15"><rect fill="#000000" height="75.0" width="75.0" x="296.0" y="1036.0" /><rect fill="#000000" height="53.28" width="53.28" x="306.36" y="1046.36" /></g><g id="tile_6x15"><rect fill="#000000" height="75.0" width="75.0" x="370.0" y="1036.0" /><rect fill="#ffffff" height="53.28" width="53.28" x="380.36" y="1046.36" /></g><g id="tile_7x15"><rect fill="#000000" height="75.0" width="75.0" x="444.0" y="1036.0" /><rect fill="#ffffff" height="53.28" width="53.28" x="454.36" y="1046.36" /></g><g id="tile_8x15"><rect fill="#ffffff" height="75.0" width="75.0" x="518.0" y="1036.0" /><rect fill="#000000" height="53.28" width="53.28" x="528.36" y="1046.36" /></g><g id="tile_9x15"><rect fill="#000000" height="75.0" width="75.0" x="592.0" y="1036.0" /><circle cx="629.0" cy="1073.0" fill="#ffffff" r="26.64" /></g><g id="tile_10x15"><rect fill="#ffffff" height="75.0" width="75.0" x="666.0" y="1036.0" /><circle cx="703.0" cy="1073.0" fill="#000000" r="26.64" /></g><g id="tile_11x15"><rect fill="#000000" height="75.0" width="75.0" x="740.0" y="1036.0" /><circle cx="777.0" cy="1073.0" fill="#ffffff" r="26.64" /></g><g id="tile_12x15"><rect fill="#ffffff" height="75.0" width="75.0" x="814.0" y="1036.0" /><circle cx="851.0" cy="1073.0" fill="#ffffff" r="26.64" /></g><g id="tile_13x15"><rect fill="#ffffff" height="75.0" width="75.0" x="888.0" y="1036.0" /><circle cx="925.0" cy="1073.0" fill="#ffffff" r="26.64" /></g><g id="tile_14x15"><rect fill="#ffffff" height="75.0" width="75.0" x="962.0" y="1036.0" /><circle cx="999.0" cy="1073.0" fill="#ffffff" r="26.64" /></g><g id="tile_15x15"><rect fill="#ffffff" height="75.0" width="75.0" x="1036.0" y="1036.0" /><circle cx="1073.0" cy="1073.0" fill="#ffffff" r="26.64" /></g><g id="tile_16x15"><rect fill="#ffffff" height="75.0" width="74.0" x="1110.0" y="1036.0" /><circle cx="1147.0" cy="1073.0" fill="#ffffff" r="26.64" /></g><g id="tile_1x16"><rect fill="#000000" height="74.0" width="75.0" x="0.0" y="1110.0" /><rect fill="#000000" height="53.28" width="53.28" x="10.36" y="1120.36" /></g><g id="tile_2x16"><rect fill="#000000" height="74.0" width="75.0" x="74.0" y="1110.0" /><rect fill="#000000" height="53.28" width="53.28" x="84.36" y="1120.36" /></g><g id="tile_3x16"><rect fill="#000000" height="74.0" width="75.0" x="148.0" y="1110.0" /><rect fill="#000000" height="53.28" width="53.28" x="158.36" y="1120.36" /></g><g id="tile_4x16"><rect fill="#000000" height="74.0" width="75.0" x="222.0" y="1110.0" /><rect fill="#000000" height="53.28" width="53.28" x="232.36" y="1120.36" /></g><g id="tile_5x16"><rect fill="#000000" height="74.0" width="75.0" x="296.0" y="1110.0" /><rect fill="#000000" height="53.28" width="53.28" x="306.36" y="1120.36" /></g><g id="tile_6x16"><rect fill="#000000" height="74.0" width="75.0" x="370.0" y="1110.0" /><rect fill="#000000" height="53.28" width="53.28" x="380.36" y="1120.36" /></g><g id="tile_7x16"><rect fill="#ffffff" height="74.0" width="75.0" x="444.0" y="1110.0" /><rect fill="#000000" height="53.28" width="53.28" x="454.36" y="1120.36" /></g><g id="tile_8x16"><rect fill="#000000" height="74.0" width="75.0" x="518.0" y="1110.0" /><rect fill="#ffffff" height="53.28" width="53.28" x="528.36" y="1120.36" /></g><g id="tile_9x16"><rect fill="#ffffff" height="74.0" width="75.0" x="592.0" y="1110.0" /><circle cx="629.0" cy="1147.0" fill="#000000" r="26.64" /></g><g id="tile_10x16"><rect fill="#000000" height="74.0" width="75.0" x="666.0" y="1110.0" /><circle cx="703.0" cy="1147.0" fill="#ffffff" r="26.64" /></g><g id="tile_11x16"><rect fill="#ffffff" height="74.0" width="75.0" x="740.0" y="1110.0" /><circle cx="777.0" cy="1147.0" fill="#000000" r="26.64" /></g><g id="tile_12x16"><rect fill="#000000" height="74.0" width="75.0" x="814.0" y="1110.0" /><circle cx="851.0" cy="1147.0" fill="#ffffff" r="26.64" /></g><g id="tile_13x16"><rect fill="#ffffff" height="74.0" width="75.0" x="888.0" y="1110.0" /><circle cx="925.0" cy="1147.0" fill="#ffffff" r="26.64" /></g><g id="tile_14x16"><rect fill="#ffffff" height="74.0" width="75.0" x="962.0" y="1110.0" /><circle cx="999.0" cy="1147.0" fill="#ffffff" r="26.64" /></g><g id="tile_15x16"><rect fill="#ffffff" height="74.0" width="75.0" x="1036.0" y="1110.0" /><circle cx="1073.0" cy="1147.0" fill="#ffffff" r="26.64" /></g><g id="tile_16x16"><rect fill="#ffffff" height="74.0" width="74.0" x="1110.0" y="1110.0" /><circle cx="1147.0" cy="1147.0" fill="#ffffff" r="26.64" /></g></svg>
