<svg height="220" viewBox="0 0 370 370" width="220" xmlns="http://www.w3.org/2000/svg"><title>A Teocuitlatl Artwork</title><g id="tile_1x1"><rect fill="#efba1f" height="75.0" width="75.0" x="0.0" y="0.0" /><circle cx="37.0" cy="37.0" fill="#ffffff" r="26.64" /></g><g id="tile_2x1"><rect fill="#eb5575" height="75.0" width="75.0" x="74.0" y="0.0" /><circle cx="111.0" cy="37.0" fill="#ffffff" r="26.64" /></g><g id="tile_3x1"><rect fill="#000000" height="75.0" width="75.0" x="148.0" y="0.0" /><circle cx="185.0" cy="37.0" fill="#efba1f" r="26.64" /></g><g id="tile_4x1"><rect fill="#05aeb0" height="75.0" width="75.0" x="222.0" y="0.0" /><circle cx="259.0" cy="37.0" fill="#000000" r="26.64" /></g><g id="tile_5x1"><rect fill="#eb5575" height="75.0" width="74.0" x="296.0" y="0.0" /><circle cx="333.0" cy="37.0" fill="#efba1f" r="26.64" /></g><g id="tile_1x2"><rect fill="#ffffff" height="75.0" width="75.0" x="0.0" y="74.0" /><circle cx="37.0" cy="111.0" fill="#eb5575" r="26.64" /></g><g id="tile_2x2"><rect fill="#efba1f" height="75.0" width="75.0" x="74.0" y="74.0" /><circle cx="111.0" cy="111.0" fill="#eb5575" r="26.64" /></g><g id="tile_3x2"><rect fill="#05aeb0" height="75.0" width="75.0" x="148.0" y="74.0" /><circle cx="185.0" cy="111.0" fill="#efba1f" r="26.64" /></g><g id="tile_4x2"><rect fill="#ffffff" height="75.0" width="75.0" x="222.0" y="74.0" /><circle cx="259.0" cy="111.0" fill="#eb5575" r="26.64" /></g><g id="tile_5x2"><rect fill="#000000" height="75.0" width="74.0" x="296.0" y="74.0" /><circle cx="333.0" cy="111.0" fill="#eb5575" r="26.64" /></g><g id="tile_1x3"><rect fill="#efba1f" height="75.0" width="75.0" x="0.0" y="148.0" /><circle cx="37.0" cy="185.0" fill="#eb5575" r="26.64" /></g><g id="tile_2x3"><rect fill="#ffffff" height="75.0" width="75.0" x="74.0" y="148.0" /><circle cx="111.0" cy="185.0" fill="#eb5575" r="26.64" /></g><g id="tile_3x3"><rect fill="#efba1f" height="75.0" width="75.0" x="148.0" y="148.0" /><circle cx="185.0" cy="185.0" fill="#05aeb0" r="26.64" /></g><g id="tile_4x3"><rect fill="#eb5575" height="75.0" width="75.0" x="222.0" y="148.0" /><circle cx="259.0" cy="185.0" fill="#05aeb0" r="26.64" /></g><g id="tile_5x3"><rect fill="#ffffff" height="75.0" width="74.0" x="296.0" y="148.0" /><circle cx="333.0" cy="185.0" fill="#000000" r="26.64" /></g><g id="tile_1x4"><rect fill="#000000" height="75.0" width="75.0" x="0.0" y="222.0" /><circle cx="37.0" cy="259.0" fill="#ffffff" r="26.64" /></g><g id="tile_2x4"><rect fill="#eb5575" height="75.0" width="75.0" x="74.0" y="222.0" /><circle cx="111.0" cy="259.0" fill="#efba1f" r="26.64" /></g><g id="tile_3x4"><rect fill="#000000" height="75.0" width="75.0" x="148.0" y="222.0" /><circle cx="185.0" cy="259.0" fill="#eb5575" r="26.64" /></g><g id="tile_4x4"><rect fill="#05aeb0" height="75.0" width="75.0" x="222.0" y="222.0" /><circle cx="259.0" cy="259.0" fill="#efba1f" r="26.64" /></g><g id="tile_5x4"><rect fill="#000000" height="75.0" width="74.0" x="296.0" y="222.0" /><circle cx="333.0" cy="259.0" fill="#ffffff" r="26.64" /></g><g id="tile_1x5"><rect fill="#05aeb0" height="74.0" width="75.0" x="0.0" y="296.0" /><circle cx="37.0" cy="333.0" fill="#efba1f" r="26.64" /></g><g id="tile_2x5"><rect fill="#efba1f" height="74.0" width="75.0" x="74.0" y="296.0" /><circle cx="111.0" cy="333.0" fill="#000000" r="26.64" /></g><g id="tile_3x5"><rect fill="#eb5575" height="74.0" width="75.0" x="148.0" y="296.0" /><circle cx="185.0" cy="333.0" fill="#000000" r="26.64" /></g><g id="tile_4x5"><rect fill="#efba1f" height="74.0" width="75.0" x="222.0" y="296.0" /><circle cx="259.0" cy="333.0" fill="#05aeb0" r="26.64" /></g><g id="tile_5x5"><rect fill="#05aeb0" height="74.0" width="74.0" x="296.0" y="296.0" /><circle cx="333.0" cy="333.0" fill="#000000" r="26.64" /></g></svg>
