<svg height="220" viewBox="0 0 180 180" width="220" xmlns="http://www.w3.org/2000/svg"><title>A Temo Artwork</title><g id="goto10" stroke-linecap="round" stroke-width="1.0"><line id="line-1x1" stroke="#cc65ca" x1="20.0" x2="30.0" y1="20.0" y2="30.0" /><line id="line-2x1" stroke="#cc65c7" x1="30.0" x2="40.0" y1="20.0" y2="30.0" /><line id="line-3x1" stroke="#cc65c3" x1="40.0" x2="50.0" y1="20.0" y2="30.0" /><line id="line-4x1" stroke="#cc65c0" x1="50.0" x2="60.0" y1="20.0" y2="30.0" /><line id="line-5x1" stroke="#cc65bd" x1="70.0" x2="60.0" y1="20.0" y2="30.0" /><line id="line-6x1" stroke="#cc65b9" x1="80.0" x2="70.0" y1="20.0" y2="30.0" /><line id="line-7x1" stroke="#cc65b6" x1="80.0" x2="90.0" y1="20.0" y2="30.0" /><line id="line-8x1" stroke="#cc65b2" x1="90.0" x2="100.0" y1="20.0" y2="30.0" /><line id="line-9x1" stroke="#cc65af" x1="100.0" x2="110.0" y1="20.0" y2="30.0" /><line id="line-10x1" stroke="#cc65ac" x1="120.0" x2="110.0" y1="20.0" y2="30.0" /><line id="line-11x1" stroke="#cc65a8" x1="130.0" x2="120.0" y1="20.0" y2="30.0" /><line id="line-12x1" stroke="#cc65a5" x1="130.0" x2="140.0" y1="20.0" y2="30.0" /><line id="line-13x1" stroke="#cc65a1" x1="150.0" x2="140.0" y1="20.0" y2="30.0" /><line id="line-14x1" stroke="#cc659e" x1="150.0" x2="160.0" y1="20.0" y2="30.0" /><line id="line-1x2" stroke="#cc659b" x1="20.0" x2="30.0" y1="30.0" y2="40.0" /><line id="line-2x2" stroke="#cc65b1" x1="30.0" x2="40.0" y1="30.0" y2="40.0" /><line id="line-3x2" stroke="#cc65aa" x1="50.0" x2="40.0" y1="30.0" y2="40.0" /><line id="line-4x2" stroke="#cc65aa" x1="50.0" x2="60.0" y1="30.0" y2="40.0" /><line id="line-5x2" stroke="#cc65be" x1="60.0" x2="70.0" y1="30.0" y2="40.0" /><line id="line-6x2" stroke="#cc6597" x1="80.0" x2="70.0" y1="30.0" y2="40.0" /><line id="line-7x2" stroke="#cc6594" x1="80.0" x2="90.0" y1="30.0" y2="40.0" /><line id="line-8x2" stroke="#cc659c" x1="90.0" x2="100.0" y1="30.0" y2="40.0" /><line id="line-9x2" stroke="#cc6599" x1="100.0" x2="110.0" y1="30.0" y2="40.0" /><line id="line-10x2" stroke="#cc65ad" x1="110.0" x2="120.0" y1="30.0" y2="40.0" /><line id="line-11x2" stroke="#cc658f" x1="120.0" x2="130.0" y1="30.0" y2="40.0" /><line id="line-12x2" stroke="#cc6590" x1="130.0" x2="140.0" y1="30.0" y2="40.0" /><line id="line-13x2" stroke="#cc658d" x1="150.0" x2="140.0" y1="30.0" y2="40.0" /><line id="line-14x2" stroke="#cc6584" x1="160.0" x2="150.0" y1="30.0" y2="40.0" /><line id="line-1x3" stroke="#cc6581" x1="30.0" x2="20.0" y1="40.0" y2="50.0" /><line id="line-2x3" stroke="#cc6581" x1="30.0" x2="40.0" y1="40.0" y2="50.0" /><line id="line-3x3" stroke="#cc658a" x1="50.0" x2="40.0" y1="40.0" y2="50.0" /><line id="line-4x3" stroke="#cc6590" x1="60.0" x2="50.0" y1="40.0" y2="50.0" /><line id="line-5x3" stroke="#cc6590" x1="60.0" x2="70.0" y1="40.0" y2="50.0" /><line id="line-6x3" stroke="#cc65ab" x1="70.0" x2="80.0" y1="40.0" y2="50.0" /><line id="line-7x3" stroke="#cc657a" x1="90.0" x2="80.0" y1="40.0" y2="50.0" /><line id="line-8x3" stroke="#cc6583" x1="100.0" x2="90.0" y1="40.0" y2="50.0" /><line id="line-9x3" stroke="#cc6583" x1="100.0" x2="110.0" y1="40.0" y2="50.0" /><line id="line-10x3" stroke="#cc657f" x1="110.0" x2="120.0" y1="40.0" y2="50.0" /><line id="line-11x3" stroke="#cc6575" x1="130.0" x2="120.0" y1="40.0" y2="50.0" /><line id="line-12x3" stroke="#cc658f" x1="140.0" x2="130.0" y1="40.0" y2="50.0" /><line id="line-13x3" stroke="#cc658f" x1="140.0" x2="150.0" y1="40.0" y2="50.0" /><line id="line-14x3" stroke="#cc656b" x1="150.0" x2="160.0" y1="40.0" y2="50.0" /><line id="line-1x4" stroke="#cc6568" x1="20.0" x2="30.0" y1="50.0" y2="60.0" /><line id="line-2x4" stroke="#cc6585" x1="40.0" x2="30.0" y1="50.0" y2="60.0" /><line id="line-3x4" stroke="#cc6577" x1="50.0" x2="40.0" y1="50.0" y2="60.0" /><line id="line-4x4" stroke="#cc6577" x1="50.0" x2="60.0" y1="50.0" y2="60.0" /><line id="line-5x4" stroke="#cc6577" x1="70.0" x2="60.0" y1="50.0" y2="60.0" /><line id="line-6x4" stroke="#cc6577" x1="70.0" x2="80.0" y1="50.0" y2="60.0" /><line id="line-7x4" stroke="#cc6569" x1="90.0" x2="80.0" y1="50.0" y2="60.0" /><line id="line-8x4" stroke="#cc6586" x1="100.0" x2="90.0" y1="50.0" y2="60.0" /><line id="line-9x4" stroke="#cc6583" x1="100.0" x2="110.0" y1="50.0" y2="60.0" /><line id="line-10x4" stroke="#cc6569" x1="110.0" x2="120.0" y1="50.0" y2="60.0" /><line id="line-11x4" stroke="#cc657a" x1="120.0" x2="130.0" y1="50.0" y2="60.0" /><line id="line-12x4" stroke="#cc6575" x1="130.0" x2="140.0" y1="50.0" y2="60.0" /><line id="line-13x4" stroke="#cc657f" x1="140.0" x2="150.0" y1="50.0" y2="60.0" /><line id="line-14x4" stroke="#cc7a65" x1="160.0" x2="150.0" y1="50.0" y2="60.0" /><line id="line-1x5" stroke="#cc6576" x1="30.0" x2="20.0" y1="60.0" y2="70.0" /><line id="line-2x5" stroke="#cc6576" x1="30.0" x2="40.0" y1="60.0" y2="70.0" /><line id="line-3x5" stroke="#cc6e65" x1="40.0" x2="50.0" y1="60.0" y2="70.0" /><line id="line-4x5" stroke="#cc657c" x1="50.0" x2="60.0" y1="60.0" y2="70.0" /><line id="line-5x5" stroke="#cc6577" x1="60.0" x2="70.0" y1="60.0" y2="70.0" /><line id="line-6x5" stroke="#cc6570" x1="80.0" x2="70.0" y1="60.0" y2="70.0" /><line id="line-7x5" stroke="#cc656d" x1="90.0" x2="80.0" y1="60.0" y2="70.0" /><line id="line-8x5" stroke="#cc6579" x1="100.0" x2="90.0" y1="60.0" y2="70.0" /><line id="line-9x5" stroke="#cc6575" x1="100.0" x2="110.0" y1="60.0" y2="70.0" /><line id="line-10x5" stroke="#cc7b65" x1="120.0" x2="110.0" y1="60.0" y2="70.0" /><line id="line-11x5" stroke="#cc7b65" x1="120.0" x2="130.0" y1="60.0" y2="70.0" /><line id="line-12x5" stroke="#cc6a65" x1="130.0" x2="140.0" y1="60.0" y2="70.0" /><line id="line-13x5" stroke="#cc6568" x1="150.0" x2="140.0" y1="60.0" y2="70.0" /><line id="line-14x5" stroke="#cc6572" x1="160.0" x2="150.0" y1="60.0" y2="70.0" /><line id="line-1x6" stroke="#cc6e65" x1="20.0" x2="30.0" y1="70.0" y2="80.0" /><line id="line-2x6" stroke="#cc656e" x1="30.0" x2="40.0" y1="70.0" y2="80.0" /><line id="line-3x6" stroke="#cc6e65" x1="40.0" x2="50.0" y1="70.0" y2="80.0" /><line id="line-4x6" stroke="#cc8765" x1="50.0" x2="60.0" y1="70.0" y2="80.0" /><line id="line-5x6" stroke="#cc6573" x1="70.0" x2="60.0" y1="70.0" y2="80.0" /><line id="line-6x6" stroke="#cc7865" x1="80.0" x2="70.0" y1="70.0" y2="80.0" /><line id="line-7x6" stroke="#cc6c65" x1="90.0" x2="80.0" y1="70.0" y2="80.0" /><line id="line-8x6" stroke="#cc656b" x1="100.0" x2="90.0" y1="70.0" y2="80.0" /><line id="line-9x6" stroke="#cc6965" x1="110.0" x2="100.0" y1="70.0" y2="80.0" /><line id="line-10x6" stroke="#cc6568" x1="120.0" x2="110.0" y1="70.0" y2="80.0" /><line id="line-11x6" stroke="#cc6765" x1="120.0" x2="130.0" y1="70.0" y2="80.0" /><line id="line-12x6" stroke="#cc6665" x1="140.0" x2="130.0" y1="70.0" y2="80.0" /><line id="line-13x6" stroke="#cc7365" x1="150.0" x2="140.0" y1="70.0" y2="80.0" /><line id="line-14x6" stroke="#cc6a65" x1="160.0" x2="150.0" y1="70.0" y2="80.0" /><line id="line-1x7" stroke="#cc6e65" x1="20.0" x2="30.0" y1="80.0" y2="90.0" /><line id="line-2x7" stroke="#cc8865" x1="30.0" x2="40.0" y1="80.0" y2="90.0" /><line id="line-3x7" stroke="#cc7665" x1="40.0" x2="50.0" y1="80.0" y2="90.0" /><line id="line-4x7" stroke="#cc8865" x1="50.0" x2="60.0" y1="80.0" y2="90.0" /><line id="line-5x7" stroke="#cc6f65" x1="60.0" x2="70.0" y1="80.0" y2="90.0" /><line id="line-6x7" stroke="#cc9165" x1="70.0" x2="80.0" y1="80.0" y2="90.0" /><line id="line-7x7" stroke="#cc8565" x1="80.0" x2="90.0" y1="80.0" y2="90.0" /><line id="line-8x7" stroke="#cc8265" x1="100.0" x2="90.0" y1="80.0" y2="90.0" /><line id="line-9x7" stroke="#cc7d65" x1="110.0" x2="100.0" y1="80.0" y2="90.0" /><line id="line-10x7" stroke="#cc7d65" x1="110.0" x2="120.0" y1="80.0" y2="90.0" /><line id="line-11x7" stroke="#cc6765" x1="130.0" x2="120.0" y1="80.0" y2="90.0" /><line id="line-12x7" stroke="#cc8c65" x1="140.0" x2="130.0" y1="80.0" y2="90.0" /><line id="line-13x7" stroke="#cc8c65" x1="140.0" x2="150.0" y1="80.0" y2="90.0" /><line id="line-14x7" stroke="#cc7165" x1="160.0" x2="150.0" y1="80.0" y2="90.0" /><line id="line-1x8" stroke="#cc7465" x1="20.0" x2="30.0" y1="90.0" y2="100.0" /><line id="line-2x8" stroke="#cca165" x1="40.0" x2="30.0" y1="90.0" y2="100.0" /><line id="line-3x8" stroke="#cca165" x1="40.0" x2="50.0" y1="90.0" y2="100.0" /><line id="line-4x8" stroke="#cca165" x1="60.0" x2="50.0" y1="90.0" y2="100.0" /><line id="line-5x8" stroke="#cc8965" x1="70.0" x2="60.0" y1="90.0" y2="100.0" /><line id="line-6x8" stroke="#cc8965" x1="70.0" x2="80.0" y1="90.0" y2="100.0" /><line id="line-7x8" stroke="#cc8465" x1="90.0" x2="80.0" y1="90.0" y2="100.0" /><line id="line-8x8" stroke="#cc8465" x1="90.0" x2="100.0" y1="90.0" y2="100.0" /><line id="line-9x8" stroke="#cc7865" x1="110.0" x2="100.0" y1="90.0" y2="100.0" /><line id="line-10x8" stroke="#cc7b65" x1="110.0" x2="120.0" y1="90.0" y2="100.0" /><line id="line-11x8" stroke="#cc7265" x1="120.0" x2="130.0" y1="90.0" y2="100.0" /><line id="line-12x8" stroke="#cca665" x1="130.0" x2="140.0" y1="90.0" y2="100.0" /><line id="line-13x8" stroke="#cc7f65" x1="140.0" x2="150.0" y1="90.0" y2="100.0" /><line id="line-14x8" stroke="#cc7f65" x1="150.0" x2="160.0" y1="90.0" y2="100.0" /><line id="line-1x9" stroke="#cc8265" x1="20.0" x2="30.0" y1="100.0" y2="110.0" /><line id="line-2x9" stroke="#cc8565" x1="40.0" x2="30.0" y1="100.0" y2="110.0" /><line id="line-3x9" stroke="#cca165" x1="50.0" x2="40.0" y1="100.0" y2="110.0" /><line id="line-4x9" stroke="#cca265" x1="60.0" x2="50.0" y1="100.0" y2="110.0" /><line id="line-5x9" stroke="#cc8965" x1="70.0" x2="60.0" y1="100.0" y2="110.0" /><line id="line-6x9" stroke="#cc8c65" x1="70.0" x2="80.0" y1="100.0" y2="110.0" /><line id="line-7x9" stroke="#cc9065" x1="90.0" x2="80.0" y1="100.0" y2="110.0" /><line id="line-8x9" stroke="#cc7e65" x1="100.0" x2="90.0" y1="100.0" y2="110.0" /><line id="line-9x9" stroke="#cc7e65" x1="100.0" x2="110.0" y1="100.0" y2="110.0" /><line id="line-10x9" stroke="#cc9565" x1="120.0" x2="110.0" y1="100.0" y2="110.0" /><line id="line-11x9" stroke="#cc9565" x1="120.0" x2="130.0" y1="100.0" y2="110.0" /><line id="line-12x9" stroke="#ccbf65" x1="140.0" x2="130.0" y1="100.0" y2="110.0" /><line id="line-13x9" stroke="#cc9865" x1="150.0" x2="140.0" y1="100.0" y2="110.0" /><line id="line-14x9" stroke="#cc9865" x1="160.0" x2="150.0" y1="100.0" y2="110.0" /><line id="line-1x10" stroke="#cc9365" x1="20.0" x2="30.0" y1="110.0" y2="120.0" /><line id="line-2x10" stroke="#ccbb65" x1="40.0" x2="30.0" y1="110.0" y2="120.0" /><line id="line-3x10" stroke="#ccbb65" x1="40.0" x2="50.0" y1="110.0" y2="120.0" /><line id="line-4x10" stroke="#cca265" x1="60.0" x2="50.0" y1="110.0" y2="120.0" /><line id="line-5x10" stroke="#cc9665" x1="70.0" x2="60.0" y1="110.0" y2="120.0" /><line id="line-6x10" stroke="#cc9a65" x1="70.0" x2="80.0" y1="110.0" y2="120.0" /><line id="line-7x10" stroke="#cc8e65" x1="80.0" x2="90.0" y1="110.0" y2="120.0" /><line id="line-8x10" stroke="#cc9d65" x1="100.0" x2="90.0" y1="110.0" y2="120.0" /><line id="line-9x10" stroke="#cca165" x1="100.0" x2="110.0" y1="110.0" y2="120.0" /><line id="line-10x10" stroke="#cc8965" x1="110.0" x2="120.0" y1="110.0" y2="120.0" /><line id="line-11x10" stroke="#cca465" x1="120.0" x2="130.0" y1="110.0" y2="120.0" /><line id="line-12x10" stroke="#ccaa65" x1="130.0" x2="140.0" y1="110.0" y2="120.0" /><line id="line-13x10" stroke="#ccb265" x1="140.0" x2="150.0" y1="110.0" y2="120.0" /><line id="line-14x10" stroke="#cca765" x1="160.0" x2="150.0" y1="110.0" y2="120.0" /><line id="line-1x11" stroke="#ccab65" x1="20.0" x2="30.0" y1="120.0" y2="130.0" /><line id="line-2x11" stroke="#cca765" x1="30.0" x2="40.0" y1="120.0" y2="130.0" /><line id="line-3x11" stroke="#ccae65" x1="50.0" x2="40.0" y1="120.0" y2="130.0" /><line id="line-4x11" stroke="#ccb065" x1="60.0" x2="50.0" y1="120.0" y2="130.0" /><line id="line-5x11" stroke="#ccb065" x1="60.0" x2="70.0" y1="120.0" y2="130.0" /><line id="line-6x11" stroke="#ccb365" x1="80.0" x2="70.0" y1="120.0" y2="130.0" /><line id="line-7x11" stroke="#ccb365" x1="80.0" x2="90.0" y1="120.0" y2="130.0" /><line id="line-8x11" stroke="#ccae65" x1="100.0" x2="90.0" y1="120.0" y2="130.0" /><line id="line-9x11" stroke="#ccba65" x1="110.0" x2="100.0" y1="120.0" y2="130.0" /><line id="line-10x11" stroke="#cca365" x1="120.0" x2="110.0" y1="120.0" y2="130.0" /><line id="line-11x11" stroke="#cca365" x1="120.0" x2="130.0" y1="120.0" y2="130.0" /><line id="line-12x11" stroke="#ccbe65" x1="130.0" x2="140.0" y1="120.0" y2="130.0" /><line id="line-13x11" stroke="#ccc365" x1="140.0" x2="150.0" y1="120.0" y2="130.0" /><line id="line-14x11" stroke="#ccb265" x1="160.0" x2="150.0" y1="120.0" y2="130.0" /><line id="line-1x12" stroke="#ccc465" x1="30.0" x2="20.0" y1="130.0" y2="140.0" /><line id="line-2x12" stroke="#ccab65" x1="40.0" x2="30.0" y1="130.0" y2="140.0" /><line id="line-3x12" stroke="#ccab65" x1="40.0" x2="50.0" y1="130.0" y2="140.0" /><line id="line-4x12" stroke="#ccc965" x1="50.0" x2="60.0" y1="130.0" y2="140.0" /><line id="line-5x12" stroke="#ccb265" x1="70.0" x2="60.0" y1="130.0" y2="140.0" /><line id="line-6x12" stroke="#ccb565" x1="80.0" x2="70.0" y1="130.0" y2="140.0" /><line id="line-7x12" stroke="#ccb865" x1="80.0" x2="90.0" y1="130.0" y2="140.0" /><line id="line-8x12" stroke="#ccb165" x1="90.0" x2="100.0" y1="130.0" y2="140.0" /><line id="line-9x12" stroke="#c3cc65" x1="100.0" x2="110.0" y1="130.0" y2="140.0" /><line id="line-10x12" stroke="#ccbc65" x1="120.0" x2="110.0" y1="130.0" y2="140.0" /><line id="line-11x12" stroke="#ccbc65" x1="130.0" x2="120.0" y1="130.0" y2="140.0" /><line id="line-12x12" stroke="#ccbc65" x1="130.0" x2="140.0" y1="130.0" y2="140.0" /><line id="line-13x12" stroke="#c0cc65" x1="140.0" x2="150.0" y1="130.0" y2="140.0" /><line id="line-14x12" stroke="#ccbf65" x1="160.0" x2="150.0" y1="130.0" y2="140.0" /><line id="line-1x13" stroke="#ccc465" x1="30.0" x2="20.0" y1="140.0" y2="150.0" /><line id="line-2x13" stroke="#ccc465" x1="30.0" x2="40.0" y1="140.0" y2="150.0" /><line id="line-3x13" stroke="#ccc365" x1="40.0" x2="50.0" y1="140.0" y2="150.0" /><line id="line-4x13" stroke="#ccbe65" x1="60.0" x2="50.0" y1="140.0" y2="150.0" /><line id="line-5x13" stroke="#c8cc65" x1="70.0" x2="60.0" y1="140.0" y2="150.0" /><line id="line-6x13" stroke="#c8cc65" x1="70.0" x2="80.0" y1="140.0" y2="150.0" /><line id="line-7x13" stroke="#ccc665" x1="80.0" x2="90.0" y1="140.0" y2="150.0" /><line id="line-8x13" stroke="#ccca65" x1="100.0" x2="90.0" y1="140.0" y2="150.0" /><line id="line-9x13" stroke="#ccca65" x1="100.0" x2="110.0" y1="140.0" y2="150.0" /><line id="line-10x13" stroke="#ccc865" x1="110.0" x2="120.0" y1="140.0" y2="150.0" /><line id="line-11x13" stroke="#ccc965" x1="130.0" x2="120.0" y1="140.0" y2="150.0" /><line id="line-12x13" stroke="#c1cc65" x1="140.0" x2="130.0" y1="140.0" y2="150.0" /><line id="line-13x13" stroke="#c1cc65" x1="140.0" x2="150.0" y1="140.0" y2="150.0" /><line id="line-14x13" stroke="#cacc65" x1="160.0" x2="150.0" y1="140.0" y2="150.0" /><line id="line-1x14" stroke="#c7cc65" x1="30.0" x2="20.0" y1="150.0" y2="160.0" /><line id="line-2x14" stroke="#b9cc65" x1="40.0" x2="30.0" y1="150.0" y2="160.0" /><line id="line-3x14" stroke="#ccc065" x1="50.0" x2="40.0" y1="150.0" y2="160.0" /><line id="line-4x14" stroke="#afcc65" x1="60.0" x2="50.0" y1="150.0" y2="160.0" /><line id="line-5x14" stroke="#afcc65" x1="60.0" x2="70.0" y1="150.0" y2="160.0" /><line id="line-6x14" stroke="#c3cc65" x1="70.0" x2="80.0" y1="150.0" y2="160.0" /><line id="line-7x14" stroke="#afcc65" x1="80.0" x2="90.0" y1="150.0" y2="160.0" /><line id="line-8x14" stroke="#c0cc65" x1="100.0" x2="90.0" y1="150.0" y2="160.0" /><line id="line-9x14" stroke="#b3cc65" x1="110.0" x2="100.0" y1="150.0" y2="160.0" /><line id="line-10x14" stroke="#b3cc65" x1="110.0" x2="120.0" y1="150.0" y2="160.0" /><line id="line-11x14" stroke="#a8cc65" x1="130.0" x2="120.0" y1="150.0" y2="160.0" /><line id="line-12x14" stroke="#bdcc65" x1="140.0" x2="130.0" y1="150.0" y2="160.0" /><line id="line-13x14" stroke="#c6cc65" x1="150.0" x2="140.0" y1="150.0" y2="160.0" /><line id="line-14x14" stroke="#b9cc65" x1="160.0" x2="150.0" y1="150.0" y2="160.0" /></g></svg>
