<svg height="220" viewBox="0 0 90 90" width="220" xmlns="http://www.w3.org/2000/svg"><title>A Temo Artwork</title><rect fill="#1d3a5b" height="90" id="background" width="90" x="0" y="0" /><g id="goto10" stroke-linecap="round" stroke-width="6.0"><line id="line-1x1" stroke="#cc6594" x1="20.0" x2="30.0" y1="20.0" y2="30.0" /><line id="line-2x1" stroke="#cc657a" x1="40.0" x2="30.0" y1="20.0" y2="30.0" /><line id="line-3x1" stroke="#cc6a65" x1="40.0" x2="50.0" y1="20.0" y2="30.0" /><line id="line-4x1" stroke="#cc8465" x1="60.0" x2="50.0" y1="20.0" y2="30.0" /><line id="line-5x1" stroke="#cc9d65" x1="60.0" x2="70.0" y1="20.0" y2="30.0" /><line id="line-1x2" stroke="#cc6587" x1="30.0" x2="20.0" y1="30.0" y2="40.0" /><line id="line-2x2" stroke="#ccb765" x1="40.0" x2="30.0" y1="30.0" y2="40.0" /><line id="line-3x2" stroke="#c7cc65" x1="40.0" x2="50.0" y1="30.0" y2="40.0" /><line id="line-4x2" stroke="#adcc65" x1="60.0" x2="50.0" y1="30.0" y2="40.0" /><line id="line-5x2" stroke="#94cc65" x1="60.0" x2="70.0" y1="30.0" y2="40.0" /><line id="line-1x3" stroke="#c7cc65" x1="30.0" x2="20.0" y1="40.0" y2="50.0" /><line id="line-2x3" stroke="#c7cc65" x1="30.0" x2="40.0" y1="40.0" y2="50.0" /><line id="line-3x3" stroke="#7acc65" x1="40.0" x2="50.0" y1="40.0" y2="50.0" /><line id="line-4x3" stroke="#bacc65" x1="50.0" x2="60.0" y1="40.0" y2="50.0" /><line id="line-5x3" stroke="#7acc65" x1="70.0" x2="60.0" y1="40.0" y2="50.0" /><line id="line-1x4" stroke="#adcc65" x1="20.0" x2="30.0" y1="50.0" y2="60.0" /><line id="line-2x4" stroke="#adcc65" x1="40.0" x2="30.0" y1="50.0" y2="60.0" /><line id="line-3x4" stroke="#adcc65" x1="40.0" x2="50.0" y1="50.0" y2="60.0" /><line id="line-4x4" stroke="#65cc6a" x1="50.0" x2="60.0" y1="50.0" y2="60.0" /><line id="line-5x4" stroke="#65cc6a" x1="70.0" x2="60.0" y1="50.0" y2="60.0" /><line id="line-1x5" stroke="#65cc84" x1="20.0" x2="30.0" y1="60.0" y2="70.0" /><line id="line-2x5" stroke="#65cc9d" x1="40.0" x2="30.0" y1="60.0" y2="70.0" /><line id="line-3x5" stroke="#65ccb7" x1="40.0" x2="50.0" y1="60.0" y2="70.0" /><line id="line-4x5" stroke="#94cc65" x1="50.0" x2="60.0" y1="60.0" y2="70.0" /><line id="line-5x5" stroke="#65cc6a" x1="60.0" x2="70.0" y1="60.0" y2="70.0" /></g></svg>
