<svg height="220" viewBox="0 0 120 120" width="220" xmlns="http://www.w3.org/2000/svg"><title>A Temo Artwork</title><rect fill="#1c1c1c" height="120" id="background" width="120" x="0" y="0" /><g id="goto10" stroke-linecap="round" stroke-width="6.0"><line id="line-1x1" stroke="#cc6590" x1="30.0" x2="20.0" y1="20.0" y2="30.0" /><line id="line-2x1" stroke="#cc658b" x1="40.0" x2="30.0" y1="20.0" y2="30.0" /><line id="line-3x1" stroke="#cc6586" x1="40.0" x2="50.0" y1="20.0" y2="30.0" /><line id="line-4x1" stroke="#cc6581" x1="50.0" x2="60.0" y1="20.0" y2="30.0" /><line id="line-5x1" stroke="#cc657c" x1="70.0" x2="60.0" y1="20.0" y2="30.0" /><line id="line-6x1" stroke="#cc6576" x1="70.0" x2="80.0" y1="20.0" y2="30.0" /><line id="line-7x1" stroke="#cc6571" x1="80.0" x2="90.0" y1="20.0" y2="30.0" /><line id="line-8x1" stroke="#cc656c" x1="90.0" x2="100.0" y1="20.0" y2="30.0" /><line id="line-1x2" stroke="#cc6576" x1="20.0" x2="30.0" y1="30.0" y2="40.0" /><line id="line-2x2" stroke="#cc6567" x1="40.0" x2="30.0" y1="30.0" y2="40.0" /><line id="line-3x2" stroke="#cc656c" x1="50.0" x2="40.0" y1="30.0" y2="40.0" /><line id="line-4x2" stroke="#cc656c" x1="50.0" x2="60.0" y1="30.0" y2="40.0" /><line id="line-5x2" stroke="#cc657e" x1="60.0" x2="70.0" y1="30.0" y2="40.0" /><line id="line-6x2" stroke="#cc6e65" x1="80.0" x2="70.0" y1="30.0" y2="40.0" /><line id="line-7x2" stroke="#cc7365" x1="90.0" x2="80.0" y1="30.0" y2="40.0" /><line id="line-8x2" stroke="#cc7365" x1="90.0" x2="100.0" y1="30.0" y2="40.0" /><line id="line-1x3" stroke="#cc6965" x1="20.0" x2="30.0" y1="40.0" y2="50.0" /><line id="line-2x3" stroke="#cc656f" x1="30.0" x2="40.0" y1="40.0" y2="50.0" /><line id="line-3x3" stroke="#cc6e65" x1="50.0" x2="40.0" y1="40.0" y2="50.0" /><line id="line-4x3" stroke="#cc7365" x1="50.0" x2="60.0" y1="40.0" y2="50.0" /><line id="line-5x3" stroke="#cc7865" x1="60.0" x2="70.0" y1="40.0" y2="50.0" /><line id="line-6x3" stroke="#cc656e" x1="70.0" x2="80.0" y1="40.0" y2="50.0" /><line id="line-7x3" stroke="#cc8d65" x1="80.0" x2="90.0" y1="40.0" y2="50.0" /><line id="line-8x3" stroke="#cc7865" x1="90.0" x2="100.0" y1="40.0" y2="50.0" /><line id="line-1x4" stroke="#cc8265" x1="30.0" x2="20.0" y1="50.0" y2="60.0" /><line id="line-2x4" stroke="#cc6566" x1="40.0" x2="30.0" y1="50.0" y2="60.0" /><line id="line-3x4" stroke="#cc6566" x1="40.0" x2="50.0" y1="50.0" y2="60.0" /><line id="line-4x4" stroke="#cc7d65" x1="50.0" x2="60.0" y1="50.0" y2="60.0" /><line id="line-5x4" stroke="#cc8d65" x1="60.0" x2="70.0" y1="50.0" y2="60.0" /><line id="line-6x4" stroke="#cc9265" x1="70.0" x2="80.0" y1="50.0" y2="60.0" /><line id="line-7x4" stroke="#cca665" x1="90.0" x2="80.0" y1="50.0" y2="60.0" /><line id="line-8x4" stroke="#cca665" x1="90.0" x2="100.0" y1="50.0" y2="60.0" /><line id="line-1x5" stroke="#cc7f65" x1="30.0" x2="20.0" y1="60.0" y2="70.0" /><line id="line-2x5" stroke="#cc8265" x1="40.0" x2="30.0" y1="60.0" y2="70.0" /><line id="line-3x5" stroke="#cc8865" x1="40.0" x2="50.0" y1="60.0" y2="70.0" /><line id="line-4x5" stroke="#cc9765" x1="60.0" x2="50.0" y1="60.0" y2="70.0" /><line id="line-5x5" stroke="#cc9765" x1="60.0" x2="70.0" y1="60.0" y2="70.0" /><line id="line-6x5" stroke="#cc9c65" x1="80.0" x2="70.0" y1="60.0" y2="70.0" /><line id="line-7x5" stroke="#cc9c65" x1="80.0" x2="90.0" y1="60.0" y2="70.0" /><line id="line-8x5" stroke="#ccc065" x1="100.0" x2="90.0" y1="60.0" y2="70.0" /><line id="line-1x6" stroke="#cc9865" x1="20.0" x2="30.0" y1="70.0" y2="80.0" /><line id="line-2x6" stroke="#cc9c65" x1="30.0" x2="40.0" y1="70.0" y2="80.0" /><line id="line-3x6" stroke="#cc8f65" x1="50.0" x2="40.0" y1="70.0" y2="80.0" /><line id="line-4x6" stroke="#cc8d65" x1="60.0" x2="50.0" y1="70.0" y2="80.0" /><line id="line-5x6" stroke="#cc9265" x1="60.0" x2="70.0" y1="70.0" y2="80.0" /><line id="line-6x6" stroke="#cc9765" x1="80.0" x2="70.0" y1="70.0" y2="80.0" /><line id="line-7x6" stroke="#ccae65" x1="90.0" x2="80.0" y1="70.0" y2="80.0" /><line id="line-8x6" stroke="#ccae65" x1="90.0" x2="100.0" y1="70.0" y2="80.0" /><line id="line-1x7" stroke="#ccb265" x1="30.0" x2="20.0" y1="80.0" y2="90.0" /><line id="line-2x7" stroke="#ccb265" x1="30.0" x2="40.0" y1="80.0" y2="90.0" /><line id="line-3x7" stroke="#cc9665" x1="40.0" x2="50.0" y1="80.0" y2="90.0" /><line id="line-4x7" stroke="#cca665" x1="50.0" x2="60.0" y1="80.0" y2="90.0" /><line id="line-5x7" stroke="#cc9465" x1="70.0" x2="60.0" y1="80.0" y2="90.0" /><line id="line-6x7" stroke="#ccc765" x1="80.0" x2="70.0" y1="80.0" y2="90.0" /><line id="line-7x7" stroke="#cc9c65" x1="90.0" x2="80.0" y1="80.0" y2="90.0" /><line id="line-8x7" stroke="#cca165" x1="90.0" x2="100.0" y1="80.0" y2="90.0" /><line id="line-1x8" stroke="#cccb65" x1="20.0" x2="30.0" y1="90.0" y2="100.0" /><line id="line-2x8" stroke="#cca665" x1="30.0" x2="40.0" y1="90.0" y2="100.0" /><line id="line-3x8" stroke="#cccb65" x1="40.0" x2="50.0" y1="90.0" y2="100.0" /><line id="line-4x8" stroke="#cc9d65" x1="60.0" x2="50.0" y1="90.0" y2="100.0" /><line id="line-5x8" stroke="#cc9d65" x1="60.0" x2="70.0" y1="90.0" y2="100.0" /><line id="line-6x8" stroke="#b6cc65" x1="70.0" x2="80.0" y1="90.0" y2="100.0" /><line id="line-7x8" stroke="#ccb565" x1="80.0" x2="90.0" y1="90.0" y2="100.0" /><line id="line-8x8" stroke="#ccab65" x1="90.0" x2="100.0" y1="90.0" y2="100.0" /></g></svg>
