<svg height="220" viewBox="0 0 180 180" width="220" xmlns="http://www.w3.org/2000/svg"><title>A Temo Artwork</title><g id="goto10" stroke-linecap="round" stroke-width="4.0"><line id="line-1x1" stroke="#ccbc65" x1="30.0" x2="20.0" y1="20.0" y2="30.0" /><line id="line-2x1" stroke="#ccc365" x1="40.0" x2="30.0" y1="20.0" y2="30.0" /><line id="line-3x1" stroke="#ccca65" x1="40.0" x2="50.0" y1="20.0" y2="30.0" /><line id="line-4x1" stroke="#c6cc65" x1="60.0" x2="50.0" y1="20.0" y2="30.0" /><line id="line-5x1" stroke="#c0cc65" x1="60.0" x2="70.0" y1="20.0" y2="30.0" /><line id="line-6x1" stroke="#b9cc65" x1="80.0" x2="70.0" y1="20.0" y2="30.0" /><line id="line-7x1" stroke="#b2cc65" x1="90.0" x2="80.0" y1="20.0" y2="30.0" /><line id="line-8x1" stroke="#abcc65" x1="100.0" x2="90.0" y1="20.0" y2="30.0" /><line id="line-9x1" stroke="#a4cc65" x1="100.0" x2="110.0" y1="20.0" y2="30.0" /><line id="line-10x1" stroke="#9ecc65" x1="110.0" x2="120.0" y1="20.0" y2="30.0" /><line id="line-11x1" stroke="#97cc65" x1="120.0" x2="130.0" y1="20.0" y2="30.0" /><line id="line-12x1" stroke="#90cc65" x1="130.0" x2="140.0" y1="20.0" y2="30.0" /><line id="line-13x1" stroke="#89cc65" x1="140.0" x2="150.0" y1="20.0" y2="30.0" /><line id="line-14x1" stroke="#82cc65" x1="150.0" x2="160.0" y1="20.0" y2="30.0" /><line id="line-1x2" stroke="#c1cc65" x1="20.0" x2="30.0" y1="30.0" y2="40.0" /><line id="line-2x2" stroke="#bacc65" x1="30.0" x2="40.0" y1="30.0" y2="40.0" /><line id="line-3x2" stroke="#cacc65" x1="50.0" x2="40.0" y1="30.0" y2="40.0" /><line id="line-4x2" stroke="#7ccc65" x1="60.0" x2="50.0" y1="30.0" y2="40.0" /><line id="line-5x2" stroke="#75cc65" x1="60.0" x2="70.0" y1="30.0" y2="40.0" /><line id="line-6x2" stroke="#bccc65" x1="70.0" x2="80.0" y1="30.0" y2="40.0" /><line id="line-7x2" stroke="#92cc65" x1="90.0" x2="80.0" y1="30.0" y2="40.0" /><line id="line-8x2" stroke="#6ecc65" x1="100.0" x2="90.0" y1="30.0" y2="40.0" /><line id="line-9x2" stroke="#8bcc65" x1="110.0" x2="100.0" y1="30.0" y2="40.0" /><line id="line-10x2" stroke="#8bcc65" x1="110.0" x2="120.0" y1="30.0" y2="40.0" /><line id="line-11x2" stroke="#7dcc65" x1="130.0" x2="120.0" y1="30.0" y2="40.0" /><line id="line-12x2" stroke="#76cc65" x1="140.0" x2="130.0" y1="30.0" y2="40.0" /><line id="line-13x2" stroke="#70cc65" x1="150.0" x2="140.0" y1="30.0" y2="40.0" /><line id="line-14x2" stroke="#70cc65" x1="150.0" x2="160.0" y1="30.0" y2="40.0" /><line id="line-1x3" stroke="#a8cc65" x1="30.0" x2="20.0" y1="40.0" y2="50.0" /><line id="line-2x3" stroke="#a8cc65" x1="30.0" x2="40.0" y1="40.0" y2="50.0" /><line id="line-3x3" stroke="#c2cc65" x1="40.0" x2="50.0" y1="40.0" y2="50.0" /><line id="line-4x3" stroke="#65cc69" x1="50.0" x2="60.0" y1="40.0" y2="50.0" /><line id="line-5x3" stroke="#65cc70" x1="70.0" x2="60.0" y1="40.0" y2="50.0" /><line id="line-6x3" stroke="#a7cc65" x1="80.0" x2="70.0" y1="40.0" y2="50.0" /><line id="line-7x3" stroke="#a7cc65" x1="80.0" x2="90.0" y1="40.0" y2="50.0" /><line id="line-8x3" stroke="#71cc65" x1="100.0" x2="90.0" y1="40.0" y2="50.0" /><line id="line-9x3" stroke="#67cc65" x1="110.0" x2="100.0" y1="40.0" y2="50.0" /><line id="line-10x3" stroke="#84cc65" x1="120.0" x2="110.0" y1="40.0" y2="50.0" /><line id="line-11x3" stroke="#65cc6e" x1="130.0" x2="120.0" y1="40.0" y2="50.0" /><line id="line-12x3" stroke="#65cc75" x1="140.0" x2="130.0" y1="40.0" y2="50.0" /><line id="line-13x3" stroke="#65cc6b" x1="150.0" x2="140.0" y1="40.0" y2="50.0" /><line id="line-14x3" stroke="#65cc71" x1="150.0" x2="160.0" y1="40.0" y2="50.0" /><line id="line-1x4" stroke="#65cc78" x1="30.0" x2="20.0" y1="50.0" y2="60.0" /><line id="line-2x4" stroke="#8ecc65" x1="40.0" x2="30.0" y1="50.0" y2="60.0" /><line id="line-3x4" stroke="#a9cc65" x1="50.0" x2="40.0" y1="50.0" y2="60.0" /><line id="line-4x4" stroke="#65cc6c" x1="60.0" x2="50.0" y1="50.0" y2="60.0" /><line id="line-5x4" stroke="#65cc6c" x1="60.0" x2="70.0" y1="50.0" y2="60.0" /><line id="line-6x4" stroke="#65cc7f" x1="80.0" x2="70.0" y1="50.0" y2="60.0" /><line id="line-7x4" stroke="#8ccc65" x1="90.0" x2="80.0" y1="50.0" y2="60.0" /><line id="line-8x4" stroke="#8ccc65" x1="90.0" x2="100.0" y1="50.0" y2="60.0" /><line id="line-9x4" stroke="#65cc7d" x1="100.0" x2="110.0" y1="50.0" y2="60.0" /><line id="line-10x4" stroke="#6bcc65" x1="110.0" x2="120.0" y1="50.0" y2="60.0" /><line id="line-11x4" stroke="#65cc88" x1="120.0" x2="130.0" y1="50.0" y2="60.0" /><line id="line-12x4" stroke="#65cc8e" x1="130.0" x2="140.0" y1="50.0" y2="60.0" /><line id="line-13x4" stroke="#65cc84" x1="140.0" x2="150.0" y1="50.0" y2="60.0" /><line id="line-14x4" stroke="#65cc8b" x1="160.0" x2="150.0" y1="50.0" y2="60.0" /><line id="line-1x5" stroke="#75cc65" x1="30.0" x2="20.0" y1="60.0" y2="70.0" /><line id="line-2x5" stroke="#75cc65" x1="30.0" x2="40.0" y1="60.0" y2="70.0" /><line id="line-3x5" stroke="#8fcc65" x1="40.0" x2="50.0" y1="60.0" y2="70.0" /><line id="line-4x5" stroke="#65cc86" x1="50.0" x2="60.0" y1="60.0" y2="70.0" /><line id="line-5x5" stroke="#65cc86" x1="60.0" x2="70.0" y1="60.0" y2="70.0" /><line id="line-6x5" stroke="#73cc65" x1="80.0" x2="70.0" y1="60.0" y2="70.0" /><line id="line-7x5" stroke="#65cc8d" x1="90.0" x2="80.0" y1="60.0" y2="70.0" /><line id="line-8x5" stroke="#73cc65" x1="100.0" x2="90.0" y1="60.0" y2="70.0" /><line id="line-9x5" stroke="#73cc65" x1="100.0" x2="110.0" y1="60.0" y2="70.0" /><line id="line-10x5" stroke="#65cc97" x1="110.0" x2="120.0" y1="60.0" y2="70.0" /><line id="line-11x5" stroke="#65cca1" x1="130.0" x2="120.0" y1="60.0" y2="70.0" /><line id="line-12x5" stroke="#65cca8" x1="140.0" x2="130.0" y1="60.0" y2="70.0" /><line id="line-13x5" stroke="#65cc88" x1="150.0" x2="140.0" y1="60.0" y2="70.0" /><line id="line-14x5" stroke="#65cc88" x1="150.0" x2="160.0" y1="60.0" y2="70.0" /><line id="line-1x6" stroke="#65cc70" x1="20.0" x2="30.0" y1="70.0" y2="80.0" /><line id="line-2x6" stroke="#65cc70" x1="40.0" x2="30.0" y1="70.0" y2="80.0" /><line id="line-3x6" stroke="#65cc70" x1="40.0" x2="50.0" y1="70.0" y2="80.0" /><line id="line-4x6" stroke="#76cc65" x1="50.0" x2="60.0" y1="70.0" y2="80.0" /><line id="line-5x6" stroke="#65cc6f" x1="70.0" x2="60.0" y1="70.0" y2="80.0" /><line id="line-6x6" stroke="#65cca6" x1="80.0" x2="70.0" y1="70.0" y2="80.0" /><line id="line-7x6" stroke="#65cc72" x1="90.0" x2="80.0" y1="70.0" y2="80.0" /><line id="line-8x6" stroke="#65cc72" x1="90.0" x2="100.0" y1="70.0" y2="80.0" /><line id="line-9x6" stroke="#65cc72" x1="110.0" x2="100.0" y1="70.0" y2="80.0" /><line id="line-10x6" stroke="#65cc9c" x1="120.0" x2="110.0" y1="70.0" y2="80.0" /><line id="line-11x6" stroke="#65ccc1" x1="130.0" x2="120.0" y1="70.0" y2="80.0" /><line id="line-12x6" stroke="#65cca1" x1="140.0" x2="130.0" y1="70.0" y2="80.0" /><line id="line-13x6" stroke="#65cc93" x1="150.0" x2="140.0" y1="70.0" y2="80.0" /><line id="line-14x6" stroke="#65cc9a" x1="150.0" x2="160.0" y1="70.0" y2="80.0" /><line id="line-1x7" stroke="#65cca1" x1="20.0" x2="30.0" y1="80.0" y2="90.0" /><line id="line-2x7" stroke="#65cc70" x1="30.0" x2="40.0" y1="80.0" y2="90.0" /><line id="line-3x7" stroke="#65cc89" x1="50.0" x2="40.0" y1="80.0" y2="90.0" /><line id="line-4x7" stroke="#65cc89" x1="50.0" x2="60.0" y1="80.0" y2="90.0" /><line id="line-5x7" stroke="#65ccc0" x1="70.0" x2="60.0" y1="80.0" y2="90.0" /><line id="line-6x7" stroke="#65ccc0" x1="70.0" x2="80.0" y1="80.0" y2="90.0" /><line id="line-7x7" stroke="#65cca8" x1="90.0" x2="80.0" y1="80.0" y2="90.0" /><line id="line-8x7" stroke="#65ccaf" x1="90.0" x2="100.0" y1="80.0" y2="90.0" /><line id="line-9x7" stroke="#65ccb5" x1="110.0" x2="100.0" y1="80.0" y2="90.0" /><line id="line-10x7" stroke="#65bccc" x1="120.0" x2="110.0" y1="80.0" y2="90.0" /><line id="line-11x7" stroke="#65ccbb" x1="130.0" x2="120.0" y1="80.0" y2="90.0" /><line id="line-12x7" stroke="#65ccbb" x1="130.0" x2="140.0" y1="80.0" y2="90.0" /><line id="line-13x7" stroke="#65ccb5" x1="150.0" x2="140.0" y1="80.0" y2="90.0" /><line id="line-14x7" stroke="#65ccb4" x1="160.0" x2="150.0" y1="80.0" y2="90.0" /><line id="line-1x8" stroke="#65ccbb" x1="30.0" x2="20.0" y1="90.0" y2="100.0" /><line id="line-2x8" stroke="#65cc7d" x1="40.0" x2="30.0" y1="90.0" y2="100.0" /><line id="line-3x8" stroke="#65ccbc" x1="50.0" x2="40.0" y1="90.0" y2="100.0" /><line id="line-4x8" stroke="#65cca4" x1="60.0" x2="50.0" y1="90.0" y2="100.0" /><line id="line-5x8" stroke="#65ccc3" x1="70.0" x2="60.0" y1="90.0" y2="100.0" /><line id="line-6x8" stroke="#65ccb4" x1="80.0" x2="70.0" y1="90.0" y2="100.0" /><line id="line-7x8" stroke="#65ccca" x1="90.0" x2="80.0" y1="90.0" y2="100.0" /><line id="line-8x8" stroke="#65c6cc" x1="90.0" x2="100.0" y1="90.0" y2="100.0" /><line id="line-9x8" stroke="#65a3cc" x1="110.0" x2="100.0" y1="90.0" y2="100.0" /><line id="line-10x8" stroke="#65c3cc" x1="120.0" x2="110.0" y1="90.0" y2="100.0" /><line id="line-11x8" stroke="#65c3cc" x1="120.0" x2="130.0" y1="90.0" y2="100.0" /><line id="line-12x8" stroke="#65c0cc" x1="130.0" x2="140.0" y1="90.0" y2="100.0" /><line id="line-13x8" stroke="#65ccb8" x1="140.0" x2="150.0" y1="90.0" y2="100.0" /><line id="line-14x8" stroke="#65cacc" x1="150.0" x2="160.0" y1="90.0" y2="100.0" /><line id="line-1x9" stroke="#65cc96" x1="30.0" x2="20.0" y1="100.0" y2="110.0" /><line id="line-2x9" stroke="#65cc96" x1="30.0" x2="40.0" y1="100.0" y2="110.0" /><line id="line-3x9" stroke="#65c1cc" x1="40.0" x2="50.0" y1="100.0" y2="110.0" /><line id="line-4x9" stroke="#65ccbe" x1="50.0" x2="60.0" y1="100.0" y2="110.0" /><line id="line-5x9" stroke="#65cacc" x1="70.0" x2="60.0" y1="100.0" y2="110.0" /><line id="line-6x9" stroke="#65cacc" x1="70.0" x2="80.0" y1="100.0" y2="110.0" /><line id="line-7x9" stroke="#65b4cc" x1="80.0" x2="90.0" y1="100.0" y2="110.0" /><line id="line-8x9" stroke="#65b9cc" x1="90.0" x2="100.0" y1="100.0" y2="110.0" /><line id="line-9x9" stroke="#65b4cc" x1="100.0" x2="110.0" y1="100.0" y2="110.0" /><line id="line-10x9" stroke="#65a9cc" x1="110.0" x2="120.0" y1="100.0" y2="110.0" /><line id="line-11x9" stroke="#65a9cc" x1="130.0" x2="120.0" y1="100.0" y2="110.0" /><line id="line-12x9" stroke="#65a9cc" x1="130.0" x2="140.0" y1="100.0" y2="110.0" /><line id="line-13x9" stroke="#65c5cc" x1="150.0" x2="140.0" y1="100.0" y2="110.0" /><line id="line-14x9" stroke="#65b0cc" x1="160.0" x2="150.0" y1="100.0" y2="110.0" /><line id="line-1x10" stroke="#65ccb0" x1="20.0" x2="30.0" y1="110.0" y2="120.0" /><line id="line-2x10" stroke="#65b2cc" x1="30.0" x2="40.0" y1="110.0" y2="120.0" /><line id="line-3x10" stroke="#65a8cc" x1="50.0" x2="40.0" y1="110.0" y2="120.0" /><line id="line-4x10" stroke="#65a8cc" x1="50.0" x2="60.0" y1="110.0" y2="120.0" /><line id="line-5x10" stroke="#65ccc6" x1="60.0" x2="70.0" y1="110.0" y2="120.0" /><line id="line-6x10" stroke="#65abcc" x1="70.0" x2="80.0" y1="110.0" y2="120.0" /><line id="line-7x10" stroke="#65b0cc" x1="80.0" x2="90.0" y1="110.0" y2="120.0" /><line id="line-8x10" stroke="#659fcc" x1="100.0" x2="90.0" y1="110.0" y2="120.0" /><line id="line-9x10" stroke="#659bcc" x1="110.0" x2="100.0" y1="110.0" y2="120.0" /><line id="line-10x10" stroke="#65a9cc" x1="120.0" x2="110.0" y1="110.0" y2="120.0" /><line id="line-11x10" stroke="#65a9cc" x1="120.0" x2="130.0" y1="110.0" y2="120.0" /><line id="line-12x10" stroke="#65a4cc" x1="130.0" x2="140.0" y1="110.0" y2="120.0" /><line id="line-13x10" stroke="#6597cc" x1="150.0" x2="140.0" y1="110.0" y2="120.0" /><line id="line-14x10" stroke="#659ecc" x1="160.0" x2="150.0" y1="110.0" y2="120.0" /><line id="line-1x11" stroke="#65ccc9" x1="30.0" x2="20.0" y1="120.0" y2="130.0" /><line id="line-2x11" stroke="#65ccc9" x1="30.0" x2="40.0" y1="120.0" y2="130.0" /><line id="line-3x11" stroke="#65adcc" x1="40.0" x2="50.0" y1="120.0" y2="130.0" /><line id="line-4x11" stroke="#658ecc" x1="60.0" x2="50.0" y1="120.0" y2="130.0" /><line id="line-5x11" stroke="#658ecc" x1="60.0" x2="70.0" y1="120.0" y2="130.0" /><line id="line-6x11" stroke="#6592cc" x1="80.0" x2="70.0" y1="120.0" y2="130.0" /><line id="line-7x11" stroke="#6592cc" x1="80.0" x2="90.0" y1="120.0" y2="130.0" /><line id="line-8x11" stroke="#65a8cc" x1="90.0" x2="100.0" y1="120.0" y2="130.0" /><line id="line-9x11" stroke="#6590cc" x1="110.0" x2="100.0" y1="120.0" y2="130.0" /><line id="line-10x11" stroke="#6590cc" x1="110.0" x2="120.0" y1="120.0" y2="130.0" /><line id="line-11x11" stroke="#6590cc" x1="130.0" x2="120.0" y1="120.0" y2="130.0" /><line id="line-12x11" stroke="#6590cc" x1="130.0" x2="140.0" y1="120.0" y2="130.0" /><line id="line-13x11" stroke="#659ecc" x1="140.0" x2="150.0" y1="120.0" y2="130.0" /><line id="line-14x11" stroke="#6584cc" x1="150.0" x2="160.0" y1="120.0" y2="130.0" /><line id="line-1x12" stroke="#65b4cc" x1="20.0" x2="30.0" y1="130.0" y2="140.0" /><line id="line-2x12" stroke="#6597cc" x1="30.0" x2="40.0" y1="130.0" y2="140.0" /><line id="line-3x12" stroke="#65b4cc" x1="40.0" x2="50.0" y1="130.0" y2="140.0" /><line id="line-4x12" stroke="#6590cc" x1="60.0" x2="50.0" y1="130.0" y2="140.0" /><line id="line-5x12" stroke="#6589cc" x1="60.0" x2="70.0" y1="130.0" y2="140.0" /><line id="line-6x12" stroke="#6590cc" x1="70.0" x2="80.0" y1="130.0" y2="140.0" /><line id="line-7x12" stroke="#6578cc" x1="90.0" x2="80.0" y1="130.0" y2="140.0" /><line id="line-8x12" stroke="#659ccc" x1="100.0" x2="90.0" y1="130.0" y2="140.0" /><line id="line-9x12" stroke="#659ccc" x1="100.0" x2="110.0" y1="130.0" y2="140.0" /><line id="line-10x12" stroke="#6582cc" x1="110.0" x2="120.0" y1="130.0" y2="140.0" /><line id="line-11x12" stroke="#657ccc" x1="130.0" x2="120.0" y1="130.0" y2="140.0" /><line id="line-12x12" stroke="#6575cc" x1="130.0" x2="140.0" y1="130.0" y2="140.0" /><line id="line-13x12" stroke="#6576cc" x1="140.0" x2="150.0" y1="130.0" y2="140.0" /><line id="line-14x12" stroke="#6584cc" x1="150.0" x2="160.0" y1="130.0" y2="140.0" /><line id="line-1x13" stroke="#659bcc" x1="30.0" x2="20.0" y1="140.0" y2="150.0" /><line id="line-2x13" stroke="#659bcc" x1="30.0" x2="40.0" y1="140.0" y2="150.0" /><line id="line-3x13" stroke="#65a2cc" x1="50.0" x2="40.0" y1="140.0" y2="150.0" /><line id="line-4x13" stroke="#656ecc" x1="60.0" x2="50.0" y1="140.0" y2="150.0" /><line id="line-5x13" stroke="#6567cc" x1="60.0" x2="70.0" y1="140.0" y2="150.0" /><line id="line-6x13" stroke="#6570cc" x1="70.0" x2="80.0" y1="140.0" y2="150.0" /><line id="line-7x13" stroke="#6582cc" x1="90.0" x2="80.0" y1="140.0" y2="150.0" /><line id="line-8x13" stroke="#6b65cc" x1="100.0" x2="90.0" y1="140.0" y2="150.0" /><line id="line-9x13" stroke="#6582cc" x1="110.0" x2="100.0" y1="140.0" y2="150.0" /><line id="line-10x13" stroke="#657fcc" x1="120.0" x2="110.0" y1="140.0" y2="150.0" /><line id="line-11x13" stroke="#657fcc" x1="120.0" x2="130.0" y1="140.0" y2="150.0" /><line id="line-12x13" stroke="#7065cc" x1="140.0" x2="130.0" y1="140.0" y2="150.0" /><line id="line-13x13" stroke="#6e65cc" x1="150.0" x2="140.0" y1="140.0" y2="150.0" /><line id="line-14x13" stroke="#6e65cc" x1="150.0" x2="160.0" y1="140.0" y2="150.0" /><line id="line-1x14" stroke="#7165cc" x1="30.0" x2="20.0" y1="150.0" y2="160.0" /><line id="line-2x14" stroke="#659fcc" x1="40.0" x2="30.0" y1="150.0" y2="160.0" /><line id="line-3x14" stroke="#659fcc" x1="40.0" x2="50.0" y1="150.0" y2="160.0" /><line id="line-4x14" stroke="#7865cc" x1="60.0" x2="50.0" y1="150.0" y2="160.0" /><line id="line-5x14" stroke="#7f65cc" x1="60.0" x2="70.0" y1="150.0" y2="160.0" /><line id="line-6x14" stroke="#6579cc" x1="80.0" x2="70.0" y1="150.0" y2="160.0" /><line id="line-7x14" stroke="#8465cc" x1="90.0" x2="80.0" y1="150.0" y2="160.0" /><line id="line-8x14" stroke="#6569cc" x1="100.0" x2="90.0" y1="150.0" y2="160.0" /><line id="line-9x14" stroke="#6569cc" x1="100.0" x2="110.0" y1="150.0" y2="160.0" /><line id="line-10x14" stroke="#6665cc" x1="110.0" x2="120.0" y1="150.0" y2="160.0" /><line id="line-11x14" stroke="#656dcc" x1="130.0" x2="120.0" y1="150.0" y2="160.0" /><line id="line-12x14" stroke="#656dcc" x1="130.0" x2="140.0" y1="150.0" y2="160.0" /><line id="line-13x14" stroke="#8865cc" x1="140.0" x2="150.0" y1="150.0" y2="160.0" /><line id="line-14x14" stroke="#8865cc" x1="160.0" x2="150.0" y1="150.0" y2="160.0" /></g></svg>
