<svg height="220" viewBox="0 0 200 200" width="220" xmlns="http://www.w3.org/2000/svg"><title>A Temo Artwork</title><rect fill="#335577" height="200" id="background" width="200" x="0" y="0" /><g id="goto10" stroke-linecap="round" stroke-width="2.0"><line id="line-1x1" stroke="#ccc565" x1="20.0" x2="30.0" y1="20.0" y2="30.0" /><line id="line-2x1" stroke="#ccc765" x1="40.0" x2="30.0" y1="20.0" y2="30.0" /><line id="line-3x1" stroke="#ccc965" x1="40.0" x2="50.0" y1="20.0" y2="30.0" /><line id="line-4x1" stroke="#cccb65" x1="60.0" x2="50.0" y1="20.0" y2="30.0" /><line id="line-5x1" stroke="#cbcc65" x1="70.0" x2="60.0" y1="20.0" y2="30.0" /><line id="line-6x1" stroke="#c9cc65" x1="70.0" x2="80.0" y1="20.0" y2="30.0" /><line id="line-7x1" stroke="#c7cc65" x1="80.0" x2="90.0" y1="20.0" y2="30.0" /><line id="line-8x1" stroke="#c6cc65" x1="90.0" x2="100.0" y1="20.0" y2="30.0" /><line id="line-9x1" stroke="#c4cc65" x1="110.0" x2="100.0" y1="20.0" y2="30.0" /><line id="line-10x1" stroke="#c2cc65" x1="120.0" x2="110.0" y1="20.0" y2="30.0" /><line id="line-11x1" stroke="#c1cc65" x1="120.0" x2="130.0" y1="20.0" y2="30.0" /><line id="line-12x1" stroke="#bfcc65" x1="130.0" x2="140.0" y1="20.0" y2="30.0" /><line id="line-13x1" stroke="#bdcc65" x1="140.0" x2="150.0" y1="20.0" y2="30.0" /><line id="line-14x1" stroke="#bbcc65" x1="150.0" x2="160.0" y1="20.0" y2="30.0" /><line id="line-15x1" stroke="#bacc65" x1="170.0" x2="160.0" y1="20.0" y2="30.0" /><line id="line-16x1" stroke="#b8cc65" x1="170.0" x2="180.0" y1="20.0" y2="30.0" /><line id="line-1x2" stroke="#b6cc65" x1="20.0" x2="30.0" y1="30.0" y2="40.0" /><line id="line-2x2" stroke="#b5cc65" x1="40.0" x2="30.0" y1="30.0" y2="40.0" /><line id="line-3x2" stroke="#b3cc65" x1="40.0" x2="50.0" y1="30.0" y2="40.0" /><line id="line-4x2" stroke="#ccca65" x1="50.0" x2="60.0" y1="30.0" y2="40.0" /><line id="line-5x2" stroke="#b1cc65" x1="70.0" x2="60.0" y1="30.0" y2="40.0" /><line id="line-6x2" stroke="#b0cc65" x1="70.0" x2="80.0" y1="30.0" y2="40.0" /><line id="line-7x2" stroke="#c7cc65" x1="80.0" x2="90.0" y1="30.0" y2="40.0" /><line id="line-8x2" stroke="#c6cc65" x1="90.0" x2="100.0" y1="30.0" y2="40.0" /><line id="line-9x2" stroke="#c5cc65" x1="100.0" x2="110.0" y1="30.0" y2="40.0" /><line id="line-10x2" stroke="#aecc65" x1="120.0" x2="110.0" y1="30.0" y2="40.0" /><line id="line-11x2" stroke="#accc65" x1="120.0" x2="130.0" y1="30.0" y2="40.0" /><line id="line-12x2" stroke="#bfcc65" x1="130.0" x2="140.0" y1="30.0" y2="40.0" /><line id="line-13x2" stroke="#bdcc65" x1="140.0" x2="150.0" y1="30.0" y2="40.0" /><line id="line-14x2" stroke="#bbcc65" x1="160.0" x2="150.0" y1="30.0" y2="40.0" /><line id="line-15x2" stroke="#aacc65" x1="170.0" x2="160.0" y1="30.0" y2="40.0" /><line id="line-16x2" stroke="#b6cc65" x1="180.0" x2="170.0" y1="30.0" y2="40.0" /><line id="line-1x3" stroke="#b6cc65" x1="30.0" x2="20.0" y1="40.0" y2="50.0" /><line id="line-2x3" stroke="#a9cc65" x1="40.0" x2="30.0" y1="40.0" y2="50.0" /><line id="line-3x3" stroke="#b1cc65" x1="50.0" x2="40.0" y1="40.0" y2="50.0" /><line id="line-4x3" stroke="#bfcc65" x1="60.0" x2="50.0" y1="40.0" y2="50.0" /><line id="line-5x3" stroke="#a7cc65" x1="70.0" x2="60.0" y1="40.0" y2="50.0" /><line id="line-6x3" stroke="#a5cc65" x1="70.0" x2="80.0" y1="40.0" y2="50.0" /><line id="line-7x3" stroke="#c6cc65" x1="90.0" x2="80.0" y1="40.0" y2="50.0" /><line id="line-8x3" stroke="#c4cc65" x1="100.0" x2="90.0" y1="40.0" y2="50.0" /><line id="line-9x3" stroke="#c4cc65" x1="100.0" x2="110.0" y1="40.0" y2="50.0" /><line id="line-10x3" stroke="#a4cc65" x1="120.0" x2="110.0" y1="40.0" y2="50.0" /><line id="line-11x3" stroke="#a2cc65" x1="120.0" x2="130.0" y1="40.0" y2="50.0" /><line id="line-12x3" stroke="#aacc65" x1="130.0" x2="140.0" y1="40.0" y2="50.0" /><line id="line-13x3" stroke="#bdcc65" x1="140.0" x2="150.0" y1="40.0" y2="50.0" /><line id="line-14x3" stroke="#a9cc65" x1="160.0" x2="150.0" y1="40.0" y2="50.0" /><line id="line-15x3" stroke="#a9cc65" x1="160.0" x2="170.0" y1="40.0" y2="50.0" /><line id="line-16x3" stroke="#b5cc65" x1="170.0" x2="180.0" y1="40.0" y2="50.0" /><line id="line-1x4" stroke="#a7cc65" x1="30.0" x2="20.0" y1="50.0" y2="60.0" /><line id="line-2x4" stroke="#b0cc65" x1="40.0" x2="30.0" y1="50.0" y2="60.0" /><line id="line-3x4" stroke="#becc65" x1="50.0" x2="40.0" y1="50.0" y2="60.0" /><line id="line-4x4" stroke="#a5cc65" x1="60.0" x2="50.0" y1="50.0" y2="60.0" /><line id="line-5x4" stroke="#a0cc65" x1="70.0" x2="60.0" y1="50.0" y2="60.0" /><line id="line-6x4" stroke="#b6cc65" x1="80.0" x2="70.0" y1="50.0" y2="60.0" /><line id="line-7x4" stroke="#b6cc65" x1="80.0" x2="90.0" y1="50.0" y2="60.0" /><line id="line-8x4" stroke="#c2cc65" x1="90.0" x2="100.0" y1="50.0" y2="60.0" /><line id="line-9x4" stroke="#b4cc65" x1="110.0" x2="100.0" y1="50.0" y2="60.0" /><line id="line-10x4" stroke="#9fcc65" x1="120.0" x2="110.0" y1="50.0" y2="60.0" /><line id="line-11x4" stroke="#9dcc65" x1="120.0" x2="130.0" y1="50.0" y2="60.0" /><line id="line-12x4" stroke="#a9cc65" x1="140.0" x2="130.0" y1="50.0" y2="60.0" /><line id="line-13x4" stroke="#b3cc65" x1="150.0" x2="140.0" y1="50.0" y2="60.0" /><line id="line-14x4" stroke="#9bcc65" x1="160.0" x2="150.0" y1="50.0" y2="60.0" /><line id="line-15x4" stroke="#99cc65" x1="160.0" x2="170.0" y1="50.0" y2="60.0" /><line id="line-16x4" stroke="#b3cc65" x1="180.0" x2="170.0" y1="50.0" y2="60.0" /><line id="line-1x5" stroke="#a5cc65" x1="20.0" x2="30.0" y1="60.0" y2="70.0" /><line id="line-2x5" stroke="#bccc65" x1="40.0" x2="30.0" y1="60.0" y2="70.0" /><line id="line-3x5" stroke="#a4cc65" x1="50.0" x2="40.0" y1="60.0" y2="70.0" /><line id="line-4x5" stroke="#a4cc65" x1="50.0" x2="60.0" y1="60.0" y2="70.0" /><line id="line-5x5" stroke="#9fcc65" x1="60.0" x2="70.0" y1="60.0" y2="70.0" /><line id="line-6x5" stroke="#b4cc65" x1="70.0" x2="80.0" y1="60.0" y2="70.0" /><line id="line-7x5" stroke="#98cc65" x1="80.0" x2="90.0" y1="60.0" y2="70.0" /><line id="line-8x5" stroke="#bbcc65" x1="100.0" x2="90.0" y1="60.0" y2="70.0" /><line id="line-9x5" stroke="#9dcc65" x1="110.0" x2="100.0" y1="60.0" y2="70.0" /><line id="line-10x5" stroke="#9dcc65" x1="110.0" x2="120.0" y1="60.0" y2="70.0" /><line id="line-11x5" stroke="#96cc65" x1="120.0" x2="130.0" y1="60.0" y2="70.0" /><line id="line-12x5" stroke="#b1cc65" x1="140.0" x2="130.0" y1="60.0" y2="70.0" /><line id="line-13x5" stroke="#b1cc65" x1="140.0" x2="150.0" y1="60.0" y2="70.0" /><line id="line-14x5" stroke="#99cc65" x1="150.0" x2="160.0" y1="60.0" y2="70.0" /><line id="line-15x5" stroke="#94cc65" x1="160.0" x2="170.0" y1="60.0" y2="70.0" /><line id="line-16x5" stroke="#a6cc65" x1="170.0" x2="180.0" y1="60.0" y2="70.0" /><line id="line-1x6" stroke="#93cc65" x1="20.0" x2="30.0" y1="70.0" y2="80.0" /><line id="line-2x6" stroke="#b1cc65" x1="30.0" x2="40.0" y1="70.0" y2="80.0" /><line id="line-3x6" stroke="#91cc65" x1="50.0" x2="40.0" y1="70.0" y2="80.0" /><line id="line-4x6" stroke="#8fcc65" x1="50.0" x2="60.0" y1="70.0" y2="80.0" /><line id="line-5x6" stroke="#a2cc65" x1="60.0" x2="70.0" y1="70.0" y2="80.0" /><line id="line-6x6" stroke="#9dcc65" x1="70.0" x2="80.0" y1="70.0" y2="80.0" /><line id="line-7x6" stroke="#a9cc65" x1="90.0" x2="80.0" y1="70.0" y2="80.0" /><line id="line-8x6" stroke="#9bcc65" x1="100.0" x2="90.0" y1="70.0" y2="80.0" /><line id="line-9x6" stroke="#9bcc65" x1="100.0" x2="110.0" y1="70.0" y2="80.0" /><line id="line-10x6" stroke="#9bcc65" x1="120.0" x2="110.0" y1="70.0" y2="80.0" /><line id="line-11x6" stroke="#a4cc65" x1="130.0" x2="120.0" y1="70.0" y2="80.0" /><line id="line-12x6" stroke="#a4cc65" x1="130.0" x2="140.0" y1="70.0" y2="80.0" /><line id="line-13x6" stroke="#8ecc65" x1="140.0" x2="150.0" y1="70.0" y2="80.0" /><line id="line-14x6" stroke="#98cc65" x1="160.0" x2="150.0" y1="70.0" y2="80.0" /><line id="line-15x6" stroke="#93cc65" x1="170.0" x2="160.0" y1="70.0" y2="80.0" /><line id="line-16x6" stroke="#93cc65" x1="170.0" x2="180.0" y1="70.0" y2="80.0" /><line id="line-1x7" stroke="#8ccc65" x1="20.0" x2="30.0" y1="80.0" y2="90.0" /><line id="line-2x7" stroke="#a1cc65" x1="40.0" x2="30.0" y1="80.0" y2="90.0" /><line id="line-3x7" stroke="#a1cc65" x1="40.0" x2="50.0" y1="80.0" y2="90.0" /><line id="line-4x7" stroke="#8ecc65" x1="60.0" x2="50.0" y1="80.0" y2="90.0" /><line id="line-5x7" stroke="#a0cc65" x1="70.0" x2="60.0" y1="80.0" y2="90.0" /><line id="line-6x7" stroke="#a3cc65" x1="80.0" x2="70.0" y1="80.0" y2="90.0" /><line id="line-7x7" stroke="#a3cc65" x1="80.0" x2="90.0" y1="80.0" y2="90.0" /><line id="line-8x7" stroke="#99cc65" x1="90.0" x2="100.0" y1="80.0" y2="90.0" /><line id="line-9x7" stroke="#9bcc65" x1="110.0" x2="100.0" y1="80.0" y2="90.0" /><line id="line-10x7" stroke="#9bcc65" x1="110.0" x2="120.0" y1="80.0" y2="90.0" /><line id="line-11x7" stroke="#a2cc65" x1="120.0" x2="130.0" y1="80.0" y2="90.0" /><line id="line-12x7" stroke="#8acc65" x1="130.0" x2="140.0" y1="80.0" y2="90.0" /><line id="line-13x7" stroke="#93cc65" x1="150.0" x2="140.0" y1="80.0" y2="90.0" /><line id="line-14x7" stroke="#93cc65" x1="150.0" x2="160.0" y1="80.0" y2="90.0" /><line id="line-15x7" stroke="#91cc65" x1="160.0" x2="170.0" y1="80.0" y2="90.0" /><line id="line-16x7" stroke="#91cc65" x1="180.0" x2="170.0" y1="80.0" y2="90.0" /><line id="line-1x8" stroke="#96cc65" x1="30.0" x2="20.0" y1="90.0" y2="100.0" /><line id="line-2x8" stroke="#96cc65" x1="30.0" x2="40.0" y1="90.0" y2="100.0" /><line id="line-3x8" stroke="#97cc65" x1="50.0" x2="40.0" y1="90.0" y2="100.0" /><line id="line-4x8" stroke="#9fcc65" x1="60.0" x2="50.0" y1="90.0" y2="100.0" /><line id="line-5x8" stroke="#a1cc65" x1="70.0" x2="60.0" y1="90.0" y2="100.0" /><line id="line-6x8" stroke="#a1cc65" x1="70.0" x2="80.0" y1="90.0" y2="100.0" /><line id="line-7x8" stroke="#88cc65" x1="80.0" x2="90.0" y1="90.0" y2="100.0" /><line id="line-8x8" stroke="#9acc65" x1="100.0" x2="90.0" y1="90.0" y2="100.0" /><line id="line-9x8" stroke="#87cc65" x1="110.0" x2="100.0" y1="90.0" y2="100.0" /><line id="line-10x8" stroke="#85cc65" x1="110.0" x2="120.0" y1="90.0" y2="100.0" /><line id="line-11x8" stroke="#a0cc65" x1="130.0" x2="120.0" y1="90.0" y2="100.0" /><line id="line-12x8" stroke="#a0cc65" x1="130.0" x2="140.0" y1="90.0" y2="100.0" /><line id="line-13x8" stroke="#8ecc65" x1="140.0" x2="150.0" y1="90.0" y2="100.0" /><line id="line-14x8" stroke="#91cc65" x1="160.0" x2="150.0" y1="90.0" y2="100.0" /><line id="line-15x8" stroke="#91cc65" x1="160.0" x2="170.0" y1="90.0" y2="100.0" /><line id="line-16x8" stroke="#91cc65" x1="170.0" x2="180.0" y1="90.0" y2="100.0" /><line id="line-1x9" stroke="#95cc65" x1="20.0" x2="30.0" y1="100.0" y2="110.0" /><line id="line-2x9" stroke="#83cc65" x1="30.0" x2="40.0" y1="100.0" y2="110.0" /><line id="line-3x9" stroke="#97cc65" x1="40.0" x2="50.0" y1="100.0" y2="110.0" /><line id="line-4x9" stroke="#9dcc65" x1="50.0" x2="60.0" y1="100.0" y2="110.0" /><line id="line-5x9" stroke="#82cc65" x1="70.0" x2="60.0" y1="100.0" y2="110.0" /><line id="line-6x9" stroke="#a0cc65" x1="80.0" x2="70.0" y1="100.0" y2="110.0" /><line id="line-7x9" stroke="#91cc65" x1="90.0" x2="80.0" y1="100.0" y2="110.0" /><line id="line-8x9" stroke="#85cc65" x1="100.0" x2="90.0" y1="100.0" y2="110.0" /><line id="line-9x9" stroke="#85cc65" x1="100.0" x2="110.0" y1="100.0" y2="110.0" /><line id="line-10x9" stroke="#80cc65" x1="110.0" x2="120.0" y1="100.0" y2="110.0" /><line id="line-11x9" stroke="#7ecc65" x1="130.0" x2="120.0" y1="100.0" y2="110.0" /><line id="line-12x9" stroke="#7dcc65" x1="130.0" x2="140.0" y1="100.0" y2="110.0" /><line id="line-13x9" stroke="#90cc65" x1="150.0" x2="140.0" y1="100.0" y2="110.0" /><line id="line-14x9" stroke="#90cc65" x1="150.0" x2="160.0" y1="100.0" y2="110.0" /><line id="line-15x9" stroke="#8fcc65" x1="170.0" x2="160.0" y1="100.0" y2="110.0" /><line id="line-16x9" stroke="#8fcc65" x1="170.0" x2="180.0" y1="100.0" y2="110.0" /><line id="line-1x10" stroke="#93cc65" x1="30.0" x2="20.0" y1="110.0" y2="120.0" /><line id="line-2x10" stroke="#93cc65" x1="30.0" x2="40.0" y1="110.0" y2="120.0" /><line id="line-3x10" stroke="#82cc65" x1="40.0" x2="50.0" y1="110.0" y2="120.0" /><line id="line-4x10" stroke="#95cc65" x1="50.0" x2="60.0" y1="110.0" y2="120.0" /><line id="line-5x10" stroke="#9ecc65" x1="70.0" x2="60.0" y1="110.0" y2="120.0" /><line id="line-6x10" stroke="#9ecc65" x1="70.0" x2="80.0" y1="110.0" y2="120.0" /><line id="line-7x10" stroke="#90cc65" x1="80.0" x2="90.0" y1="110.0" y2="120.0" /><line id="line-8x10" stroke="#7bcc65" x1="100.0" x2="90.0" y1="110.0" y2="120.0" /><line id="line-9x10" stroke="#83cc65" x1="110.0" x2="100.0" y1="110.0" y2="120.0" /><line id="line-10x10" stroke="#83cc65" x1="110.0" x2="120.0" y1="110.0" y2="120.0" /><line id="line-11x10" stroke="#7fcc65" x1="120.0" x2="130.0" y1="110.0" y2="120.0" /><line id="line-12x10" stroke="#86cc65" x1="140.0" x2="130.0" y1="110.0" y2="120.0" /><line id="line-13x10" stroke="#79cc65" x1="150.0" x2="140.0" y1="110.0" y2="120.0" /><line id="line-14x10" stroke="#8fcc65" x1="160.0" x2="150.0" y1="110.0" y2="120.0" /><line id="line-15x10" stroke="#8fcc65" x1="160.0" x2="170.0" y1="110.0" y2="120.0" /><line id="line-16x10" stroke="#77cc65" x1="170.0" x2="180.0" y1="110.0" y2="120.0" /><line id="line-1x11" stroke="#76cc65" x1="30.0" x2="20.0" y1="120.0" y2="130.0" /><line id="line-2x11" stroke="#74cc65" x1="30.0" x2="40.0" y1="120.0" y2="130.0" /><line id="line-3x11" stroke="#91cc65" x1="40.0" x2="50.0" y1="120.0" y2="130.0" /><line id="line-4x11" stroke="#9acc65" x1="60.0" x2="50.0" y1="120.0" y2="130.0" /><line id="line-5x11" stroke="#72cc65" x1="70.0" x2="60.0" y1="120.0" y2="130.0" /><line id="line-6x11" stroke="#9ccc65" x1="80.0" x2="70.0" y1="120.0" y2="130.0" /><line id="line-7x11" stroke="#85cc65" x1="90.0" x2="80.0" y1="120.0" y2="130.0" /><line id="line-8x11" stroke="#85cc65" x1="90.0" x2="100.0" y1="120.0" y2="130.0" /><line id="line-9x11" stroke="#82cc65" x1="100.0" x2="110.0" y1="120.0" y2="130.0" /><line id="line-10x11" stroke="#71cc65" x1="110.0" x2="120.0" y1="120.0" y2="130.0" /><line id="line-11x11" stroke="#83cc65" x1="130.0" x2="120.0" y1="120.0" y2="130.0" /><line id="line-12x11" stroke="#83cc65" x1="130.0" x2="140.0" y1="120.0" y2="130.0" /><line id="line-13x11" stroke="#8ecc65" x1="150.0" x2="140.0" y1="120.0" y2="130.0" /><line id="line-14x11" stroke="#6fcc65" x1="160.0" x2="150.0" y1="120.0" y2="130.0" /><line id="line-15x11" stroke="#6dcc65" x1="160.0" x2="170.0" y1="120.0" y2="130.0" /><line id="line-16x11" stroke="#76cc65" x1="180.0" x2="170.0" y1="120.0" y2="130.0" /><line id="line-1x12" stroke="#6ccc65" x1="30.0" x2="20.0" y1="130.0" y2="140.0" /><line id="line-2x12" stroke="#72cc65" x1="40.0" x2="30.0" y1="130.0" y2="140.0" /><line id="line-3x12" stroke="#72cc65" x1="40.0" x2="50.0" y1="130.0" y2="140.0" /><line id="line-4x12" stroke="#95cc65" x1="50.0" x2="60.0" y1="130.0" y2="140.0" /><line id="line-5x12" stroke="#71cc65" x1="60.0" x2="70.0" y1="130.0" y2="140.0" /><line id="line-6x12" stroke="#9bcc65" x1="70.0" x2="80.0" y1="130.0" y2="140.0" /><line id="line-7x12" stroke="#6acc65" x1="90.0" x2="80.0" y1="130.0" y2="140.0" /><line id="line-8x12" stroke="#84cc65" x1="100.0" x2="90.0" y1="130.0" y2="140.0" /><line id="line-9x12" stroke="#80cc65" x1="110.0" x2="100.0" y1="130.0" y2="140.0" /><line id="line-10x12" stroke="#80cc65" x1="110.0" x2="120.0" y1="130.0" y2="140.0" /><line id="line-11x12" stroke="#7acc65" x1="120.0" x2="130.0" y1="130.0" y2="140.0" /><line id="line-12x12" stroke="#88cc65" x1="140.0" x2="130.0" y1="130.0" y2="140.0" /><line id="line-13x12" stroke="#88cc65" x1="140.0" x2="150.0" y1="130.0" y2="140.0" /><line id="line-14x12" stroke="#68cc65" x1="160.0" x2="150.0" y1="130.0" y2="140.0" /><line id="line-15x12" stroke="#66cc65" x1="160.0" x2="170.0" y1="130.0" y2="140.0" /><line id="line-16x12" stroke="#72cc65" x1="170.0" x2="180.0" y1="130.0" y2="140.0" /><line id="line-1x13" stroke="#6acc65" x1="20.0" x2="30.0" y1="140.0" y2="150.0" /><line id="line-2x13" stroke="#71cc65" x1="30.0" x2="40.0" y1="140.0" y2="150.0" /><line id="line-3x13" stroke="#65cc66" x1="40.0" x2="50.0" y1="140.0" y2="150.0" /><line id="line-4x13" stroke="#71cc65" x1="50.0" x2="60.0" y1="140.0" y2="150.0" /><line id="line-5x13" stroke="#94cc65" x1="60.0" x2="70.0" y1="140.0" y2="150.0" /><line id="line-6x13" stroke="#6fcc65" x1="70.0" x2="80.0" y1="140.0" y2="150.0" /><line id="line-7x13" stroke="#82cc65" x1="80.0" x2="90.0" y1="140.0" y2="150.0" /><line id="line-8x13" stroke="#82cc65" x1="90.0" x2="100.0" y1="140.0" y2="150.0" /><line id="line-9x13" stroke="#65cc68" x1="110.0" x2="100.0" y1="140.0" y2="150.0" /><line id="line-10x13" stroke="#7ecc65" x1="120.0" x2="110.0" y1="140.0" y2="150.0" /><line id="line-11x13" stroke="#81cc65" x1="130.0" x2="120.0" y1="140.0" y2="150.0" /><line id="line-12x13" stroke="#65cc6a" x1="140.0" x2="130.0" y1="140.0" y2="150.0" /><line id="line-13x13" stroke="#65cc6b" x1="140.0" x2="150.0" y1="140.0" y2="150.0" /><line id="line-14x13" stroke="#65cc6d" x1="160.0" x2="150.0" y1="140.0" y2="150.0" /><line id="line-15x13" stroke="#65cc6f" x1="160.0" x2="170.0" y1="140.0" y2="150.0" /><line id="line-16x13" stroke="#65cc66" x1="170.0" x2="180.0" y1="140.0" y2="150.0" /><line id="line-1x14" stroke="#68cc65" x1="30.0" x2="20.0" y1="150.0" y2="160.0" /><line id="line-2x14" stroke="#68cc65" x1="30.0" x2="40.0" y1="150.0" y2="160.0" /><line id="line-3x14" stroke="#65cc68" x1="50.0" x2="40.0" y1="150.0" y2="160.0" /><line id="line-4x14" stroke="#6fcc65" x1="60.0" x2="50.0" y1="150.0" y2="160.0" /><line id="line-5x14" stroke="#6fcc65" x1="60.0" x2="70.0" y1="150.0" y2="160.0" /><line id="line-6x14" stroke="#92cc65" x1="70.0" x2="80.0" y1="150.0" y2="160.0" /><line id="line-7x14" stroke="#81cc65" x1="90.0" x2="80.0" y1="150.0" y2="160.0" /><line id="line-8x14" stroke="#81cc65" x1="90.0" x2="100.0" y1="150.0" y2="160.0" /><line id="line-9x14" stroke="#7dcc65" x1="110.0" x2="100.0" y1="150.0" y2="160.0" /><line id="line-10x14" stroke="#7fcc65" x1="120.0" x2="110.0" y1="150.0" y2="160.0" /><line id="line-11x14" stroke="#65cc6b" x1="130.0" x2="120.0" y1="150.0" y2="160.0" /><line id="line-12x14" stroke="#65cc70" x1="140.0" x2="130.0" y1="150.0" y2="160.0" /><line id="line-13x14" stroke="#65cc72" x1="140.0" x2="150.0" y1="150.0" y2="160.0" /><line id="line-14x14" stroke="#65cc74" x1="160.0" x2="150.0" y1="150.0" y2="160.0" /><line id="line-15x14" stroke="#65cc76" x1="160.0" x2="170.0" y1="150.0" y2="160.0" /><line id="line-16x14" stroke="#65cc68" x1="180.0" x2="170.0" y1="150.0" y2="160.0" /><line id="line-1x15" stroke="#66cc65" x1="20.0" x2="30.0" y1="160.0" y2="170.0" /><line id="line-2x15" stroke="#65cc77" x1="30.0" x2="40.0" y1="160.0" y2="170.0" /><line id="line-3x15" stroke="#6dcc65" x1="50.0" x2="40.0" y1="160.0" y2="170.0" /><line id="line-4x15" stroke="#65cc79" x1="60.0" x2="50.0" y1="160.0" y2="170.0" /><line id="line-5x15" stroke="#6dcc65" x1="70.0" x2="60.0" y1="160.0" y2="170.0" /><line id="line-6x15" stroke="#89cc65" x1="80.0" x2="70.0" y1="160.0" y2="170.0" /><line id="line-7x15" stroke="#89cc65" x1="80.0" x2="90.0" y1="160.0" y2="170.0" /><line id="line-8x15" stroke="#65cc7b" x1="90.0" x2="100.0" y1="160.0" y2="170.0" /><line id="line-9x15" stroke="#7fcc65" x1="100.0" x2="110.0" y1="160.0" y2="170.0" /><line id="line-10x15" stroke="#7ecc65" x1="110.0" x2="120.0" y1="160.0" y2="170.0" /><line id="line-11x15" stroke="#65cc72" x1="130.0" x2="120.0" y1="160.0" y2="170.0" /><line id="line-12x15" stroke="#65cc7c" x1="140.0" x2="130.0" y1="160.0" y2="170.0" /><line id="line-13x15" stroke="#65cc7e" x1="140.0" x2="150.0" y1="160.0" y2="170.0" /><line id="line-14x15" stroke="#65cc73" x1="150.0" x2="160.0" y1="160.0" y2="170.0" /><line id="line-15x15" stroke="#65cc6f" x1="170.0" x2="160.0" y1="160.0" y2="170.0" /><line id="line-16x15" stroke="#65cc6f" x1="170.0" x2="180.0" y1="160.0" y2="170.0" /><line id="line-1x16" stroke="#65cc66" x1="30.0" x2="20.0" y1="170.0" y2="180.0" /><line id="line-2x16" stroke="#65cc66" x1="30.0" x2="40.0" y1="170.0" y2="180.0" /><line id="line-3x16" stroke="#65cc7b" x1="50.0" x2="40.0" y1="170.0" y2="180.0" /><line id="line-4x16" stroke="#6ccc65" x1="60.0" x2="50.0" y1="170.0" y2="180.0" /><line id="line-5x16" stroke="#88cc65" x1="70.0" x2="60.0" y1="170.0" y2="180.0" /><line id="line-6x16" stroke="#65cc80" x1="80.0" x2="70.0" y1="170.0" y2="180.0" /><line id="line-7x16" stroke="#65cc81" x1="80.0" x2="90.0" y1="170.0" y2="180.0" /><line id="line-8x16" stroke="#65cc7c" x1="100.0" x2="90.0" y1="170.0" y2="180.0" /><line id="line-9x16" stroke="#7dcc65" x1="110.0" x2="100.0" y1="170.0" y2="180.0" /><line id="line-10x16" stroke="#7dcc65" x1="110.0" x2="120.0" y1="170.0" y2="180.0" /><line id="line-11x16" stroke="#65cc7e" x1="130.0" x2="120.0" y1="170.0" y2="180.0" /><line id="line-12x16" stroke="#65cc83" x1="140.0" x2="130.0" y1="170.0" y2="180.0" /><line id="line-13x16" stroke="#65cc85" x1="140.0" x2="150.0" y1="170.0" y2="180.0" /><line id="line-14x16" stroke="#65cc71" x1="160.0" x2="150.0" y1="170.0" y2="180.0" /><line id="line-15x16" stroke="#65cc87" x1="170.0" x2="160.0" y1="170.0" y2="180.0" /><line id="line-16x16" stroke="#65cc70" x1="180.0" x2="170.0" y1="170.0" y2="180.0" /></g><g id="best_walker"><path d="M85.0 15.0v5.0l5.0 5.0l5.0 5.0l5.0 5.0l5.0 5.0l5.0 5.0l5.0 -5.0l5.0 -5.0l5.0 5.0l5.0 5.0l5.0 5.0l-5.0 5.0l-5.0 -5.0l-5.0 -5.0l-5.0 5.0l-5.0 5.0l-5.0 5.0l-5.0 5.0l-5.0 5.0l-5.0 5.0l-5.0 5.0l5.0 5.0l5.0 5.0l-5.0 5.0l-5.0 -5.0l-5.0 -5.0l-5.0 5.0l5.0 5.0l5.0 5.0l-5.0 5.0l-5.0 5.0l5.0 5.0l5.0 5.0l-5.0 5.0l-5.0 5.0l5.0 5.0l5.0 -5.0l5.0 -5.0l5.0 5.0l-5.0 5.0l-5.0 5.0l5.0 5.0l5.0 5.0l5.0 5.0l5.0 -5.0l5.0 -5.0l5.0 -5.0l-5.0 -5.0l-5.0 5.0l-5.0 5.0l-5.0 -5.0l5.0 -5.0l5.0 -5.0l-5.0 -5.0l-5.0 -5.0l5.0 -5.0l5.0 -5.0l-5.0 -5.0l-5.0 5.0l-5.0 5.0l-5.0 -5.0l5.0 -5.0l5.0 -5.0l5.0 -5.0l5.0 -5.0l5.0 -5.0l5.0 5.0l5.0 5.0l5.0 -5.0l-5.0 -5.0l-5.0 -5.0l5.0 -5.0l5.0 -5.0l-5.0 -5.0l-5.0 -5.0l5.0 -5.0l5.0 5.0l5.0 5.0l5.0 -5.0l5.0 -5.0l5.0 -5.0l-5.0 -5.0l-5.0 -5.0l-5.0 -5.0l-5.0 -5.0l-5.0 -5.0l-5.0 5.0l-5.0 5.0l-5.0 -5.0l5.0 -5.0l5.0 -5.0" fill="none" stroke="#e57f19" stroke-linecap="round" stroke-linejoin="round" stroke-width="4.0" /><circle cx="85.0" cy="15.0" fill="#e57f19" id="start_point" r="4.0" /></g></svg>
