<svg height="220" viewBox="0 0 200 200" width="220" xmlns="http://www.w3.org/2000/svg"><title>A Temo Artwork</title><g id="goto10" stroke-linecap="round" stroke-width="2.0"><line id="line-1x1" stroke="#cc9565" x1="30.0" x2="20.0" y1="20.0" y2="30.0" /><line id="line-2x1" stroke="#cc9665" x1="30.0" x2="40.0" y1="20.0" y2="30.0" /><line id="line-3x1" stroke="#cc9865" x1="50.0" x2="40.0" y1="20.0" y2="30.0" /><line id="line-4x1" stroke="#cc9a65" x1="50.0" x2="60.0" y1="20.0" y2="30.0" /><line id="line-5x1" stroke="#cc9c65" x1="60.0" x2="70.0" y1="20.0" y2="30.0" /><line id="line-6x1" stroke="#cc9d65" x1="80.0" x2="70.0" y1="20.0" y2="30.0" /><line id="line-7x1" stroke="#cc9f65" x1="90.0" x2="80.0" y1="20.0" y2="30.0" /><line id="line-8x1" stroke="#cca165" x1="90.0" x2="100.0" y1="20.0" y2="30.0" /><line id="line-9x1" stroke="#cca265" x1="110.0" x2="100.0" y1="20.0" y2="30.0" /><line id="line-10x1" stroke="#cca465" x1="110.0" x2="120.0" y1="20.0" y2="30.0" /><line id="line-11x1" stroke="#cca665" x1="130.0" x2="120.0" y1="20.0" y2="30.0" /><line id="line-12x1" stroke="#cca765" x1="130.0" x2="140.0" y1="20.0" y2="30.0" /><line id="line-13x1" stroke="#cca965" x1="140.0" x2="150.0" y1="20.0" y2="30.0" /><line id="line-14x1" stroke="#ccab65" x1="150.0" x2="160.0" y1="20.0" y2="30.0" /><line id="line-15x1" stroke="#ccad65" x1="160.0" x2="170.0" y1="20.0" y2="30.0" /><line id="line-16x1" stroke="#ccae65" x1="170.0" x2="180.0" y1="20.0" y2="30.0" /><line id="line-1x2" stroke="#cc9665" x1="29.98335147361078" x2="20.015043392400862" y1="40.01036313462909" y2="29.978771336809302" /><line id="line-2x2" stroke="#ccb065" x1="39.98879220406671" x2="30.019005506278717" y1="40.01268189214898" y2="29.982559599743503" /><line id="line-3x2" stroke="#ccb265" x1="39.99109642446624" x2="49.998381518821" y1="39.98524667394541" y2="29.99253707943076" /><line id="line-4x2" stroke="#ccb365" x1="60.01838965463734" x2="49.991584890253456" y1="39.98368185018628" y2="30.010558657478363" /><line id="line-5x2" stroke="#cc9c65" x1="70.00609755973163" x2="60.01201725419615" y1="40.00007199322742" y2="29.994155800968567" /><line id="line-6x2" stroke="#cc9c65" x1="80.01358461074949" x2="70.00621060911638" y1="40.00130356792504" y2="30.008683011162283" /><line id="line-7x2" stroke="#ccb565" x1="79.98837662149295" x2="89.98985208225388" y1="40.010283447379" y2="30.01175912587049" /><line id="line-8x2" stroke="#cca165" x1="90.01462220766095" x2="100.00092782453302" y1="40.00582244593738" y2="29.992146790793104" /><line id="line-9x2" stroke="#ccb765" x1="100.00604853716912" x2="109.97232573865078" y1="40.02414773545483" y2="29.990538278074762" /><line id="line-10x2" stroke="#ccb865" x1="119.99667357326831" x2="110.00856419855663" y1="39.999365319450185" y2="29.987488816076983" /><line id="line-11x2" stroke="#cca565" x1="129.99130173641106" x2="120.02508844964069" y1="40.0081009449428" y2="29.974428002166476" /><line id="line-12x2" stroke="#cca965" x1="130.00348870232057" x2="140.01708498562442" y1="39.99027817132728" y2="30.00389296570845" /><line id="line-13x2" stroke="#cca965" x1="150.01093129405317" x2="139.98847314505085" y1="39.98153012513135" y2="30.004038824634172" /><line id="line-14x2" stroke="#ccad65" x1="150.0162633340748" x2="159.99269452181395" y1="40.00481117479144" y2="29.981297780960592" /><line id="line-15x2" stroke="#ccae65" x1="159.9962949749735" x2="170.0085421095089" y1="40.00211724574669" y2="30.01437939791613" /><line id="line-16x2" stroke="#ccae65" x1="179.9908959761876" x2="170.00093626654345" y1="40.01113925595576" y2="30.001109036236834" /><line id="line-1x3" stroke="#cc9865" x1="19.990184544681853" x2="30.03118805333071" y1="49.94959153987777" y2="39.99076387095502" /><line id="line-2x3" stroke="#cc9865" x1="40.03755487440327" x2="29.919031232328212" y1="49.97881565849071" y2="40.098761037955036" /><line id="line-3x3" stroke="#ccba65" x1="39.97357031158871" x2="50.07972320176972" y1="49.97831064794542" y2="40.085602537408334" /><line id="line-4x3" stroke="#ccb565" x1="49.96056400613248" x2="59.98397216278111" y1="50.012447447341614" y2="40.03591052688522" /><line id="line-5x3" stroke="#ccb565" x1="70.0434082177142" x2="59.98129907077895" y1="49.94818707272329" y2="40.0106843927155" /><line id="line-6x3" stroke="#cc9d65" x1="79.92967898475999" x2="70.03068856330856" y1="50.089984213750064" y2="39.9899847763237" /><line id="line-7x3" stroke="#cca365" x1="79.95807431971667" x2="90.00301493750396" y1="49.936793392341386" y2="39.981936889853415" /><line id="line-8x3" stroke="#cca365" x1="99.99035777686242" x2="90.0134672383436" y1="50.013367755544344" y2="39.99031157579491" /><line id="line-9x3" stroke="#ccb865" x1="109.9941823667683" x2="100.00285788928697" y1="49.96511481497721" y2="39.956446812406526" /><line id="line-10x3" stroke="#ccba65" x1="110.02412291157684" x2="120.00737015918033" y1="50.04485480628343" y2="40.02813007245863" /><line id="line-11x3" stroke="#cca765" x1="120.01096027916863" x2="130.0156756571066" y1="49.98774478411412" y2="39.99246238658019" /><line id="line-12x3" stroke="#ccbc65" x1="129.93518278650888" x2="139.98079422629755" y1="49.95554162001051" y2="40.001362055586995" /><line id="line-13x3" stroke="#ccbe65" x1="149.92861222661023" x2="139.98983788359558" y1="50.04791204218623" y2="39.98705896907985" /><line id="line-14x3" stroke="#ccab65" x1="160.0001019889837" x2="150.03162557121183" y1="49.9803167522169" y2="39.94889223182468" /><line id="line-15x3" stroke="#ccbf65" x1="159.97531540007486" x2="169.98803971349548" y1="49.95056221249911" y2="39.96330273737604" /><line id="line-16x3" stroke="#ccb065" x1="170.07337889612822" x2="180.0061051323236" y1="50.04099820945915" y2="39.974174007318936" /><line id="line-1x4" stroke="#cc9a65" x1="30.011924103222064" x2="19.895717624431498" y1="59.87961642864463" y2="49.99718927341218" /><line id="line-2x4" stroke="#ccc165" x1="40.22883297688968" x2="29.94128148896427" y1="59.89576883015142" y2="50.19183744213739" /><line id="line-3x4" stroke="#ccb765" x1="40.00813606664563" x2="50.05075609846112" y1="59.92948173007976" y2="49.97228418777006" /><line id="line-4x4" stroke="#ccb765" x1="60.18553764469923" x2="49.9145150969389" y1="59.93238872845723" y2="50.210964150577766" /><line id="line-5x4" stroke="#ccc365" x1="69.81540541976464" x2="60.10665864556703" y1="60.04638994913036" y2="49.763382797790456" /><line id="line-6x4" stroke="#ccb765" x1="80.05979362062146" x2="69.81848532903741" y1="59.90204040949887" y2="50.14931748322173" /><line id="line-7x4" stroke="#cca065" x1="90.22338726097334" x2="79.9564855252674" y1="59.85268837780377" y2="50.12691186642135" /><line id="line-8x4" stroke="#ccc465" x1="99.90491006960185" x2="89.91002976024392" y1="60.0304201045287" y2="50.025303033668976" /><line id="line-9x4" stroke="#ccb965" x1="99.98428915169357" x2="110.03872660617999" y1="60.07256900100507" y2="50.12730442564958" /><line id="line-10x4" stroke="#ccb965" x1="119.99536729910366" x2="109.86724298075688" y1="59.9787145994157" y2="50.10850194759747" /><line id="line-11x4" stroke="#cca965" x1="129.8650838879266" x2="119.982939378453" y1="60.152624886232495" y2="50.0361423011696" /><line id="line-12x4" stroke="#ccc665" x1="129.81367007258217" x2="140.06348367714384" y1="59.774425211746745" y2="50.03064149741162" /><line id="line-13x4" stroke="#ccc865" x1="149.9992041596509" x2="139.9334354351672" y1="59.91482409937779" y2="49.98102824959278" /><line id="line-14x4" stroke="#ccbf65" x1="160.02746290417903" x2="150.17027384526997" y1="60.034307770767136" y2="49.89350780937732" /><line id="line-15x4" stroke="#ccb565" x1="169.77830827337678" x2="160.02758145692704" y1="60.11780239921154" y2="49.8745935977193" /><line id="line-16x4" stroke="#ccc965" x1="170.04259880560096" x2="179.9178068549706" y1="60.08021189185565" y2="49.956958166809265" /><line id="line-1x5" stroke="#cccb65" x1="29.758722293674367" x2="20.06263539714733" y1="70.1551882892286" y2="59.86024298121474" /><line id="line-2x5" stroke="#ccbc65" x1="29.977427633975218" x2="40.12227736534215" y1="70.0045357757424" y2="60.15151471984364" /><line id="line-3x5" stroke="#cacc65" x1="39.97025676325772" x2="49.80983486358949" y1="70.00889010576745" y2="59.851001407446745" /><line id="line-4x5" stroke="#c8cc65" x1="59.955413132016375" x2="49.9101081608824" y1="69.87155509172167" y2="59.91706625316693" /><line id="line-5x5" stroke="#ccb865" x1="70.26542675658322" x2="60.02992646085426" y1="69.81184437415027" y2="60.05302612109666" /><line id="line-6x5" stroke="#ccc465" x1="79.82794136235256" x2="70.2305571666148" y1="70.29703894638573" y2="59.91001740027332" /><line id="line-7x5" stroke="#ccb865" x1="89.73864165578249" x2="79.9156130658962" y1="70.11957546154024" y2="59.94568194321224" /><line id="line-8x5" stroke="#ccbf65" x1="90.14436114379907" x2="100.15018707160468" y1="70.11298589827646" y2="60.11881522220469" /><line id="line-9x5" stroke="#ccbf65" x1="109.83208351681425" x2="99.99296708283195" y1="69.95981617779641" y2="59.8014803003734" /><line id="line-10x5" stroke="#ccbb65" x1="109.9556550259021" x2="119.96581916250858" y1="69.98282477808345" y2="59.99299925617382" /><line id="line-11x5" stroke="#ccb765" x1="120.07141746921799" x2="129.8035210517795" y1="70.20620881176325" y2="59.94530437510207" /><line id="line-12x5" stroke="#ccb765" x1="139.8370523460186" x2="130.09387072037555" y1="70.02692410152531" y2="59.776538166852845" /><line id="line-13x5" stroke="#ccc965" x1="140.11106156853103" x2="150.16480460626732" y1="69.84487588740916" y2="59.89890932145042" /><line id="line-14x5" stroke="#ccc165" x1="149.93032724463433" x2="160.2317797073212" y1="69.71660583398528" y2="60.02743264124059" /><line id="line-15x5" stroke="#ccc165" x1="169.9854446098173" x2="159.69439591337942" y1="69.97099947039412" y2="60.270776961217145" /><line id="line-16x5" stroke="#c7cc65" x1="169.89030739544862" x2="180.3688256466169" y1="69.59761012339588" y2="60.10020757006937" /><line id="line-1x6" stroke="#c5cc65" x1="30.09809013017123" x2="19.67517342901305" y1="79.92767483261646" y2="70.36928545779405" /><line id="line-2x6" stroke="#ccc365" x1="40.58152359942374" x2="29.931827049691726" y1="79.71510442035665" y2="70.41005399606414" /><line id="line-3x6" stroke="#c8cc65" x1="49.936161235014595" x2="40.03460663624587" y1="79.82233216810745" y2="69.72484651436166" /><line id="line-4x6" stroke="#c7cc65" x1="50.321497835204134" x2="60.1699077024952" y1="80.11856335781506" y2="69.969237119791" /><line id="line-5x6" stroke="#c7cc65" x1="69.39880577658298" x2="60.2982442563865" y1="80.62379124973823" y2="69.79883027904096" /><line id="line-6x6" stroke="#ccba65" x1="80.60308973308659" x2="69.93152083842563" y1="79.75138539276932" y2="70.47142756277327" /><line id="line-7x6" stroke="#ccc665" x1="90.00177185726093" x2="79.82980170139064" y1="79.99743753089572" y2="70.1724172689276" /><line id="line-8x6" stroke="#ccbc65" x1="100.17690702816655" x2="90.35925781001642" y1="80.28418462974071" y2="70.10510000344172" /><line id="line-9x6" stroke="#ccbd65" x1="100.21946575556174" x2="109.6192412608203" y1="80.5069454439676" y2="69.94076257356727" /><line id="line-10x6" stroke="#ccb965" x1="110.44883147719707" x2="120.03328259891873" y1="80.41114079684029" y2="70.01218427729812" /><line id="line-11x6" stroke="#ccb965" x1="130.392449019989" x2="119.68295374863578" y1="79.85048633677131" y2="70.61432311642578" /><line id="line-12x6" stroke="#c3cc65" x1="140.02806245669382" x2="130.46279652988744" y1="80.44098658836245" y2="70.02438024322888" /><line id="line-13x6" stroke="#ccc365" x1="139.49738053735754" x2="150.18796376973833" y1="79.53769882364904" y2="70.27965204522222" /><line id="line-14x6" stroke="#ccc365" x1="159.32627132733197" x2="150.22248155334697" y1="80.49891903943973" y2="69.67667288852047" /><line id="line-15x6" stroke="#c2cc65" x1="169.5794732494943" x2="159.95326103672716" y1="80.26185004919076" y2="69.90153931858171" /><line id="line-16x6" stroke="#c0cc65" x1="170.1532271563424" x2="179.7452690971833" y1="80.17259400547965" y2="69.78063887638345" /><line id="line-1x7" stroke="#becc65" x1="30.645718315950916" x2="19.513532031748937" y1="89.55435558445883" y2="80.83228997281468" /><line id="line-2x7" stroke="#ccc565" x1="29.64161520567949" x2="40.029887809826995" y1="89.71974472587773" y2="80.12371469768804" /><line id="line-3x7" stroke="#c8cc65" x1="39.912481871333505" x2="50.20418902739832" y1="90.1439222377881" y2="80.44439834154431" /><line id="line-4x7" stroke="#c8cc65" x1="60.77108808381722" x2="49.85603224324454" y1="89.41424450153482" y2="80.4219391243148" /><line id="line-5x7" stroke="#bdcc65" x1="69.87016296470846" x2="59.95099131698599" y1="90.41468296548426" y2="80.33450271793815" /><line id="line-6x7" stroke="#ccbc65" x1="70.56181115087496" x2="79.34233722054306" y1="90.35232551263826" y2="79.26619174383146" /><line id="line-7x7" stroke="#ccc865" x1="79.92982357314067" x2="89.27470667385872" y1="90.48545858980434" y2="79.8706971777935" /><line id="line-8x7" stroke="#ccc865" x1="100.22023344663155" x2="90.55650146538407" y1="90.54484284770282" y2="80.21952037358054" /><line id="line-9x7" stroke="#ccbc65" x1="109.92693797583031" x2="99.95180368164348" y1="89.97189364868194" y2="79.94708962002693" /><line id="line-10x7" stroke="#bbcc65" x1="110.70141228552127" x2="119.68974053488321" y1="90.79878191201965" y2="79.88045075374632" /><line id="line-11x7" stroke="#b9cc65" x1="129.97171508532077" x2="120.53822914589423" y1="89.93178244674067" y2="79.39568530260604" /><line id="line-12x7" stroke="#ccbb65" x1="139.42863187658665" x2="130.24661721510589" y1="90.09576256858435" y2="79.33980576519619" /><line id="line-13x7" stroke="#b7cc65" x1="139.88925612975007" x2="149.52160999349033" y1="89.88687250091053" y2="79.53227163734806" /><line id="line-14x7" stroke="#b6cc65" x1="160.32378156749854" x2="149.49461362493486" y1="89.25789025778036" y2="80.16233520755111" /><line id="line-15x7" stroke="#c1cc65" x1="159.97827681984054" x2="169.5860238020547" y1="90.58404145056763" y2="80.20660448734041" /><line id="line-16x7" stroke="#c1cc65" x1="179.13004939277906" x2="170.26337953089617" y1="90.45633949276325" y2="79.43898202554917" /><line id="line-1x8" stroke="#b4cc65" x1="29.45478230689308" x2="19.67840691739621" y1="100.60019484974933" y2="90.3814628225534" /><line id="line-2x8" stroke="#c8cc65" x1="39.83112252372607" x2="29.932905961555825" y1="99.89800295134182" y2="89.79724511401207" /><line id="line-3x8" stroke="#b2cc65" x1="39.4881351561988" x2="50.86311457113339" y1="99.14466424909767" y2="90.7416979091785" /><line id="line-4x8" stroke="#b1cc65" x1="59.40348109573747" x2="49.96925403007197" y1="100.29076396619172" y2="89.75533043579229" /><line id="line-5x8" stroke="#c6cc65" x1="69.8763639850792" x2="60.27307819661226" y1="99.86094548844322" y2="89.47937999642666" /><line id="line-6x8" stroke="#cccb65" x1="80.71004587208127" x2="70.03149499449286" y1="100.14202916670529" y2="90.87010643435057" /><line id="line-7x8" stroke="#ccc965" x1="90.77670827718164" x2="79.67743989169756" y1="98.94643620054669" y2="90.18251919346625" /><line id="line-8x8" stroke="#ccc965" x1="89.77184952437092" x2="99.50389579786442" y1="99.8368363943587" y2="89.57587760238505" /><line id="line-9x8" stroke="#ccc965" x1="110.56360764413728" x2="100.18846346239431" y1="99.50436568599667" y2="89.8941428369653" /><line id="line-10x8" stroke="#afcc65" x1="110.21960440511546" x2="120.0719856689247" y1="100.09461686973567" y2="89.94914578986261" /><line id="line-11x8" stroke="#adcc65" x1="130.04332944235878" x2="120.49120562014305" y1="100.47507952299854" y2="90.04642042966067" /><line id="line-12x8" stroke="#b7cc65" x1="139.97199595019097" x2="129.4992700594145" y1="99.63560346603325" y2="90.13181409459513" /><line id="line-13x8" stroke="#accc65" x1="139.38583964412632" x2="149.85842773755962" y1="100.15150990526406" y2="90.64756868989035" /><line id="line-14x8" stroke="#aacc65" x1="160.6128039221267" x2="149.26734083961824" y1="99.71068228407725" y2="91.26790623330828" /><line id="line-15x8" stroke="#a8cc65" x1="159.67032491507487" x2="169.3944819342469" y1="100.18898872177448" y2="89.92055309279539" /><line id="line-16x8" stroke="#bfcc65" x1="169.3607654889654" x2="180.8748665610742" y1="99.43299850314506" y2="91.22169674877856" /><line id="line-1x9" stroke="#b2cc65" x1="19.762266458724064" x2="31.36221057802957" y1="109.60966130276478" y2="101.52008180633916" /><line id="line-2x9" stroke="#bdcc65" x1="29.192927589301185" x2="40.61377179632131" y1="108.64629152335792" y2="100.30576890190457" /><line id="line-3x9" stroke="#a6cc65" x1="40.64146807939847" x2="50.191486749933944" y1="110.53960393656195" y2="100.10901702151139" /><line id="line-4x9" stroke="#a5cc65" x1="61.05945398194308" x2="49.455648128637165" y1="109.55152836556488" y2="101.46748916979254" /><line id="line-5x9" stroke="#c4cc65" x1="60.44471675016903" x2="70.48538432888299" y1="109.58516169419013" y2="99.62599533481233" /><line id="line-6x9" stroke="#cacc65" x1="70.74802062286113" x2="78.94525750439422" y1="110.65125726031057" y2="99.12713874703444" /><line id="line-7x9" stroke="#ccc965" x1="80.86807402679356" x2="89.23794567297041" y1="111.24212803004812" y2="99.84277503847335" /><line id="line-8x9" stroke="#ccc965" x1="99.71987917804543" x2="90.27709579506353" y1="110.44222433218688" y2="99.91445904310105" /><line id="line-9x9" stroke="#a3cc65" x1="109.72908455348745" x2="100.96934735042579" y1="109.87315362269939" y2="98.77058616587675" /><line id="line-10x9" stroke="#becc65" x1="120.61669013991337" x2="109.43457099817473" y1="109.2009390052937" y2="100.54298246232342" /><line id="line-11x9" stroke="#accc65" x1="120.36984999933594" x2="129.01925049414803" y1="111.13325410015014" y2="99.94451551707724" /><line id="line-12x9" stroke="#b2cc65" x1="130.31587528950783" x2="138.6480333447619" y1="110.87983912989432" y2="99.45289106217894" /><line id="line-13x9" stroke="#a1cc65" x1="140.50367313699857" x2="148.625121280963" y1="110.16807550598406" y2="98.5904211647586" /><line id="line-14x9" stroke="#a9cc65" x1="148.8615028558314" x2="160.66721008113507" y1="108.650361007568" y2="100.86413747427456" /><line id="line-15x9" stroke="#bdcc65" x1="159.6233904177092" x2="171.0469862037094" y1="109.3853227379405" y2="101.0485692140513" /><line id="line-16x9" stroke="#bdcc65" x1="180.7814483233708" x2="169.24585811352335" y1="108.42128083210929" y2="100.24019542059622" /><line id="line-1x10" stroke="#bbcc65" x1="18.75868160717501" x2="30.568633622809216" y1="118.98879755256607" y2="111.20901391878694" /><line id="line-2x10" stroke="#a5cc65" x1="30.01776024041315" x2="38.360567986603876" y1="121.33724298231961" y2="109.91806792848583" /><line id="line-3x10" stroke="#a0cc65" x1="40.50000395315137" x2="49.033984038338794" y1="121.01022975173721" y2="109.73320958213459" /><line id="line-4x10" stroke="#9ecc65" x1="59.72783775408183" x2="51.68630509910278" y1="121.08719584448538" y2="109.45389224839086" /><line id="line-5x10" stroke="#b4cc65" x1="71.0093955783506" x2="58.72665837292377" y1="118.15378853755925" y2="111.14419748369431" /><line id="line-6x10" stroke="#cccb65" x1="70.24429682239283" x2="78.73639774363313" y1="120.5869975161742" y2="109.2784068903062" /><line id="line-7x10" stroke="#9ccc65" x1="81.0167814767449" x2="90.2505996255414" y1="120.37310657907156" y2="109.66158930116194" /><line id="line-8x10" stroke="#9bcc65" x1="100.06726275007247" x2="89.01201440678321" y1="119.03675340990264" y2="110.21737224860794" /><line id="line-9x10" stroke="#a1cc65" x1="99.85888740125839" x2="110.48962602693334" y1="118.84626123922627" y2="109.51955784131644" /><line id="line-10x10" stroke="#b5cc65" x1="110.1939035733761" x2="118.18017577399206" y1="119.96180982845821" y2="108.29050071860816" /><line id="line-11x10" stroke="#b5cc65" x1="130.65597792668288" x2="119.11785208855096" y1="119.09448401871157" y2="110.91697509829868" /><line id="line-12x10" stroke="#a0cc65" x1="131.6762225035285" x2="139.28574001385516" y1="120.82527231074108" y2="108.9049013743972" /><line id="line-13x10" stroke="#a7cc65" x1="140.1951271486626" x2="149.28547598083475" y1="121.04660363987882" y2="110.21306506241363" /><line id="line-14x10" stroke="#a7cc65" x1="161.17893991192682" x2="149.75363876086286" y1="118.53381121310161" y2="110.19939500034283" /><line id="line-15x10" stroke="#bccc65" x1="170.69116623730005" x2="158.84120214718777" y1="118.83972312159975" y2="111.1210217371019" /><line id="line-16x10" stroke="#99cc65" x1="180.82947506166457" x2="170.8729206025367" y1="119.98755205785471" y2="109.94429445374928" /><line id="line-1x11" stroke="#a3cc65" x1="19.734560384528194" x2="29.901239345914675" y1="130.65128266914707" y2="120.82078731560046" /><line id="line-2x11" stroke="#a3cc65" x1="41.523985316263534" x2="29.240136738344358" y1="128.6059025046443" y2="121.59825924069649" /><line id="line-3x11" stroke="#97cc65" x1="40.81342044709597" x2="47.9371251647293" y1="131.66638470766873" y2="119.44947711630304" /><line id="line-4x11" stroke="#9ccc65" x1="49.564916075644796" x2="60.03738219514281" y1="129.52466858554084" y2="120.02059296631484" /><line id="line-5x11" stroke="#9ccc65" x1="70.13616401900039" x2="58.65027635362889" y1="128.68554651362973" y2="120.43482627001056" /><line id="line-6x11" stroke="#9bcc65" x1="70.90141729738814" x2="79.38130142227062" y1="129.66975670009714" y2="118.35200227492226" /><line id="line-7x11" stroke="#95cc65" x1="80.15043404821058" x2="89.45910484506517" y1="129.6960344343789" y2="119.04950222920588" /><line id="line-8x11" stroke="#94cc65" x1="98.49807026664622" x2="90.78642959674598" y1="130.14455174435702" y2="118.28999151724018" /><line id="line-9x11" stroke="#9ecc65" x1="109.29219798368628" x2="99.7614456083919" y1="129.56183181157581" y2="119.11363774940314" /><line id="line-10x11" stroke="#92cc65" x1="109.03508538486857" x2="119.81544761945453" y1="129.9250187274525" y2="120.77167015487467" /><line id="line-11x11" stroke="#90cc65" x1="130.97422091338842" x2="119.22001239333959" y1="129.7436682512609" y2="121.87991710646932" /><line id="line-12x11" stroke="#aacc65" x1="140.12875039743602" x2="128.72607239062432" y1="128.80184509816814" y2="120.436503845537" /><line id="line-13x11" stroke="#8fcc65" x1="140.24869813903598" x2="151.83003275234165" y1="129.11711609928923" y2="121.00091695346688" /><line id="line-14x11" stroke="#a6cc65" x1="149.33068168838656" x2="160.88572768920005" y1="129.91190750309565" y2="121.75832473727522" /><line id="line-15x11" stroke="#bacc65" x1="158.07901419201272" x2="170.71865785874843" y1="127.8451086541924" y2="121.50165470717361" /><line id="line-16x11" stroke="#bacc65" x1="178.37788055708646" x2="171.17197957915877" y1="132.03157440057137" y2="119.86296761522814" /><line id="line-1x12" stroke="#a1cc65" x1="32.490204252202034" x2="19.56967630055972" y1="136.73382394788595" y2="130.98404504336887" /><line id="line-2x12" stroke="#9dcc65" x1="30.839207729014497" x2="41.49720576976949" y1="140.32218873612206" y2="131.02664798997594" /><line id="line-3x12" stroke="#9bcc65" x1="40.18002923600474" x2="52.355375732388694" y1="139.01118758296545" y2="131.81668011594653" /><line id="line-4x12" stroke="#9bcc65" x1="60.043879755985046" x2="52.47522314582109" y1="140.65436266602626" y2="128.7080060198591" /><line id="line-5x12" stroke="#9bcc65" x1="63.33808534346514" x2="68.8103406822832" y1="141.87392602284223" y2="128.83343440991683" /><line id="line-6x12" stroke="#9bcc65" x1="80.34415701750906" x2="67.45432602074608" y1="138.96217237280698" y2="133.14390313918707" /><line id="line-7x12" stroke="#94cc65" x1="91.02604539726971" x2="78.93846757632329" y1="139.4102314514953" y2="132.0692190947039" /><line id="line-8x12" stroke="#8dcc65" x1="97.6891458010392" x2="92.0591996048392" y1="140.5519410023169" y2="127.57874918889284" /><line id="line-9x12" stroke="#98cc65" x1="101.79238756843603" x2="110.31965832939686" y1="141.7914473628735" y2="130.50935299306508" /><line id="line-10x12" stroke="#98cc65" x1="118.9225819482536" x2="109.70904447263854" y1="140.43899908938312" y2="129.71003235509613" /><line id="line-11x12" stroke="#8fcc65" x1="119.15203039953573" x2="131.59860804946547" y1="139.69006949374142" y2="132.975703938883" /><line id="line-12x12" stroke="#8fcc65" x1="141.46897540929504" x2="128.6293433606348" y1="137.52308841154505" y2="131.59486364733303" /><line id="line-13x12" stroke="#9ccc65" x1="148.2857901809345" x2="140.16679366135463" y1="141.44198642916828" y2="129.86261271920236" /><line id="line-14x12" stroke="#a4cc65" x1="159.0492703240678" x2="153.5153248298108" y1="142.54452505978566" y2="129.53009279146937" /><line id="line-15x12" stroke="#8bcc65" x1="160.2512311512415" x2="167.68881712571775" y1="139.81205052129837" y2="127.78365433260079" /><line id="line-16x12" stroke="#b8cc65" x1="171.77861818832335" x2="179.10918083786615" y1="141.87934204597818" y2="129.78542410177462" /><line id="line-1x13" stroke="#9fcc65" x1="22.011311373420664" x2="28.168311803800275" y1="150.15651378179552" y2="137.42500382812915" /><line id="line-2x13" stroke="#9fcc65" x1="40.46415183993139" x2="30.457139600260476" y1="149.08477695823234" y2="139.09179411850545" /><line id="line-3x13" stroke="#8acc65" x1="41.32469190159901" x2="50.62508490796971" y1="150.2727743275506" y2="139.61901020743554" /><line id="line-4x13" stroke="#9bcc65" x1="49.92652300600148" x2="62.30508703624762" y1="147.72136886847946" y2="140.88242505023558" /><line id="line-5x13" stroke="#9bcc65" x1="70.68632134606192" x2="57.89953632719629" y1="147.10038980601118" y2="141.05902167608284" /><line id="line-6x13" stroke="#9acc65" x1="73.80890584519668" x2="78.04739600260615" y1="150.94694515653126" y2="137.4549030136404" /><line id="line-7x13" stroke="#9acc65" x1="88.92247070499704" x2="78.05692028174127" y1="150.94662796476965" y2="141.89456665257748" /><line id="line-8x13" stroke="#92cc65" x1="99.61681598493342" x2="87.91841846578973" y1="147.63626639355186" y2="139.689726550067" /><line id="line-9x13" stroke="#88cc65" x1="101.19175659130333" x2="111.68069566842344" y1="149.19238930226737" y2="139.7064967751267" /><line id="line-10x13" stroke="#86cc65" x1="118.40629337492736" x2="111.8015956389565" y1="151.15753687120315" y2="138.6524192061645" /><line id="line-11x13" stroke="#93cc65" x1="131.61872490152317" x2="120.90740223882497" y1="148.1385177789337" y2="138.90447387522784" /><line id="line-12x13" stroke="#8dcc65" x1="132.4757267809013" x2="139.91634887141657" y1="150.7087852730499" y2="138.68226695284864" /><line id="line-13x13" stroke="#9bcc65" x1="138.53566916085762" x2="151.98445055489472" y1="148.18986044783958" y2="143.81604300590152" /><line id="line-14x13" stroke="#9bcc65" x1="161.77672268680047" x2="149.91014062335037" y1="149.58118677985388" y2="141.88805801897874" /><line id="line-15x13" stroke="#b7cc65" x1="159.72739465216705" x2="173.17319350761534" y1="147.64983027013136" y2="143.26685261346626" /><line id="line-16x13" stroke="#84cc65" x1="169.03146877224174" x2="178.1980089960847" y1="149.29802687206202" y2="138.52887925840807" /><line id="line-1x14" stroke="#83cc65" x1="22.03541873442743" x2="31.454919027359644" y1="159.35148305598454" y2="148.80288057833616" /><line id="line-2x14" stroke="#81cc65" x1="38.43164997066897" x2="30.648481803420623" y1="161.33424728445095" y2="149.52652551942225" /><line id="line-3x14" stroke="#99cc65" x1="44.46403456125456" x2="48.60642387532574" y1="161.20654358741314" y2="147.68468680771497" /><line id="line-4x14" stroke="#7fcc65" x1="51.89659904218624" x2="55.05412921911609" y1="163.02538709663798" y2="149.24025005771898" /><line id="line-5x14" stroke="#9acc65" x1="61.778709224587715" x2="67.88919558687499" y1="161.57941274131417" y2="148.82551308605963" /><line id="line-6x14" stroke="#7ecc65" x1="67.23155837548785" x2="80.63676094277974" y1="156.45129892949464" y2="151.94568641509986" /><line id="line-7x14" stroke="#7ccc65" x1="87.0008378713422" x2="82.331643522323" y1="163.17027491358047" y2="149.82116917083172" /><line id="line-8x14" stroke="#98cc65" x1="96.77976501345675" x2="90.98416692775172" y1="163.04162095918127" y2="150.141580539517" /><line id="line-9x14" stroke="#7acc65" x1="99.2530739043287" x2="112.51038036680292" y1="156.7231643748199" y2="151.79936245353602" /><line id="line-10x14" stroke="#84cc65" x1="112.0667426887758" x2="117.70230454236517" y1="163.11540877272526" y2="150.14465541779757" /><line id="line-11x14" stroke="#84cc65" x1="127.93504062983844" x2="118.8933159656535" y1="162.26415642799822" y2="151.39000289325952" /><line id="line-12x14" stroke="#99cc65" x1="130.322330954525" x2="141.8926749335912" y1="159.09315473938324" y2="150.96129516078207" /><line id="line-13x14" stroke="#79cc65" x1="140.48873973534546" x2="149.39508646653684" y1="159.2236859017419" y2="148.2383780815761" /><line id="line-14x14" stroke="#77cc65" x1="158.0673159817258" x2="149.51361831388368" y1="160.89033659401858" y2="149.62826501694397" /><line id="line-15x14" stroke="#83cc65" x1="162.90158735461677" x2="167.0647870645156" y1="163.5703161511105" y2="150.05485211262857" /><line id="line-16x14" stroke="#83cc65" x1="178.590503580394" x2="172.46161878474123" y1="160.51375127184386" y2="147.7686827682376" /><line id="line-1x15" stroke="#81cc65" x1="28.83645844795226" x2="25.05284969087183" y1="171.55381132417904" y2="157.92720849099481" /><line id="line-2x15" stroke="#8dcc65" x1="29.037567231757798" x2="41.212917695207786" y1="170.67139354413456" y2="163.47689279063064" /><line id="line-3x15" stroke="#8dcc65" x1="46.40765014221166" x2="40.920052695673526" y1="170.1005971062619" y2="157.0665542083446" /><line id="line-4x15" stroke="#7ecc65" x1="59.024112346484664" x2="47.930193676241196" y1="169.10187672717726" y2="160.33118869612613" /><line id="line-5x15" stroke="#7ccc65" x1="60.304563424484385" x2="65.50396809769826" y1="170.70077561344021" y2="157.54911446192926" /><line id="line-6x15" stroke="#7ccc65" x1="80.88108858052577" x2="70.87719170496682" y1="171.65189609315638" y2="161.6557944878714" /><line id="line-7x15" stroke="#7acc65" x1="83.04226787492348" x2="91.26800045310733" y1="170.71109765275213" y2="159.20730160309074" /><line id="line-8x15" stroke="#7acc65" x1="100.34624098353521" x2="87.43067067387739" y1="165.99162450919192" y2="160.2307180200806" /><line id="line-9x15" stroke="#89cc65" x1="112.04159589535199" x2="100.57577673187309" y1="171.30390005920776" y2="163.0253137722624" /><line id="line-10x15" stroke="#83cc65" x1="121.90694104653653" x2="111.76810444288446" y1="171.51748569440434" y2="161.65827719045" /><line id="line-11x15" stroke="#75cc65" x1="131.55106312811287" x2="117.94184886566816" y1="165.06420638242062" y2="161.21852215736104" /><line id="line-12x15" stroke="#8fcc65" x1="137.24798170615304" x2="130.32142524939917" y1="170.71767410619938" y2="158.38792083813271" /><line id="line-13x15" stroke="#73cc65" x1="138.63326209906558" x2="152.27921025187175" y1="167.27472241182656" y2="163.5614894524061" /><line id="line-14x15" stroke="#72cc65" x1="161.12106753376844" x2="149.3233351372695" y1="166.8828719412083" y2="159.08457018373576" /><line id="line-15x15" stroke="#70cc65" x1="162.9544361645691" x2="168.91607568272477" y1="169.8861434821754" y2="157.06199227222922" /><line id="line-16x15" stroke="#6ecc65" x1="183.3968248039609" x2="169.6546767345273" y1="166.22051436440776" y2="162.88084874675036" /><line id="line-1x16" stroke="#87cc65" x1="24.149851676026167" x2="29.023543795122492" y1="180.34950153180594" y2="167.07369175882943" /><line id="line-2x16" stroke="#6dcc65" x1="32.6614655233959" x2="33.98596695937705" y1="182.08424924383476" y2="168.0042742457716" /><line id="line-3x16" stroke="#6bcc65" x1="51.97996214446434" x2="38.707522745891325" y1="179.82078543375465" y2="174.93792229710962" /><line id="line-4x16" stroke="#7dcc65" x1="53.16282121449108" x2="58.78117060491025" y1="179.61518856713514" y2="166.63697027157633" /><line id="line-5x16" stroke="#69cc65" x1="63.16683013405995" x2="66.59460643060692" y1="181.657302036541" y2="167.93686656018565" /><line id="line-6x16" stroke="#68cc65" x1="83.5011282734733" x2="70.13113374312384" y1="175.23595490924527" y2="170.626915284939" /><line id="line-7x16" stroke="#66cc65" x1="78.23591001225478" x2="90.50137528495077" y1="179.74191715311932" y2="172.70214715373092" /><line id="line-8x16" stroke="#65cc67" x1="99.14102855729853" x2="86.75377056529614" y1="176.12842377016344" y2="169.30523980374622" /><line id="line-9x16" stroke="#79cc65" x1="108.21358312426688" x2="105.80862289238894" y1="180.11029430737113" y2="166.17414827329537" /><line id="line-10x16" stroke="#81cc65" x1="110.85214976025891" x2="120.53014361738711" y1="179.79936860648797" y2="169.4874126862278" /><line id="line-11x16" stroke="#81cc65" x1="129.85037415770583" x2="122.64503826448205" y1="178.7102564026786" y2="166.5413150080535" /><line id="line-12x16" stroke="#73cc65" x1="133.67704853046607" x2="131.44089725016036" y1="184.47767425494365" y2="170.51344755055405" /><line id="line-13x16" stroke="#65cc69" x1="142.43532559833582" x2="142.7834578036005" y1="182.5483626118736" y2="168.41051256430072" /><line id="line-14x16" stroke="#71cc65" x1="152.13502830248228" x2="157.4486993414045" y1="181.4053744770138" y2="168.2994635933659" /><line id="line-15x16" stroke="#71cc65" x1="163.95996251973514" x2="163.0402326888008" y1="183.87460348132177" y2="169.76240673389478" /><line id="line-16x16" stroke="#6dcc65" x1="174.45174018189033" x2="176.6500843750809" y1="182.918267543348" y2="168.94803909824856" /></g></svg>
